<svg viewBox="0 0 16 16" xmlns="http://www.w3.org/2000/svg">
  <defs id="defs3051">
    <style type="text/css" id="current-color-scheme">
      .ColorScheme-Text {
        color:#eff0f1;
      }
      </style>
  </defs>
        <g transform="translate(-473.0004 401.9276)">
            <rect 
                style="fill:currentColor;fill-opacity:1;stroke:none"
                    height="4" rx=".5" width="1" x="481" y="-396.93"
                    class="ColorScheme-Text"
                />
            <rect 
                style="fill:currentColor;fill-opacity:1;stroke:none"
                    height="1" rx=".583" ry=".5" width="3.5" x="478.5" y="-393.93"
                    class="ColorScheme-Text"
                />  
            <path 
                style="fill:currentColor;fill-opacity:1;stroke:none"
                    d="m481-399.93c-3.578 0-6.5 2.922-6.5 6.5 0 3.578 2.922 6.5 6.5 6.5 3.578 0 6.5-2.922 6.5-6.5 0-3.578-2.922-6.5-6.5-6.5zm0 2c2.497 0 4.5 2 4.5 4.5 0 2.497-2 4.5-4.5 4.5-2.497 0-4.5-2-4.5-4.5 0-2.497 2-4.5 4.5-4.5z"
                    class="ColorScheme-Text"
                />
            <rect 
                style="fill:currentColor;fill-opacity:1;stroke:none"
                    height="3.5" rx="1" transform="matrix(.70710678 .70710678 -.70710678 .70710678 0 0)" width="2" x="62.16" y="-613.17"
                    class="ColorScheme-Text"
                />
            <rect 
                style="fill:currentColor;fill-opacity:1;stroke:none"
                    height="3.5" rx="1" transform="matrix(.70710678 -.70710678 .70710678 .70710678 0 0)" width="2" x="616.08" y="67.07"
                    class="ColorScheme-Text"
                />
            <path 
                style="fill:currentColor;fill-opacity:1;stroke:none"
                    d="m4.268 1.25a1.853 2.912 45 0 0 -1.182.277 1.853 2.912 45 0 0 -2.059 2.059 1.853 2.912 45 0 0 .036 2.082c.764-1.856 2.251-3.344 4.107-4.107a1.853 2.912 45 0 0 -.902-.311z" transform="translate(473.0004 -401.9276)"
                    class="ColorScheme-Text"
                />
            <path 
                style="fill:currentColor;fill-opacity:1;stroke:none"
                    d="m11.85 1.252a2.912 1.853 45 0 0 -1.02.311c1.857.764 3.346 2.252 4.109 4.109a2.912 1.853 45 0 0 .036-2.086 2.912 1.853 45 0 0 -2.061-2.059 2.912 1.853 45 0 0 -1.064-.275z" transform="translate(473.0004 -401.9276)"
                    class="ColorScheme-Text"
                />
            <path 
                style="fill:currentColor;fill-opacity:1;stroke:none"
                    d="m7.971.25a1.25 1.25 0 0 0 -.596.168 1.25 1.25 0 0 0 -.559.686c.387-.063.781-.104 1.184-.104.404 0 .798.041 1.186.104a1.25 1.25 0 0 0 -.561-.686 1.25 1.25 0 0 0 -.654-.168z" transform="translate(473.0004 -401.9276)"
                    class="ColorScheme-Text"
                />
        </g>
</svg>
