<?xml version="1.0" encoding="UTF-8" standalone="no"?>
<svg
   xmlns:dc="http://purl.org/dc/elements/1.1/"
   xmlns:cc="http://creativecommons.org/ns#"
   xmlns:rdf="http://www.w3.org/1999/02/22-rdf-syntax-ns#"
   xmlns:svg="http://www.w3.org/2000/svg"
   xmlns="http://www.w3.org/2000/svg"
   xmlns:sodipodi="http://sodipodi.sourceforge.net/DTD/sodipodi-0.dtd"
   xmlns:inkscape="http://www.inkscape.org/namespaces/inkscape"
   inkscape:version="1.0 (4035a4fb49, 2020-05-01)"
   sodipodi:docname="caffeine-cup-user.svg"
   id="svg7"
   version="1.1"
   viewBox="0 0 16 16"
   height="24"
   width="24">
  <metadata
     id="metadata11">
    <rdf:RDF>
      <cc:Work
         rdf:about="">
        <dc:format>image/svg+xml</dc:format>
        <dc:type
           rdf:resource="http://purl.org/dc/dcmitype/StillImage" />
      </cc:Work>
    </rdf:RDF>
  </metadata>
  <sodipodi:namedview
     inkscape:current-layer="svg7"
     inkscape:window-maximized="1"
     inkscape:window-y="33"
     inkscape:window-x="0"
     inkscape:cy="12"
     inkscape:cx="7.9961089"
     inkscape:zoom="42.833333"
     showgrid="false"
     id="namedview9"
     inkscape:window-height="1531"
     inkscape:window-width="3840"
     inkscape:pageshadow="2"
     inkscape:pageopacity="0"
     guidetolerance="10"
     gridtolerance="10"
     objecttolerance="10"
     borderopacity="1"
     bordercolor="#666666"
     pagecolor="#ffffff" />
  <defs
     id="defs3">
    <style
       type="text/css"
       id="current-color-scheme">
   .ColorScheme-Text { color:#ff0400; } .ColorScheme-Highlight { color:#ff0400; }
  </style>
  </defs>
  <path
     id="path5"
     d="M15.312,5.809c0,7.485 0,9.357 -5.614,9.357c-2.846,0 -4.246,-0.486 -4.938,-1.936c-0.223,0.042 -0.449,0.064 -0.676,0.064c-2.067,0 -3.743,-1.675 -3.743,-3.742c0,-2.068 1.676,-3.743 3.743,-3.743l11.228,0Zm-11.228,1.871c-1.075,0.042 -1.872,0.864 -1.872,1.872c0,1.033 0.838,1.871 1.872,1.871c0.064,-0.001 0.127,-0.006 0.19,-0.013c-0.134,-0.98 -0.172,-2.236 -0.183,-3.73l-0.007,0Zm2.969,-7.188c-0.349,1.251 -0.036,1.708 0.526,2.45c0.563,0.745 -0.007,1.667 -0.724,2.394c0.437,-1.491 -0.431,-1.82 -0.767,-2.464c-0.371,-0.711 -0.063,-1.262 0.965,-2.38Zm2.806,0c-1.027,1.118 -1.335,1.669 -0.964,2.38c0.336,0.644 1.204,0.973 0.767,2.464c0.717,-0.727 1.287,-1.649 0.724,-2.394c-0.563,-0.742 -0.875,-1.199 -0.527,-2.45Zm2.808,0c-0.349,1.251 -0.036,1.708 0.526,2.45c0.563,0.745 -0.006,1.667 -0.724,2.394c0.437,-1.491 -0.432,-1.82 -0.768,-2.464c-0.37,-0.711 -0.062,-1.262 0.966,-2.38Z"
     class="ColorScheme-Text"
     style="fill:currentColor" />
  <path
     transform="scale(0.66666667)"
     id="path836"
     d="m 10.337948,7.8677043 c 0.0056,-0.032101 0.03452,-0.1686771 0.06432,-0.303502 0.04496,-0.2034399 0.05433,-0.3146297 0.05507,-0.6536965 C 10.458399,6.4282968 10.41723,6.2204129 10.251301,5.870135 10.120888,5.5948305 10.024197,5.4540868 9.6642746,5.0156629 9.5025964,4.8187214 9.3187556,4.5796527 9.2557394,4.4843988 8.9401618,4.007379 8.846961,3.5032669 8.9865824,3.0285612 9.0962743,2.6556139 9.3480523,2.2221752 9.7422758,1.7276265 9.964207,1.4492163 10.521264,0.81309236 10.532925,0.82475399 c 0.0048,0.004794 -0.01762,0.11798372 -0.0498,0.25153291 -0.135037,0.5603474 -0.166295,1.1356183 -0.08451,1.555181 0.101711,0.5217506 0.301598,0.9072179 0.859598,1.6576716 0.323306,0.4348123 0.433998,0.7263644 0.432393,1.1388761 -0.0014,0.349566 -0.08465,0.6578126 -0.287593,1.0643673 -0.197233,0.3951121 -0.559147,0.8970287 -0.90958,1.2614416 -0.133167,0.1384791 -0.163649,0.1608037 -0.155491,0.1138798 z"
     style="fill:#ff0400;stroke:#2b0000;stroke-width:0.0233463;fill-opacity:1" />
  <path
     transform="scale(0.66666667)"
     id="path838"
     d="M 14.541807,7.8910506 C 14.64646,7.4760794 14.660062,7.361485 14.659575,6.8988327 14.659146,6.4902205 14.652648,6.4085811 14.607551,6.2451362 14.496577,5.8429426 14.319089,5.558509 13.711518,4.8091996 13.116997,4.0759851 12.991149,3.4768702 13.284507,2.7763644 c 0.182386,-0.4355195 0.66294,-1.0945536 1.327653,-1.82075073 0.125278,-0.13686533 0.136201,-0.14396255 0.123324,-0.0801273 -0.0078,0.0385214 -0.04001,0.19085603 -0.07165,0.33852143 -0.181666,0.8479228 -0.131713,1.4594608 0.170678,2.0894941 0.122396,0.255011 0.332569,0.5819421 0.63036,0.9805448 0.234577,0.3139886 0.359789,0.5654122 0.412342,0.8279729 0.147607,0.7374729 -0.269275,1.6711296 -1.189545,2.6641256 -0.118573,0.1279431 -0.15673,0.1580024 -0.145861,0.1149054 z"
     style="fill:#ff6600;stroke:#2b0000;stroke-width:0.0233463" />
  <path
     transform="scale(0.66666667)"
     id="path840"
     d="m 18.744889,7.9027237 c 0.0063,-0.025681 0.02682,-0.1097276 0.04565,-0.1867704 0.07334,-0.3000077 0.0954,-0.501438 0.09329,-0.8521401 -0.0043,-0.7190512 -0.16413,-1.080692 -0.838854,-1.898297 C 17.681777,4.5254078 17.541683,4.3011759 17.42959,3.9805447 17.35473,3.7664078 17.34794,3.7248567 17.34765,3.4785992 17.347395,3.2623711 17.35793,3.1760379 17.40178,3.0350195 17.512537,2.6788023 17.694467,2.3490458 18.016514,1.9207822 18.314143,1.5249899 18.91562,0.82612622 18.938736,0.84924135 c 0.0062,0.006246 -0.01059,0.10925814 -0.03741,0.22891695 -0.08794,0.3923057 -0.123159,0.6791082 -0.124188,1.0113359 -0.0024,0.7682565 0.187808,1.2347299 0.889951,2.182786 0.343157,0.4633421 0.444749,0.7231797 0.44541,1.1392099 9.55e-4,0.600476 -0.284865,1.2408378 -0.885209,1.9832531 -0.241431,0.2985658 -0.496975,0.567663 -0.482397,0.5079805 z"
     style="fill:#ff6600;stroke:#2b0000;stroke-width:0.0233463" />
  <path
     transform="scale(0.66666667)"
     id="path842"
     d="M 13.540856,22.72367 C 10.448289,22.620463 8.7147742,22.021339 7.6820591,20.698798 7.5167265,20.487065 7.3398934,20.210689 7.2282619,19.989549 7.1472831,19.829131 7.1404025,19.826319 6.9275823,19.86668 6.6620127,19.917044 6.1198146,19.940306 5.7779066,19.916004 4.386156,19.817084 3.1680656,19.267912 2.1868612,18.296992 1.7273881,17.842336 1.421941,17.420006 1.1193679,16.821012 0.69620824,15.983296 0.49912584,15.082442 0.53260772,14.13896 0.56206739,13.308819 0.73440381,12.616966 1.0973947,11.871595 1.5490501,10.944159 2.2736053,10.138399 3.1589925,9.5789431 3.6390441,9.2756092 4.3342725,8.9895444 4.9027237,8.8614521 5.513217,8.7238863 4.9582807,8.7315175 14.351443,8.7315175 h 8.609646 l -4.38e-4,1.2081712 c -8.46e-4,2.3300343 -0.04762,4.3460853 -0.129334,5.5739303 -0.26007,3.908088 -1.131634,5.667784 -3.236273,6.534066 -1.155848,0.475755 -2.850703,0.701537 -5.155355,0.686778 -0.391635,-0.0025 -0.796109,-0.0074 -0.898833,-0.01079 z M 6.4147847,17.077821 C 6.2768136,15.895481 6.216667,14.952816 6.1749581,13.319066 6.1625012,12.831128 6.1521836,12.224416 6.1520302,11.970817 l -2.792e-4,-0.461089 -0.075875,1.4e-4 c -0.041732,7e-5 -0.1756809,0.01529 -0.2976654,0.03382 -1.7417243,0.264518 -2.8149555,1.869455 -2.3676973,3.540713 0.1982659,0.740856 0.7505024,1.411238 1.4494076,1.759493 0.4245152,0.211531 0.7711293,0.290778 1.245138,0.284677 0.3002551,-0.0039 0.3149171,-0.0063 0.3097258,-0.05075 z"
     style="fill:#ff6600;stroke:#2b0000;stroke-width:0.0233463;fill-opacity:1" />
  <path
     transform="scale(0.66666667)"
     id="path844"
     d="m 14.580816,7.844358 c -2.4e-4,-0.00642 0.0203,-0.1114786 0.04564,-0.2334631 0.06744,-0.3245941 0.06723,-1.1026207 -3.71e-4,-1.3678608 C 14.53579,5.888725 14.344905,5.5674392 13.861321,4.9558254 13.426353,4.4056991 13.292115,4.172397 13.199514,3.8056258 13.142476,3.5797102 13.148121,3.2966762 13.21465,3.0466926 13.302623,2.7161348 13.618167,2.1881415 14.046603,1.654606 14.29912,1.3401429 14.678492,0.90806405 14.691051,0.92062302 c 0.0047,0.004735 -0.01858,0.14059728 -0.05182,0.30191698 -0.168208,0.8164806 -0.127207,1.4101878 0.138596,2.0069149 0.117728,0.2643017 0.260568,0.497771 0.570634,0.9326914 0.29242,0.41017 0.388443,0.5766371 0.456757,0.7918441 0.07587,0.2390266 0.09318,0.4341585 0.06037,0.6806978 -0.06973,0.523953 -0.371659,1.1311168 -0.860837,1.7310706 -0.203994,0.2501883 -0.423227,0.4976876 -0.423941,0.4785992 z"
     style="fill:#ff0400;fill-opacity:1;stroke:#2b0000;stroke-width:0.0233463" />
  <path
     transform="scale(0.66666667)"
     id="path846"
     d="M 18.791059,7.8157506 C 18.855087,7.6091157 18.898816,7.247845 18.898656,6.9268305 18.898258,6.1248866 18.783699,5.8508419 18.081207,4.9713448 17.723637,4.5236797 17.606732,4.3445125 17.488034,4.0622568 17.398251,3.8487623 17.394431,3.829115 17.385893,3.5369591 c -0.01071,-0.3663357 0.01826,-0.500858 0.182159,-0.8458412 0.178749,-0.3762485 0.447835,-0.75757 0.959976,-1.3603786 0.257522,-0.3031133 0.370868,-0.42035177 0.370715,-0.38344702 -4.9e-5,0.0118686 -0.02671,0.15290232 -0.05924,0.31340812 -0.07318,0.3610851 -0.101023,0.9570838 -0.05928,1.2692103 0.06926,0.5179585 0.270677,0.926824 0.864634,1.7552027 0.114918,0.1602733 0.246351,0.3674283 0.292073,0.4603447 0.344128,0.6993379 0.101593,1.5940028 -0.704009,2.5969544 -0.220516,0.2745359 -0.459631,0.5306843 -0.441862,0.4733381 z"
     style="fill:#ff0400;fill-opacity:1;stroke:#2b0000;stroke-width:0.0233463" />
</svg>
