<?xml version="1.0" encoding="UTF-8" standalone="no"?>
<svg
   xmlns:dc="http://purl.org/dc/elements/1.1/"
   xmlns:cc="http://creativecommons.org/ns#"
   xmlns:rdf="http://www.w3.org/1999/02/22-rdf-syntax-ns#"
   xmlns:svg="http://www.w3.org/2000/svg"
   xmlns="http://www.w3.org/2000/svg"
   xmlns:sodipodi="http://sodipodi.sourceforge.net/DTD/sodipodi-0.dtd"
   xmlns:inkscape="http://www.inkscape.org/namespaces/inkscape"
   viewBox="0 0 24 24"
   version="1.1"
   id="svg10"
   sodipodi:docname="cloud-download.svg"
   inkscape:version="1.0 (4035a4fb49, 2020-05-01)">
  <metadata
     id="metadata16">
    <rdf:RDF>
      <cc:Work
         rdf:about="">
        <dc:format>image/svg+xml</dc:format>
        <dc:type
           rdf:resource="http://purl.org/dc/dcmitype/StillImage" />
        <dc:title></dc:title>
      </cc:Work>
    </rdf:RDF>
  </metadata>
  <defs id="defs3051">
    <style type="text/css" id="current-color-scheme">
      .ColorScheme-Text {
        color:#eff0f1;
      }
      </style>
  </defs>
  <sodipodi:namedview
     inkscape:document-rotation="0"
     pagecolor="#ffffff"
     bordercolor="#666666"
     borderopacity="1"
     objecttolerance="10"
     gridtolerance="10"
     guidetolerance="10"
     inkscape:pageopacity="0"
     inkscape:pageshadow="2"
     inkscape:window-width="1442"
     inkscape:window-height="1184"
     id="namedview12"
     showgrid="false"
     inkscape:zoom="42.833333"
     inkscape:cx="8.0428016"
     inkscape:cy="12"
     inkscape:window-x="2397"
     inkscape:window-y="33"
     inkscape:window-maximized="0"
     inkscape:current-layer="svg10" />
  <path
     style="fill:currentColor;fill-opacity:1;stroke:none"
     d="m9.09 8.594c-2.957 0-5.342 2.385-5.342 5.343 0 .122-.007.254 0 .376-1.042.501-1.751 1.522-1.751 2.686 0 1.672 1.446 3 3.251 3h13.498c1.805 0 3.251-1.329 3.251-3 0-1.239-.788-2.317-1.937-2.779.029-.19.029-.369.029-.562 0-2.124-1.722-3.846-3.842-3.846-1.067 0-2.023.426-2.718 1.124-.967-1.418-2.596-2.342-4.44-2.342m-2.216 1.626c.576 0 1.06.448 1.06.999 0 .551-.483.999-1.06.999-.58 0-1.031-.448-1.031-.999 0-.551.451-.999 1.031-.999zm5.091.781l3.03 4.405h-1.844v3.595h-2.438v-3.595h-1.719z"
     
     id="path2" />
  <path
     style="fill:currentColor;fill-opacity:1;stroke:none"
     d="m18.387 9.733l-.401-.38-.541.115.236-.498-.279-.48.551.072.369-.412.1.544.505.222-.483.265z"
     class="ColorScheme-Text"
     id="path4" />
  <path
     style="fill:currentColor;fill-opacity:1;stroke:none"
     d="m18.831 8.723l.021-.258-.201-.165.251-.061.093-.24.136.222.258.014-.168.197.064.251-.236-.1z"
     class="ColorScheme-Text"
     id="path6" />
  <path
     style="fill:currentColor;fill-opacity:1;stroke:none"
     d="m19.07 10.224l-.05-.39-.351-.183.362-.168.064-.39.269.29.39-.061-.19.347.175.355-.387-.075z"
     class="ColorScheme-Text"
     id="path8" />
  <path
     style="fill:currentColor;fill-opacity:1;stroke-width:0.0233463"
     d="m 6.6211163,12.172922 c -0.2482709,-0.06007 -0.507686,-0.253588 -0.6386718,-0.476424 -0.1640664,-0.279113 -0.1598129,-0.683278 0.010251,-0.97403 0.077656,-0.132765 0.2835749,-0.31709 0.4334294,-0.387977 0.5186772,-0.245354 1.1449394,-0.02473 1.3998966,0.493158 0.071238,0.144705 0.076703,0.172473 0.076703,0.389759 0,0.215195 -0.00604,0.246712 -0.07536,0.39306 -0.1322918,0.279307 -0.3976331,0.490327
    -0.7087642,0.563665 -0.1823131,0.04297 -0.3162266,0.04265 -0.4974837,-0.0012 z"
     class="ColorScheme-Text"
     id="path18" />
  <path
     style="fill:currentColor;fill-opacity:1;stroke:none"
     id="path20"
     d="m 6.8184442,12.360412 c 0.2222363,-0.03618 0.4478789,-0.05889 0.6636015,-0.125851 0.178763,-0.09271 0.4307863,-0.157005 0.4323648,-0.38133 0.00185,-0.02538 -0.01144,-0.05242 -0.00483,-0.07774 0.00931,-0.03563 0.04094,-0.08738 0.056573,-0.121896 0.049619,-0.09016 0.084376,-0.185776 0.1021685,-0.287001 -0.00732,-0.01198 -0.00883,-0.03097 -0.021958,-0.03595 -0.061944,-0.02349 -0.1343106,0.02714 -0.1799417,0.05286 -0.2324349,0.131022 -0.4533804,0.260542 -0.6719604,0.409664 -0.1113239,0.08464 -0.2258482,0.167392 -0.3188947,0.272909 -0.034413,0.03902 -0.046983,0.06118 -0.074793,0.103526 -0.027634,0.05181 -0.070724,0.122794 -0.00692,0.169423 0.046744,0.03416 0.08072,0.02554 0.1373528,0.02793 0.1916392,-0.02449 0.3706252,-0.10031 0.5402163,-0.189565 0.1036115,-0.05691 0.1474857,-0.07766 0.2534538,-0.213536 0.022085,-0.02832 -0.066355,0.02749 -0.099443,0.04144 -0.1248679,0.05267 -0.2497466,0.105288 -0.3747062,0.157741 -0.026905,0.01148 -0.057801,0.01626 -0.080714,0.03444 -0.072561,0.05759 -0.1578281,0.109175 -0.2025027,0.190325 -0.022463,0.0408 0.085897,-0.03609 0.1282571,-0.05546 0.019604,-0.009 0.2876637,-0.137892 0.310094,-0.147634 0.031796,-0.01381 0.064998,-0.02413 0.097497,-0.03619 0.031119,-0.0095 -0.084106,0.02577 -0.076905,0.01723 0.037581,-0.0446 0.1951709,-0.06581 0.145758,-0.09679 -0.054427,-0.03413 -0.1171572,0.05278 -0.1764269,0.07756 -0.1725621,0.07214 -0.1469925,0.06012 -0.3133886,0.111014 -0.03462,0.0042 -0.068987,0.01284 -0.1038599,0.01259 -0.0074,-5.2e-5 -0.081128,-0.0021 -0.065709,-0.04104 0.023211,-0.05857 0.3853448,-0.253822 -0.092308,0.03029 0.148582,-0.07414 0.3032049,-0.143516 0.4684738,-0.168795 0.044237,-0.002 0.089691,-0.0058 0.1338916,-3e-5 0.00292,3.79e-4 0.01061,0.0025 0.00798,0.0038 -0.1085002,0.05457 0.072279,-0.06999 -0.088068,0.04937 -0.073559,0.0558 -0.1541231,0.101048 -0.23385,0.147158 -0.023449,0.01356 -0.093777,0.05428 -0.070349,0.04068 0.348652,-0.202386 0.3399586,-0.218959 0.043361,0.03803 0.1561853,-0.104644 0.3433753,-0.176073 0.4887794,-0.300735 0.051054,-0.04377 0.09647,-0.09274 0.1400405,-0.143734 -0.00408,-0.02663 0.052549,-0.04514 0.048197,-0.07435 -0.013342,-0.08956 -0.2029188,-0.02279 -0.2361689,-0.01389 -0.048934,0.01309 -0.097195,0.02857 -0.1457921,0.04286 -0.1508439,0.04843 -0.3004973,0.100476 -0.4501281,0.152501 -0.00799,0.0028 -0.1585235,0.05414 -0.1821769,0.06703 -0.1105427,0.06023 -0.2179175,0.126106 -0.3268763,0.18916 0.0091,0.0135 0.013923,0.03123 0.027301,0.04051 0.025007,0.01736 0.088296,0.01226 0.1122607,0.0097 0.099541,-0.01066 0.1960595,-0.03841 0.2919933,-0.06542 0.1161268,-0.03876 0.228761,-0.08908 0.3348987,-0.150212 0.2144742,-0.12352 0.350755,-0.189546 0.5181662,-0.332644 0.081023,-0.07311 0.1220082,-0.144776 0.1630674,-0.242771 0.031469,-0.0564 0.038366,-0.121931 0.06235,-0.1807 0.019326,-0.06258 0.043089,-0.122495 0.090489,-0.168867 -0.093564,0.06525 -0.1989593,0.116171 -0.2806919,0.195739 -0.014782,0.01439 0.013997,0.03887 0.019186,0.05884 0.017954,0.06908 0.01825,0.141079 0.036617,0.209617 0.093728,0.110972 0.031173,0.04786 0.3240913,-0.199444 0.012871,-0.01087 0.00341,-0.03352 0.00475,-0.05031 0.00363,-0.04573 0.00525,-0.09098 0.00436,-0.136822 -0.0163,-0.09451 -0.066532,-0.178205 -0.1104714,-0.26209 -0.032452,-0.06472 -0.061119,-0.131281 -0.089903,-0.197681 -0.047064,-0.100954 -0.096755,-0.200777 -0.1464562,-0.30048 -0.033542,-0.04606 -0.0502,-0.143518 -0.092093,-0.181705 -0.011228,-0.01023 -0.024828,-0.01751 -0.037243,-0.02627 -0.1769654,-0.0645 -0.3582589,-0.117478 -0.5415089,-0.160935 -0.091997,-0.0187 -0.1852236,-0.03456 -0.2790719,-0.02496 -0.1091332,0.01757 -0.2093785,0.06336 -0.3068334,0.11349 -0.1729098,0.104768 -0.3938804,0.162879 -0.5091546,0.335711 -0.037704,0.05276 -0.060905,0.11461 -0.076838,0.177104 -0.026452,0.07838 -0.035695,0.161114 -0.046759,0.242714 -0.00633,0.07569 -0.015761,0.150105 -0.030556,0.224511 -0.012627,0.04091 -0.011889,0.127478 -0.036706,0.160865 0.1027597,-0.06593 0.2155795,-0.118343 0.3082792,-0.197802 0.015576,-0.01335 -0.00426,-0.04081 -0.00606,-0.06125 -0.00883,-0.100302 -0.013361,-0.200846 -0.017293,-0.301435 -0.00986,-0.273606 0.054461,-0.211356 -0.3184816,0.02611 -0.012938,0.121007 -0.017051,0.24267 -0.021004,0.364225 -0.00687,0.0843 0.00187,0.164285 0.037768,0.240832 0.046553,0.0802 0.1012706,0.15504 0.1560448,0.22971 0.064401,0.08905 0.1354021,0.172941 0.2022508,0.260096 0.049708,0.06808 0.1108017,0.126141 0.1709264,0.184713 0.058635,0.06231 0.1212581,0.11972 0.1878603,0.173338 0.03081,0.02432 0.06503,0.04368 0.099576,0.06208 0.00667,0.0036 0.01415,0.01486 0.020182,0.01031 0.087374,-0.06586 0.1662322,-0.142319 0.2493483,-0.213478 C 6.7369921,12.086727 6.5807546,12.022285 6.4304477,11.944457 6.3196939,11.890764 6.2450865,11.818006 6.1693773,11.724038 6.0820735,11.617055 6.0070145,11.501709 5.9526424,11.374739 c -0.00875,-0.03667 -0.024348,-0.07705 -0.01702,-0.115706 0.00103,-0.0054 0.012512,-0.01765 0.00806,-0.01441 -0.090384,0.06573 -0.1970531,0.115595 -0.2670265,0.202733 -0.017306,0.02155 0.035376,0.04248 0.053064,0.06371 0.2033058,0.244414 0.4439371,0.457276 0.6946308,0.651972 0.1746063,0.136183 0.3873642,0.185537 0.6011597,0.220473 0.1423225,0.02426 0.2818142,0.002 0.4201881,-0.03087 0.089254,-0.01926 0.1776316,-0.04404 0.2604704,-0.08276 0.07345,-0.102219 0.2615013,-0.115267 0.3565022,-0.216864 0.00726,-0.0078 0.017572,-0.01461 0.019784,-0.025 0.013635,-0.06405 -0.08023,-0.08738 -0.1172319,-0.101669 -0.2279084,-0.03495 -0.4605809,-0.01669 -0.6880885,0.01318 -0.171953,0.02679 -0.2471168,0.09846 -0.424651,0.215973 -0.00798,0.0053 -0.00925,0.01773 -0.00893,0.0273 0.00107,0.03195 0.01833,0.04389 0.037445,0.0662 0.013915,0.0081 0.026757,0.01843 0.041746,0.02432 0.1182312,0.04647 0.2740866,0.0068 0.3934595,-0.01661 0.2326168,-0.06333 0.4701595,-0.100978 0.7092822,-0.128915 0.1011819,-0.0091 0.1730785,-0.01658 0.2736654,-0.02212 0.014905,-8.2e-4 0.1374558,-0.01187 0.1692902,0.0058 0.00611,0.0034 -0.00415,0.01413 -0.00938,0.01875 -0.022142,0.01957 -0.047571,0.03508 -0.071357,0.05261 -0.073729,0.04933 -0.2131721,0.146443 -0.2900447,0.179967 -0.040303,0.01758 0.1534215,-0.08166 0.1105269,-0.072 -0.060925,0.01372 -0.1113203,0.05664 -0.167097,0.08474 -0.1518597,0.07648 -0.1022929,0.0525 -0.2286245,0.11073 -0.010597,0.0036 -0.036468,6.35e-4 -0.031792,0.0108 0.025661,0.0558 0.1130582,-0.03021 0.1148465,-0.03144 0.1099194,-0.07524 0.2183743,-0.152536 0.3263441,-0.230534 0.1084306,-0.08099 0.058167,-0.04228 0.1511924,-0.115613 0,0 -0.3202022,0.128156 -0.3202022,0.128156 v 0 c -0.091486,0.07149 -0.042006,0.03362 -0.1488001,0.113152 -0.129907,0.09347 -0.084794,0.06174 -0.2219408,0.157281 -0.03561,0.02481 -0.071812,0.04878 -0.1069545,0.07424 -0.024379,0.01767 -0.056081,0.02929 -0.071557,0.05512 -0.010598,0.01769 -0.010967,0.04539 0.00147,0.06183 0.00793,0.01048 0.025552,-0.0062 0.038328,-0.0092 0.2985586,-0.136717 0.583946,-0.296486 0.8695945,-0.45863 0.055289,-0.03138 0.1104405,-0.06315 0.1637327,-0.09782 0.044311,-0.02882 0.085879,-0.06166 0.1288189,-0.09249 0.020684,-0.0271 0.051154,-0.04899 0.062051,-0.0813 0.021905,-0.06493 -0.047765,-0.06866 -0.083095,-0.07072 -0.036745,-0.0021 -0.073601,0.0019 -0.1103558,0.0039 -0.0893,0.0048 -0.1864173,0.01387 -0.2752597,0.02147 -0.2385315,0.02627 -0.4767608,0.05893 -0.708208,0.124342 -0.1115842,0.02357 -0.2647107,0.06384 -0.3775662,0.03384 -0.012148,-0.0032 -0.023164,-0.0098 -0.034745,-0.01465 -0.0079,-0.007 -0.023821,-0.01363 -0.016713,-0.02786 0.00298,-0.006 0.019607,-0.01774 0.013698,-0.01462 -0.09204,0.0485 -0.1820028,0.100851 -0.2730042,0.151277 0.013395,-0.0059 0.026197,-0.01342 0.040185,-0.01775 0.019008,-0.0059 0.038879,-0.0085 0.058318,-0.01274 0.2240009,-0.03389 0.4524685,-0.05309 0.6783271,-0.0261 0.00625,0.0018 0.075283,0.01672 0.086629,0.03166 0.00631,0.0083 -0.0466,0.0475 -0.053313,0.0514 0.088231,-0.05027 0.1764624,-0.100532 0.2646936,-0.150799 -0.078905,0.04534 -0.1676208,0.07001 -0.2560079,0.09004 -0.1364849,0.03287 -0.2728595,0.06545 -0.4145541,0.04337 -0.2099749,-0.03085 -0.4194952,-0.07531 -0.593102,-0.205334 -0.2517249,-0.1887 -0.4929218,-0.398463 -0.6880087,-0.646361 -0.017834,-0.0228 -0.024884,-0.07274 -0.053503,-0.0684 -0.3323156,0.05044 -0.3856922,0.06705 -0.3214925,0.278991 0.057393,0.128773 0.13388,0.246484 0.2216372,0.356785 0.077398,0.0993 0.1546345,0.175709 0.2699736,0.232045 0.1496332,0.07784 0.3046181,0.143769 0.4597666,0.20977 C 7.0322195,12.124477 7.002731,12.236369 6.8177097,12.109379 6.7510934,12.057521 6.6890412,12.001163 6.6315411,11.939244 6.5727033,11.881604 6.5119762,11.825532 6.4632128,11.758607 6.3958815,11.672162 6.324096,11.589253 6.2600778,11.500226 6.2072877,11.426917 6.1550169,11.353241 6.1092295,11.275267 6.0763452,11.203758 6.0726567,11.12763 6.077435,11.049592 c 0.00364,-0.121243 0.00916,-0.242486 0.02316,-0.363049 -0.3266789,0.126681 -0.3102009,0.01252 -0.3042584,0.176468 0.00248,0.06844 0.00124,0.03629 0.00436,0.110691 0.00362,0.07624 0.00727,0.152484 0.012246,0.228651 0.00162,0.02484 0.00343,0.04967 0.00534,0.07449 0.00159,0.02067 -0.015338,0.06499 0.00518,0.06199 0.1105765,-0.01618 0.2113344,-0.07276 0.3170016,-0.109141 0.011809,-0.0553 0.022944,-0.110669 0.032265,-0.166447 0.014747,-0.07478 0.020385,-0.150243 0.028885,-0.225926 0.011429,-0.08064 0.023794,-0.16141 0.049938,-0.23885 0.0188,-0.05918 0.04266,-0.116774 0.082196,-0.165437 0.01868,-0.02175 0.021265,-0.02639 0.04419,-0.04576 0.010052,-0.0085 0.042844,-0.03036 0.031258,-0.02412 -0.496426,0.267378 -0.2621435,0.151897 -0.1557266,0.08872 0.094518,-0.05228 0.1920675,-0.09878 0.2981869,-0.121966 0.091217,-0.01742 0.1824966,-0.0029 0.2732006,0.01348 0.1808387,0.03938 0.3584597,0.09163 0.5333392,0.152179 0.010019,0.0055 0.021017,0.0094 0.030057,0.01635 0.035368,0.02721 0.062416,0.138025 0.090923,0.174747 0.049999,0.09892 0.098493,0.19876 0.1435061,0.300056 0.029574,0.0669 0.059114,0.1339 0.092438,0.19904 0.041386,0.07893 0.089669,0.158477 0.1020604,0.248066 1.934e-4,0.04441 -0.0012,0.08853 -0.00575,0.132759 -0.00166,0.0161 -0.021766,0.05251 -0.00617,0.04817 0.2981641,-0.08314 0.2914216,-0.236778 0.294338,-0.118933 -0.019234,-0.06859 -0.020732,-0.141035 -0.039836,-0.210061 -0.00647,-0.02336 5.103e-4,-0.07199 -0.023522,-0.06881 -0.1184517,0.01565 -0.2259419,0.0778 -0.3389129,0.116705 -0.04036,0.05426 -0.064194,0.116812 -0.085048,0.180764 -0.018502,0.06037 -0.034391,0.121603 -0.062817,0.178467 -0.038393,0.08796 -0.092852,0.164403 -0.1669609,0.226644 -0.020353,0.01652 -0.040111,0.0338 -0.061059,0.04957 -0.024795,0.01865 -0.1041811,0.0668 -0.07609,0.05362 0.071082,-0.03334 0.1374634,-0.07591 0.2058464,-0.114491 0.033952,-0.01915 -0.067887,0.03838 -0.1025488,0.05621 -0.1134605,0.05839 -0.110027,0.05359 -0.2276755,0.09952 -0.093767,0.02806 -0.1877871,0.05475 -0.2848093,0.06948 -0.019841,0.003 -0.040013,0.0032 -0.059951,0.0055 -0.011687,0.0013 -0.025121,-0.0012 -0.034885,0.0053 -0.0049,0.0033 4.154e-4,0.01179 6.23e-4,0.01769 -0.089429,0.05028 -0.180849,0.09718 -0.2682875,0.150845 -0.02279,0.01399 0.048846,-0.02184 0.073793,-0.03147 0.036541,-0.0141 0.073659,-0.02667 0.1105932,-0.03971 0.1493255,-0.05272 0.2989874,-0.104576 0.4494588,-0.15394 0.2377903,-0.07112 0.050274,-0.01668 0.259028,-0.07354 0.022099,-0.006 0.044165,-0.01218 0.066079,-0.01884 0.00293,-8.9e-4 0.00957,-0.0066 0.00836,-0.0038 -0.00703,0.01632 -0.040778,0.05719 -0.049399,0.0682 -0.044342,0.04879 -0.089843,0.09568 -0.141502,0.136971 -0.092044,0.07356 -0.3588042,0.222307 0.1018221,-0.04437 -0.1067007,0.08157 -0.3408949,0.11201 -0.320102,0.244696 0.019576,0.124918 0.2192693,-0.125987 0.3288065,-0.18915 0.078255,-0.04512 0.1572727,-0.08989 0.2316994,-0.141212 0.024235,-0.01671 0.04737,-0.03496 0.071054,-0.05245 0.017264,-0.01618 0.039428,-0.02836 0.051792,-0.04853 0.0159,-0.02594 0.024333,-0.06369 -0.00966,-0.07775 -0.023892,-0.0099 -0.1113374,-7.03e-4 -0.1383429,-0.0047 -0.169535,0.01595 -0.3267979,0.09035 -0.4798372,0.160351 -0.1293113,0.07529 -0.2614955,0.145851 -0.3879341,0.225873 -0.026226,0.0166 -0.050845,0.03753 -0.06854,0.06302 -0.049788,0.07174 -0.010013,0.135814 0.072103,0.142162 0.036711,0.0028 0.073386,-0.0061 0.1100785,-0.0092 0.1762867,-0.05146 0.1353156,-0.03483 0.3178913,-0.109434 0.05906,-0.02413 0.1192863,-0.04598 0.1760267,-0.07515 0.1489118,-0.07656 0.2995516,-0.151071 0.4403319,-0.241715 0.026322,-0.01695 0.046282,-0.04641 0.054204,-0.0767 0.00315,-0.01204 -0.018363,-0.01682 -0.027545,-0.02522 -0.034244,0.01204 -0.069322,0.02193 -0.1027307,0.03613 -0.030855,0.01311 -0.2787206,0.133355 -0.3079183,0.147043 -0.040682,0.01907 -0.084696,0.03179 -0.1227563,0.05567 -0.1168638,0.07332 -0.2313473,0.150876 -0.3406498,0.23505 -0.023748,0.01829 0.054896,-0.02408 0.082345,-0.03613 0.1243599,-0.05276 0.2488008,-0.105455 0.3735529,-0.157273 0.032243,-0.01339 0.068004,-0.01994 0.097135,-0.03918 0.111808,-0.07386 0.2166516,-0.157778 0.3234835,-0.238666 0.010853,-0.0082 -0.023551,0.01366 -0.035326,0.02049 -0.1668255,0.09178 -0.3418763,0.170484 -0.5308606,0.203424 -0.023338,0.0016 -0.1196546,0.0219 -0.1356798,-0.0213 -0.013738,-0.03703 0.032535,-0.08152 0.043755,-0.111388 0.1047498,-0.147353 0.2472504,-0.258235 0.3936027,-0.36242 0.039213,-0.0264 0.077982,-0.05348 0.11764,-0.07922 0.043792,-0.02842 0.1828509,-0.09762 0.1326753,-0.08321 -0.059895,0.0172 -0.1085138,0.0613 -0.1628181,0.09186 -0.033263,0.01872 0.067277,-0.03618 0.099693,-0.05633 0.016532,-0.01028 0.028899,-0.02739 0.046901,-0.0348 0.00468,-0.0019 0.00675,0.0076 0.010126,0.01133 -0.020405,0.09856 -0.05905,0.190224 -0.1054064,0.279376 -0.019969,0.04364 -0.045117,0.08783 -0.051465,0.136211 -0.00331,0.02523 0.00661,0.05069 0.00394,0.07597 -0.00315,0.03127 -0.00949,0.0574 -0.027072,0.08445 -0.00771,0.01186 -0.03908,0.03927 -0.026209,0.03339 0.1550443,-0.07081 0.3647477,-0.208501 0.2046919,-0.10491 -0.2119238,0.07567 -0.4374197,0.09575 -0.6584561,0.131173 0,0 -0.2776741,0.206416 -0.2776741,0.206416 z" 
     class="ColorScheme-Text"
    />
  <path
     style="fill:currentColor;fill-opacity:1;stroke:none"
     id="path845"
     d="m 17.769582,8.2164554 c 0.03831,0.0037 0.07691,0.0051 0.114915,0.011109 0.237532,0.037578 0.467948,0.1113979 0.696211,0.1848272 0.237936,0.076541 0.259857,0.086235 0.485549,0.1667496 0.218602,0.077513 0.42706,0.1804979 0.620147,0.3090308 0.09017,0.060023 0.122757,0.088606 0.20554,0.1544215 0.108653,0.08951 0.206594,0.1886214 0.280896,0.3084186 0.02297,0.034148 0.04294,0.070003 0.05993,0.1074351 0,0 0.303111,-0.1713 0.303111,-0.1713 v 0 c -0.01802,-0.038623 -0.03852,-0.075892 -0.0632,-0.1107518 -0.078,-0.1225579 -0.17878,-0.2242689 -0.29168,-0.3155598 C 20.097849,8.7951978 20.061906,8.7642185 19.971605,8.7043153 19.775679,8.5743444 19.564883,8.4685228 19.342186,8.3926287 19.096139,8.3067573 19.113388,8.3114503 18.853569,8.2266513 18.626717,8.1526119 18.398353,8.0749378 18.163461,8.029682 c -0.03707,-0.00714 -0.07486,-0.00985 -0.112288,-0.01478 0,0 -0.281591,0.201553 -0.281591,0.2015534 z" 
     class="ColorScheme-Text"
    />
  <path
     style="fill:currentColor;fill-opacity:1;stroke:none"
     id="path847"
     d="m 18.814884,8.215203 c 0.385407,0.2177475 0.766801,0.4433562 1.132107,0.6936101 0.07766,0.075843 0.209433,0.2404548 0.270379,-0.1383226 0.0096,-0.05994 -0.119081,-0.024007 -0.177886,-0.0391 -0.130283,-0.03344 -0.310347,-0.088641 -0.435852,-0.1373156 -0.06471,-0.025097 -0.127187,-0.055621 -0.190781,-0.083432 -0.05379,-0.031382 -0.110068,-0.058847 -0.161375,-0.094145 -0.139533,-0.095996 -0.27733,-0.2415504 -0.359389,-0.391121 -0.0095,-0.017278 -0.01538,-0.036291 -0.02307,-0.054436 0.0029,-0.00559 0.0059,-0.011186 0.0088,-0.016779 -0.08667,0.061382 -0.194354,0.1006641 -0.260005,0.1841455 -0.01947,0.024755 0.05901,0.022111 0.08785,0.034766 0.115268,0.05058 0.227558,0.1087302 0.339354,0.166439 0.119966,0.061656 0.22987,0.142389 0.314261,0.2485956 0.04931,0.062062 0.06107,0.089654 0.09893,0.1578369 0.01881,0.050995 0.06795,0.1312243 0.07053,0.1874523 4.8e-4,0.010425 -0.0016,0.023242 -0.0097,0.029753 -0.0097,0.00772 -0.0462,0.014746 -0.03645,0.00712 0.07701,-0.060201 0.160677,-0.1113594 0.241016,-0.1670391 -0.0298,-0.00943 -0.06121,-0.01478 -0.08939,-0.028292 C 19.390483,8.6580709 19.224033,8.37931 19.081438,8.1618115 18.993868,8.0330179 18.92372,7.8937085 18.843745,7.7604057 c -0.01439,-0.023984 -0.02937,-0.047664 -0.04576,-0.070331 -0.0057,-0.00786 -0.01212,-0.026277 -0.02022,-0.020942 -0.101436,0.066771 -0.191758,0.1490612 -0.287638,0.2235918 0.210782,0.3460743 0.413375,0.697248 0.598146,1.057944 -0.0088,0.042422 0.05454,0.075545 0.05342,0.1190162 -1.87e-4,0.00728 -0.02172,-0.010444 -0.01597,-0.014911 0.08763,-0.068053 0.205763,-0.1004472 0.275555,-0.186694 0.02029,-0.025074 -0.04976,-0.041097 -0.07552,-0.060498 -0.04354,-0.032779 -0.08823,-0.064001 -0.132341,-0.096002 -0.206156,-0.144002 -0.416688,-0.2815777 -0.625812,-0.4211972 -0.114907,-0.076716 -0.06321,-0.03767 -0.141043,-0.099801 -0.0904,0.066001 -0.213435,0.102127 -0.271189,0.1980028 -0.0224,0.037191 0.07686,0.040459 0.114366,0.062339 0.0613,0.035766 0.121666,0.073118 0.181958,0.1105568 0.18906,0.1173972 0.373006,0.2408997 0.555083,0.3687482 0.114851,0.081913 0.224198,0.1712225 0.328341,0.2663137 0.01441,0.013159 0.09319,0.086169 0.110232,0.1092121 0.0059,0.00792 0.0071,0.018387 0.0106,0.02758 0.08802,-0.060842 0.185275,-0.1101145 0.264048,-0.1825254 0.01639,-0.015067 -0.04466,0.00367 -0.06678,0.00119 -0.04146,-0.00465 -0.08235,-0.013659 -0.123129,-0.022471 C 19.383211,9.0977907 19.240819,9.0536307 19.098528,9.0059754 18.864138,8.9196004 18.67205,8.7628816 18.490221,8.5966554 18.401981,8.5163194 18.306622,8.443442 18.22786,8.3534485 18.21704,8.3384025 18.14018,8.2431056 18.14152,8.2275345 c 7.6e-4,-0.00877 0.03227,-0.011649 0.02578,-0.00571 -0.066,0.060423 -0.190862,0.083242 -0.206662,0.1713149 -0.0102,0.05686 0.114452,0.015793 0.171678,0.023689 0.356681,0.070974 0.709684,0.1672432 1.043943,0.3116561 0.09253,0.043162 0.145311,0.08026 0.182072,0.1777748 0.0061,0.016101 0.013,0.032531 0.01391,0.049715 6.65e-4,0.012655 -0.0062,0.024565 -0.0094,0.036848 -0.13659,0.092079 0.151012,-0.082586 0.220474,-0.1329981 0.01535,-0.011139 -0.0366,0.011248 -0.05553,0.01237 -0.107758,0.00638 -0.21198,-0.031318 -0.312463,-0.063268 -0.31024,-0.1318065 -0.564165,-0.356932 -0.8069,-0.5851208 -0.100106,-0.091644 -0.186058,-0.1977504 -0.29179,-0.2832319 -0.123316,-0.082417 -0.0691,-0.057554 -0.325682,0.198128 -0.01626,0.016205 0.0107,0.044717 0.01806,0.066464 0.03073,0.090845 0.07643,0.1772165 0.116466,0.2641165 0.06275,0.1381033 0.126852,0.275567 0.197159,0.4099835 0.04063,0.097728 0.134527,0.1511559 0.218989,0.2071791 0.09666,0.064051 0.200111,0.1155904 0.309815,0.1528835 0.151638,0.00844 0.130198,0.014687 0.34922,-0.2056792 0.01907,-0.019188 -0.01729,-0.051714 -0.03115,-0.074944 C 18.912983,8.864006 18.822588,8.7789115 18.746005,8.7005619 18.575181,8.530887 18.348052,8.4399752 18.129617,8.3485065 c -0.07909,-0.031437 -0.158547,-0.062441 -0.240185,-0.086761 -0.01375,-0.0041 -0.07035,-0.020192 -0.07568,-0.015982 -0.09113,0.071985 -0.172955,0.1550332 -0.259432,0.2325499 0.02615,0.02082 0.05005,0.044819 0.07844,0.06246 0.05431,0.03375 0.305687,0.1606181 0.353473,0.1845816 0.156895,0.078679 0.314513,0.1557543 0.470883,0.2354907 0.126138,0.06057 0.242551,0.1380927 0.318258,0.2576498 -0.119104,0.04391 0.139356,-0.050074 0.244397,-0.1760356 0.0187,-0.022419 -0.05567,-0.017839 -0.08256,-0.029202 -0.03899,-0.016478 -0.07686,-0.03551 -0.114833,-0.054219 -0.117839,-0.058063 -0.166836,-0.085974 -0.284369,-0.1493935 -0.240506,-0.1444905 -0.48613,-0.2799364 -0.729617,-0.419225 -0.130864,-0.071881 -0.275096,-0.11841 -0.401975,-0.1975908 -0.0782,-0.059021 2.59e-4,-0.090511 -0.277709,0.1783235 -0.01282,0.012395 0.03323,0.012999 0.04942,0.020455 0.06207,0.028577 0.125554,0.063026 0.185685,0.094498 0.259488,0.1423049 0.523039,0.2765963 0.779815,0.4238223 0.129705,0.072147 0.256743,0.1495489 0.376386,0.2375016 0.111741,0.08259 0.217652,0.1725881 0.327613,0.2574811 0.03113,0.025645 0.06368,0.049475 0.09536,0.074425 0.101197,0.079705 0.12174,0.1571591 0.24789,-0.2212759 0.01439,-0.043171 -0.07321,-0.05407 -0.109818,-0.081105 C 18.809233,8.9969994 18.529793,8.8281361 18.240556,8.6776534 18.089339,8.6056534 17.94513,8.521349 17.8017,8.4353218 c -0.05143,-0.032537 -0.10408,-0.063086 -0.155349,-0.095885 -0.0088,-0.00564 -0.01756,-0.011364 -0.0262,-0.01726 -0.0023,-0.00156 -0.0044,-0.00678 -0.0065,-0.00509 -0.08987,0.069627 -0.176415,0.1434491 -0.264622,0.2151736 0.148349,0.1586202 0.279634,0.3322665 0.418017,0.499484 0.116235,0.1430238 0.235361,0.283474 0.358875,0.4202159 0.07277,0.085134 0.175459,0.1316091 0.273568,0.1808826 0.03877,0.017047 0.07884,0.039778 0.122829,0.041467 0.01647,6.326e-4 0.03477,2.368e-4 0.0487,-0.00857 0.109487,-0.069186 0.225059,-0.1330361 0.318048,-0.2231862 0.02103,-0.020386 -0.03172,-0.1699608 -0.03349,-0.1758752 -0.01964,-0.03552 -0.0354,-0.073481 -0.05892,-0.1065611 -0.114904,-0.1616126 -0.297617,-0.2858388 -0.46173,-0.3935675 -0.07793,0.078603 -0.191738,0.1334215 -0.233785,0.2358099 -0.01669,0.040647 0.06886,0.054602 0.103335,0.081851 0.132394,0.1046471 0.264056,0.2100539 0.392507,0.3195206 0.05414,0.055273 0.155251,0.1306623 0.153896,0.2186689 -1.47e-4,0.00956 -0.0037,0.018765 -0.0056,0.028148 -0.08678,0.079015 -0.121029,0.1079716 0.239995,-0.1421255 0.01435,-0.00994 -0.03298,0.011991 -0.05018,0.014942 -0.07437,0.012759 -0.123416,-0.00573 -0.192409,-0.030974 C 18.555963,9.3946164 18.395643,9.2537885 18.239098,9.1142309 18.144387,9.0240949 18.072176,8.9143336 17.989622,8.8137635 17.928071,8.742809 17.858118,8.6796742 17.790589,8.6145052 c -0.03407,-0.034626 -0.07216,-0.066877 -0.116732,-0.087243 -0.0067,-0.00306 -0.0148,-0.011621 -0.02085,-0.0074 -0.09863,0.068888 -0.190148,0.1474444 -0.285221,0.2211666 0.01685,0.020702 0.03073,0.044224 0.05054,0.062105 0.06142,0.055419 0.162459,0.1126201 0.231793,0.1517225 0.125416,0.070732 0.254913,0.13167 0.385673,0.1916175 0.138018,0.063981 0.27912,0.121261 0.417148,0.1851475 0.140144,0.065397 0.156084,0.08401 0.317999,-0.1896865 0.01802,-0.030458 -0.06152,-0.03504 -0.09294,-0.051319 -0.08848,-0.04584 -0.207888,-0.1017102 -0.296858,-0.1440814 -0.07618,-0.034511 -0.176196,-0.083909 -0.259218,-0.1080952 -0.02469,-0.00719 -0.05225,-0.022851 -0.07604,-0.013079 -0.118994,0.048878 -0.236093,0.1070484 -0.339388,0.1837214 -0.01693,0.012567 4.73e-4,0.042863 0.0072,0.062841 0.0092,0.027372 0.02663,0.051272 0.03995,0.076909 0.144897,0.2012169 0.328726,0.3695871 0.496325,0.5512385 0.148646,0.1618076 0.106203,0.158875 0.383472,-0.101381 0.01132,-0.010624 -0.01946,-0.024223 -0.02994,-0.035671 -0.01469,-0.016042 -0.03036,-0.031162 -0.04554,-0.046742 C 18.401086,9.3771503 18.236109,9.2479411 18.06349,9.1290113 17.926434,9.0404937 17.784021,8.9606086 17.641326,8.8816491 17.573924,8.844353 17.484125,8.8062161 17.423499,8.754798 c -0.0835,0.069025 -0.194616,0.1142696 -0.250513,0.2070762 -0.01874,0.031116 0.06737,0.027207 0.100675,0.041705 0.04107,0.017877 0.08162,0.036927 0.122417,0.055405 0.111813,0.050637 0.220465,0.1031488 0.32796,0.1623574 0.16636,0.092871 0.300682,0.2283639 0.442008,0.3535777 0.0962,0.087328 0.190198,0.1771113 0.283373,0.267652 0.126163,0.1161059 0.05344,0.097167 0.320808,-0.1436855 0.0094,-0.00848 -0.02445,-0.00668 -0.03662,-0.010202 -0.01655,-0.00479 -0.03302,-0.00983 -0.04954,-0.014738 C 18.456559,9.6090591 18.248826,9.4952922 18.048531,9.3720293 17.880165,9.2637443 17.716999,9.1473024 17.55926,9.0240765 c -0.03331,-0.025375 -0.06484,-0.052527 -0.09465,-0.081884 -0.08242,-0.081165 0.04044,-0.062313 -0.273022,0.177623 0.379474,0.2074135 0.74972,0.4311162 1.118138,0.6574136 0.04224,0.025957 0.08441,0.052032 0.126724,0.07787 0.02831,0.017286 0.05661,0.034593 0.08515,0.051501 0.0144,0.00853 0.02906,0.016598 0.04364,0.0248 0.0043,0.00244 0.009,0.00997 0.01312,0.00713 C 18.876995,9.7310304 18.943538,9.797788 18.814429,9.7041883 18.7082,9.6310429 18.6056,9.5531675 18.496409,9.4844002 18.40933,9.4403722 18.32581,9.3853511 18.232788,9.3538478 c -0.06788,-0.022988 -0.08824,-0.021886 -0.163768,-0.03278 -0.180119,-0.017 -0.361139,-0.023648 -0.54123,-0.040581 -0.06249,-0.010357 -0.14306,-0.01435 -0.198584,-0.048501 -0.07952,0.066763 -0.194299,0.1063646 -0.238557,0.2002889 -0.01904,0.040411 0.0876,0.017627 0.131122,0.02771 0.06929,0.016056 0.138311,0.033295 0.207278,0.050699 0.262475,0.066237 0.523489,0.1379159 0.784654,0.2090842 0.3806,0.115706 0.77323,0.1802859 1.163151,0.2549769 0.266316,0.045293 0.527819,0.1125692 0.786485,0.1896162 0.110241,0.03897 0.226093,0.06278 0.334763,0.10637 0.0016,6.55e-4 -0.0067,6.28e-4 -0.0053,-4.17e-4 0.08292,-0.06121 0.167208,-0.120565 0.250812,-0.180847 -0.221948,0.02172 -0.44605,0.016 -0.668862,0.01653 -0.174381,3.73e-4 -0.348764,1.67e-4 -0.523143,-7.51e-4 -0.04248,-2.24e-4 -0.162257,0.0015 -0.214352,-0.0067 -0.0131,-0.0021 -0.02497,-0.0089 -0.03745,-0.0134 -10e-6,-0.0056 -0.0019,-0.0116 -2.9e-5,-0.01693 0.0084,-0.02439 0.02533,-0.04497 0.03784,-0.06754 0.02409,-0.04345 0.03681,-0.078946 0.04425,-0.127914 -0.0022,-0.015344 -0.0011,-0.031511 -0.0065,-0.046032 -0.03461,-0.092911 -0.17185,-0.2029385 -0.245133,-0.266956 -0.01725,-0.015575 -0.07281,-0.062271 -0.08868,-0.087232 -0.0025,-0.00396 0.0049,-0.016545 9.7e-4,-0.014035 -0.09214,0.058388 -0.195008,0.1055962 -0.27019,0.1846328 -0.01711,0.017982 0.0472,0.015685 0.06973,0.026108 0.04285,0.019832 0.08408,0.043015 0.12612,0.064522 0.232668,0.1240829 0.460838,0.2573795 0.678848,0.4058622 0.01666,0.01161 0.06557,0.0454 0.08434,0.05955 0.09115,0.0687 -0.0046,0.159626 0.269698,-0.169977 0.01676,-0.02015 -0.05068,-0.01337 -0.07602,-0.02005 C 19.739984,9.9482133 19.565558,9.8595811 19.390191,9.7755919 19.255663,9.7084009 19.115885,9.651078 18.984996,9.57677 18.863768,9.519089 18.916036,9.537162 18.690499,9.7864628 c -0.01322,0.014616 0.02336,0.031758 0.03552,0.047266 0.0407,0.051888 0.08332,0.1024614 0.125399,0.1532317 0.08285,0.079603 0.170735,0.1828525 0.282803,0.2207555 0.108444,-0.05939 0.222113,-0.110094 0.325333,-0.178155 0.01224,-0.0081 0.01078,-0.02824 0.0099,-0.04287 -0.0024,-0.039225 -0.0113,-0.077852 -0.01972,-0.1162389 -0.03576,-0.1629807 -0.09081,-0.3197043 -0.1473,-0.4763072 -0.04279,-0.119978 -0.08969,-0.2384543 -0.138456,-0.3561128 -0.0096,-0.023228 -0.01966,-0.046288 -0.02943,-0.069456 -0.0063,-0.014834 -0.005,-0.053018 -0.01865,-0.044551 -0.100036,0.061863 -0.181509,0.1496375 -0.272263,0.2244563 0.156641,0.2539853 0.336942,0.4925946 0.516029,0.731008 0.05713,0.070714 0.107647,0.1472351 0.168229,0.2152151 0.01635,0.01834 0.04534,0.04563 0.05155,0.04176 0.103328,-0.06424 0.199187,-0.1397857 0.298781,-0.2096786 -0.05166,-0.2023962 -0.140602,-0.3936145 -0.222253,-0.5853106 -0.07797,0.086559 -0.0094,-0.1488284 -0.05062,-0.1283669 -0.100787,0.050063 -0.209675,0.1014068 -0.279068,0.1900016 -0.02169,0.027691 0.04429,0.054677 0.06536,0.082842 0.07892,0.1055109 0.154298,0.2148476 0.229938,0.322642 0.097,0.1372321 0.189693,0.2776175 0.289859,0.4126115 0.01554,0.02095 0.03084,0.04217 0.04811,0.06171 0.0082,0.0092 0.01681,0.02972 0.02791,0.02432 0.108985,-0.05299 0.207078,-0.125941 0.310616,-0.188912 -0.05086,-0.1693487 -0.104435,-0.3382627 -0.166285,-0.5039639 -0.02276,-0.035408 -0.02598,-0.091875 -0.0582,-0.1224895 -0.09732,-0.092477 -0.284665,0.09312 -0.365812,0.1951478 0.0231,-0.00987 -0.111508,0.077335 -0.08415,0.05727 0.07804,-0.057233 0.177389,-0.091707 0.236628,-0.1682385 0.01733,-0.022388 -0.05184,-0.024266 -0.07362,-0.042349 -0.0661,-0.054874 -0.103305,-0.1216643 -0.150944,-0.1918634 -0.05236,-0.094228 -0.109591,-0.1874584 -0.147184,-0.2890667 -0.006,-0.016137 -0.01248,-0.03259 -0.01376,-0.049748 -3.38e-4,-0.00449 0.01315,-0.012132 0.0093,-0.0098 -0.09837,0.059441 -0.195503,0.1209211 -0.293255,0.1813817 0.04728,0.1079662 0.06446,0.2256962 0.08908,0.3400916 0.01862,0.086563 0.02403,0.107564 0.04351,0.1894774 0.008,0.01815 0.01168,0.038835 0.02388,0.054449 0.008,0.010208 0.02229,0.025325 0.03375,0.019278 0.116498,-0.061478 0.229889,-0.1308083 0.332978,-0.2128075 0.02162,-0.017197 0.02158,-0.050887 0.03113,-0.07681 0.01783,-0.048401 0.0391,-0.1185585 0.05465,-0.1683552 0.007,-0.017287 0.01227,-0.03536 0.02095,-0.051862 0.0032,-0.00618 0.0096,-0.010167 0.01434,-0.01525 -0.104273,0.063831 -0.215791,0.1171101 -0.312817,0.1914941 -0.01389,0.01065 -0.0032,0.034871 -0.0051,0.052263 -0.0041,0.035827 -0.0097,0.073188 -0.01481,0.1089069 0.0011,0.027755 -0.02206,0.097099 0.0087,0.1198554 0.01333,0.00985 0.03336,0.020496 0.04803,0.012806 0.124041,-0.064991 0.24489,-0.1380257 0.355317,-0.2241396 0.03231,-0.025194 0.04366,-0.06934 0.06548,-0.1040105 0.06856,-0.1263157 0.115262,-0.2626053 0.158373,-0.3992045 0.0051,-0.016231 0.03722,-0.1180347 0.03945,-0.1500382 5.57e-4,-0.00801 -0.0041,-0.015506 -0.0062,-0.023258 -0.110604,0.05565 -0.226327,0.1021209 -0.331814,0.1669501 -0.01724,0.010592 -0.01843,0.036017 -0.0277,0.053999 -0.01458,0.02829 -0.02909,0.056622 -0.04385,0.084816 -0.05201,0.099299 -0.104925,0.1978357 -0.160553,0.2951469 -0.01498,0.024192 -0.0282,0.049568 -0.04494,0.072575 -0.0076,0.010453 -0.01844,0.018125 -0.02766,0.027188 0.104328,-0.06917 0.218323,-0.1256081 0.312985,-0.2075105 0.01795,-0.01553 0.005,-0.047217 0.0086,-0.070688 0.0098,-0.065402 0.0087,-0.055672 0.02539,-0.109631 0.0022,-0.00152 0.0089,-0.00584 0.0066,-0.00454 -0.107977,0.060287 -0.224901,0.1069602 -0.323559,0.181527 -0.02049,0.015484 -0.01113,0.050143 -0.01625,0.075306 -0.02587,0.1269831 -0.04607,0.2548666 -0.06727,0.3826871 -0.0051,0.027755 -0.02025,0.1223292 -0.03367,0.1590075 -0.0025,0.0067 -0.01888,0.020799 -0.01269,0.017248 0.100068,-0.057385 0.208367,-0.1043663 0.295807,-0.1796062 0.01473,-0.012674 -0.01783,-0.034531 -0.0271,-0.051608 -0.01377,-0.025372 -0.02802,-0.050485 -0.04203,-0.075728 -0.07429,-0.1356958 -0.171397,-0.2540815 -0.325818,-0.2963256 -0.106121,0.063471 -0.224376,0.1100593 -0.318362,0.1904136 -0.0168,0.014363 0.01291,0.042499 0.02284,0.062249 0.04805,0.095637 0.126075,0.1779885 0.197361,0.2565073 0.0089,0.00721 0.01725,0.028004 0.0268,0.021637 0.102316,-0.068177 0.20701,-0.1381308 0.287501,-0.2310708 0.01611,-0.018599 -0.0177,-0.045973 -0.02836,-0.068146 -0.03515,-0.073098 -0.08175,-0.1343147 -0.13309,-0.1964148 -0.04925,-0.050288 -0.09762,-0.1025571 -0.154806,-0.1441378 -0.0077,-0.00559 -0.01516,-0.019616 -0.02381,-0.015683 -0.11192,0.050865 -0.216704,0.116157 -0.325056,0.1742355 -0.0033,0.1261767 0.02167,0.2510401 0.04543,0.3743892 0.03333,0.1434451 -0.04346,0.1578102 0.301697,-0.1446568 1.47e-4,-1.285e-4 -0.05526,-0.1181282 -0.08004,-0.171506 -0.06037,-0.135379 -0.005,-0.1404342 -0.307254,0.1622938 -0.01635,0.016371 0.01777,0.04273 0.02714,0.063882 0.02379,0.05368 0.04872,0.1068441 0.07284,0.1603701 0.09734,0.2106 0.08953,0.170214 0.372348,-0.087915 0.0057,-0.00523 -0.0317,-0.095151 -0.03254,-0.097271 -0.01306,-0.031735 -0.03112,-0.060808 -0.04897,-0.089944 0,0 -0.301116,0.1757526 -0.301116,0.1757526 v 0 c 0.01781,0.026412 0.03516,0.053125 0.04725,0.082812 0.0056,0.014937 0.01226,0.029529 0.01687,0.044811 0.0042,0.013911 -0.0045,0.046707 0.0094,0.04255 0.10583,-0.031609 0.202225,-0.088935 0.302305,-0.1356591 0.0031,-0.00144 -0.0078,0.00175 -0.01018,-7.27e-4 -0.02198,-0.023375 -0.04519,-0.080847 -0.05587,-0.1033478 -0.01445,-0.032138 -0.05737,-0.1269167 -0.07102,-0.1598621 -0.0089,-0.021434 -0.0022,-0.069632 -0.02497,-0.064967 -0.376788,0.077343 -0.364089,0.042842 -0.296961,0.177342 0.03495,0.074654 0.02189,0.045619 0.0559,0.1230471 0.0075,0.017006 0.0044,0.055955 0.0223,0.051067 0.347583,-0.094805 0.343818,-0.04144 0.30623,-0.1912999 -0.01731,-0.084506 -0.03438,-0.1698271 -0.03908,-0.2561638 -10e-4,-0.018444 -0.0031,-0.037103 -6e-4,-0.05541 0.0014,-0.010729 0.008,-0.020098 0.01207,-0.030147 -0.09688,0.048463 -0.197272,0.090451 -0.290628,0.1453906 -0.0074,0.00435 0.01534,0.00773 0.02254,0.012379 0.01008,0.00651 0.01978,0.013625 0.02923,0.021031 0.04436,0.034785 0.08381,0.075235 0.123761,0.1148295 0.04966,0.058921 0.09471,0.1167828 0.127364,0.1872708 0.0095,0.020535 0.0023,0.067032 0.02457,0.063292 0.109512,-0.01835 0.210339,-0.072511 0.31094,-0.1195113 0.0086,-0.00403 -0.01656,-0.00944 -0.02484,-0.014154 -0.05475,-0.056852 -0.107158,-0.11507 -0.151419,-0.1807503 -0.0136,-0.020184 -0.02716,-0.040643 -0.03733,-0.062752 -0.0048,-0.010379 0.0037,-0.037675 -0.007,-0.033555 -0.09989,0.038618 -0.190543,0.097838 -0.285815,0.1467567 0.01281,8.009e-4 0.02614,-0.00134 0.03842,0.0024 0.02039,0.00621 0.03941,0.016496 0.05798,0.026958 0.09779,0.055101 0.164073,0.140559 0.215403,0.2389079 0.0133,0.025214 0.02704,0.050201 0.03989,0.075643 0.0095,0.018784 0.0067,0.061929 0.02714,0.057008 0.354357,-0.085228 0.317428,-0.084822 0.357189,-0.3228935 0.01565,-0.095509 0.02734,-0.1718729 0.04637,-0.2672081 0.0077,-0.038552 0.01649,-0.076879 0.02531,-0.1151883 0.0059,-0.025719 0.0451,-0.080169 0.01891,-0.076883 -0.303911,0.038135 -0.297686,0.00663 -0.309339,0.1233648 -0.0039,0.016899 -0.03919,0.1888254 -0.0287,0.1884686 0.277229,-0.00943 0.28893,-0.032198 0.380405,-0.1894041 0.05472,-0.098134 0.106944,-0.1975271 0.160874,-0.2960883 0.01544,-0.028224 0.0302,-0.056861 0.04696,-0.084322 0.01003,-0.016435 0.05163,-0.053106 0.03331,-0.047191 -0.10319,0.03331 -0.198102,0.08824 -0.297153,0.1323596 0.0067,0.033849 -0.02848,0.13225 -0.0347,0.1522177 -0.0421,0.134996 -0.09017,0.2688685 -0.162807,0.3909349 -0.02379,0.032695 -0.111545,0.1025903 -0.07136,0.098084 0.08853,-0.00993 0.157699,-0.08356 0.240254,-0.1170258 0.01077,-0.00437 -0.0095,0.025025 -0.02073,0.028036 -0.007,0.00188 -0.0067,-0.013217 -0.0076,-0.020433 -0.0024,-0.019744 0.0038,-0.065525 0.0056,-0.082801 0.0041,-0.030494 0.01104,-0.080325 0.01395,-0.110509 0.0018,-0.018697 0.02267,-0.059241 0.0041,-0.0562 -0.294832,0.04838 -0.288747,0.023607 -0.34265,0.1809706 -0.01671,0.052674 -0.03485,0.1140282 -0.05655,0.1647329 -0.01046,0.024452 -0.06161,0.077286 -0.03568,0.071368 0.09668,-0.022067 0.179715,-0.083914 0.270036,-0.1248581 0.0062,-0.00281 -0.01258,0.01504 -0.01757,0.010412 -0.01292,-0.011975 -0.01512,-0.031818 -0.02268,-0.047726 -0.02086,-0.082665 -0.02576,-0.099311 -0.0447,-0.1873831 -0.02589,-0.1203977 -0.04263,-0.2443903 -0.09166,-0.358357 -0.106669,0.049872 -0.216725,0.093063 -0.320007,0.1496155 -0.0073,0.00399 -6.71e-4,0.016819 0.0013,0.024883 0.0044,0.017859 0.01073,0.035249 0.01773,0.05226 0.04194,0.1018852 0.09956,0.1965368 0.153204,0.2923811 0.05195,0.078462 0.08621,0.141441 0.155671,0.2053386 0.02455,0.022581 0.04919,0.065082 0.08172,0.057737 0.164646,-0.037175 0.32555,-0.1109078 0.449144,-0.224994 0.101863,-0.1002864 0.01155,-0.0071 -0.26238,0.1298081 -0.0046,0.00228 0.0023,-0.014549 0.0073,-0.01343 0.0076,0.00172 0.02938,0.049021 0.03301,0.056917 0.0085,0.018574 0.01623,0.037523 0.02435,0.056284 0.03225,0.084258 0.06091,0.1691245 0.08874,0.254948 0.01587,0.04895 0.04246,0.127102 0.05487,0.178587 0.0041,0.0172 0.0058,0.0349 0.0087,0.05235 0.09939,-0.04887 0.202975,-0.08999 0.298159,-0.146618 0.0086,-0.0051 -0.01879,-0.0083 -0.02604,-0.01526 -0.0185,-0.01783 -0.03434,-0.03827 -0.05034,-0.05837 C 20.100211,9.9159971 20.00755,9.7754804 19.910378,9.6386519 19.72001,9.3621291 19.861384,9.5679494 19.686117,9.3116751 c -0.02237,-0.032702 -0.02821,-0.1050863 -0.0672,-0.098038 -0.403052,0.072869 -0.343683,0.112195 -0.261133,0.2954297 0.07297,0.1671551 0.15889,0.348007 0.201672,0.5254652 0.0038,0.01593 0.0052,0.03236 0.0077,0.04854 0.09847,-0.05029 0.196123,-0.1022361 0.295423,-0.1508764 0.004,-0.00194 -0.0043,0.011888 -0.0084,0.010271 -0.01233,-0.00485 -0.02122,-0.016032 -0.03045,-0.025543 -0.06314,-0.065121 -0.112528,-0.1426978 -0.171073,-0.2116099 -0.181038,-0.2344654 -0.362663,-0.4707576 -0.509067,-0.7288844 -0.109964,0.039255 -0.226336,0.063827 -0.329892,0.1177651 -0.01419,0.00739 0.01361,0.028957 0.02027,0.043504 0.06305,0.1377529 0.120898,0.2779384 0.172533,0.420377 0.05553,0.1537826 0.113405,0.3093542 0.140095,0.4715286 0.0056,0.03384 0.01015,0.06847 0.0072,0.102635 -9.02e-4,0.01035 -0.02774,0.02962 -0.01831,0.02523 0.09697,-0.04513 0.189461,-0.09931 0.284192,-0.148972 -0.0086,-1.12e-4 -0.01761,0.0024 -0.02577,-3.34e-4 -0.01351,-0.0044 -0.02536,-0.012978 -0.03745,-0.020476 -0.07814,-0.048448 -0.146178,-0.1116784 -0.208862,-0.178416 -0.04163,-0.050248 -0.08398,-0.1002863 -0.12381,-0.151986 -0.0111,-0.014404 -0.01477,-0.049489 -0.03213,-0.044083 -0.110772,0.034486 -0.210103,0.098583 -0.313287,0.1516193 -0.0047,0.0024 0.01045,9.045e-4 0.01567,0.00136 0.132613,0.074177 0.274435,0.1301656 0.410181,0.1981923 0.176131,0.08542 0.351727,0.1735678 0.536433,0.2392588 0.191563,0.06209 0.08307,0.04682 0.417866,-0.149561 0.02293,-0.01345 -0.124302,-0.098452 -0.12121,-0.1001549 -0.221511,-0.1462485 -0.45275,-0.2771974 -0.684533,-0.4063002 -0.04117,-0.022844 -0.08227,-0.045796 -0.123495,-0.068533 -0.02504,-0.013812 -0.04845,-0.050941 -0.07531,-0.041113 -0.117607,0.043037 -0.379302,0.1108941 -0.308611,0.2142689 0.01783,0.026076 0.07271,0.071647 0.09265,0.089366 0.05927,0.051791 0.205578,0.1699077 0.229603,0.2458959 0.0037,0.011779 0.0013,0.024675 0.0019,0.037013 -0.0098,0.04068 -0.0067,0.037 -0.02551,0.07626 -0.01928,0.04033 -0.05476,0.08602 -0.04973,0.134002 0.0016,0.01544 0.01143,0.02886 0.01715,0.04329 0.01541,0.0069 0.02965,0.01757 0.04624,0.02084 0.04538,0.0089 0.187444,0.0054 0.219964,0.0054 0.17442,-3.44e-4 0.348841,-2.6e-5 0.52326,7.14e-4 0.221981,7.19e-4 0.444177,0.0046 0.665998,-0.0058 0.110617,-0.0658 0.226335,-0.123707 0.331852,-0.197414 0.0078,-0.0054 -0.0056,-0.0197 -0.01349,-0.02497 -0.01459,-0.0098 -0.033,-0.01212 -0.04975,-0.01744 -0.09642,-0.03064 -0.194638,-0.05558 -0.290775,-0.08716 -0.260273,-0.078869 -0.523191,-0.1485344 -0.792435,-0.1897936 -0.390419,-0.073469 -0.782382,-0.1418306 -1.165,-0.2506293 -0.261028,-0.069503 -0.521592,-0.140624 -0.782337,-0.2111719 -0.06764,-0.018301 -0.135292,-0.036567 -0.203037,-0.054476 -0.04252,-0.01124 -0.08587,-0.046416 -0.12774,-0.032971 -0.123008,0.039501 -0.227557,0.1224033 -0.341336,0.1836049 0.04178,0.040303 0.156585,0.056864 0.213192,0.064284 0.180275,0.018021 0.362008,0.020587 0.542389,0.038213 0.06603,0.00816 0.09649,0.00853 0.157285,0.027058 0.09249,0.028183 0.174891,0.082376 0.260904,0.1248003 0.108759,0.067645 0.209846,0.1458204 0.31485,0.2189876 0.130225,0.094765 0.02716,0.035962 0.344799,-0.1493434 0.0032,-0.00189 -0.0077,0.00182 -0.01123,5.268e-4 -0.01579,-0.0058 -0.03082,-0.013562 -0.04568,-0.021424 -0.02967,-0.015688 -0.05877,-0.03243 -0.08785,-0.049186 -0.04335,-0.024977 -0.08627,-0.050671 -0.129411,-0.076006 -0.37092,-0.2210576 -0.742895,-0.4403972 -1.111105,-0.6659546 -0.114185,0.051907 -0.231169,0.098054 -0.342556,0.1557222 -0.0057,0.00295 0.0036,0.012645 0.0075,0.017754 0.0063,0.0083 0.01513,0.014368 0.02257,0.021684 0.03092,0.030423 0.06258,0.059517 0.09803,0.08481 0.160802,0.1223065 0.327503,0.2368592 0.49657,0.3473946 0.20022,0.1255824 0.408196,0.2416692 0.634697,0.3130884 0.01631,0.00517 0.03261,0.010335 0.04892,0.015509 0.01224,0.00388 0.02513,0.017215 0.03671,0.011665 C 18.843889,9.7235809 18.88441,9.78543 18.745059,9.6607749 18.650944,9.5700088 18.554027,9.4820866 18.457705,9.3937043 18.3142,9.2672484 18.179395,9.1283594 18.010818,9.034251 17.86348,8.9533812 17.711132,8.8845855 17.558767,8.8138075 c -0.03224,-0.014974 -0.06291,-0.054412 -0.09699,-0.044307 -0.119628,0.035471 -0.221754,0.114463 -0.332632,0.1716945 0.07194,0.047784 0.153112,0.084085 0.228694,0.1251271 0.14212,0.077172 0.282642,0.1576671 0.41814,0.2460424 0.169663,0.1183778 0.333202,0.2453052 0.486944,0.3839036 0.01436,0.015172 0.02907,0.030013 0.04307,0.045517 0.0089,0.00988 0.01317,0.035217 0.02564,0.030588 0.666538,-0.2474253 0.386515,-0.086159 0.293265,-0.1679824 -0.01519,-0.013326 -0.07248,-0.074005 -0.08113,-0.083047 -0.168149,-0.1765004 -0.351855,-0.3411718 -0.490648,-0.5429852 -0.01009,-0.021259 -0.02476,-0.040899 -0.03027,-0.063776 -0.0024,-0.010103 0.0051,-0.020154 0.0076,-0.030232 -0.08864,0.046769 -0.177274,0.093539 -0.265912,0.1403078 -0.0198,0.015033 0.05019,-5.292e-4 0.07442,0.00504 0.08374,0.019245 0.184859,0.069579 0.260253,0.1030298 0.128364,0.061751 0.169033,0.079531 0.291532,0.1450329 0.0293,0.015668 0.05471,0.057481 0.08682,0.04897 0.117979,-0.031264 0.223194,-0.099668 0.329665,-0.1593369 0.02055,-0.011517 -0.105411,-0.011036 -0.06524,-0.027177 -0.138914,-0.064597 -0.282755,-0.11851 -0.422091,-0.1822889 -0.130761,-0.058186 -0.260096,-0.1171887 -0.384919,-0.1875842 -0.065,-0.036656 -0.16215,-0.092537 -0.220681,-0.1444624 -0.01627,-0.014436 -0.02749,-0.033724 -0.04123,-0.050587 -0.101847,0.048373 -0.204504,0.095078 -0.305542,0.14512 -0.0047,0.00233 0.01055,-0.00274 0.01566,-0.00155 0.0089,0.00208 0.01705,0.00682 0.02518,0.011053 0.03262,0.016993 0.06145,0.039751 0.08653,0.06658 0.06693,0.064082 0.135826,0.1265296 0.197935,0.1953189 0.08461,0.1012803 0.157836,0.2126676 0.253396,0.3044935 0.16138,0.1396145 0.325056,0.280465 0.510274,0.3875871 0.0259,0.01149 0.05082,0.025512 0.0777,0.03447 0.176998,0.058978 0.465072,-0.059287 0.522513,-0.2227481 2.35e-4,-0.012181 0.0021,-0.024436 7.06e-4,-0.036543 C 19.046065,9.3577187 18.956065,9.2871266 18.887779,9.2220697 18.75778,9.1138388 18.6244,9.0098506 18.493205,8.9030919 c -0.03335,-0.027134 -0.05649,-0.087175 -0.09921,-0.082402 -0.123642,0.013813 -0.232624,0.088311 -0.348936,0.132467 0.160121,0.096942 0.346894,0.2226635 0.455142,0.3770869 0.02183,0.031144 0.03584,0.067095 0.05376,0.1006425 0.0076,0.029363 0.0192,0.057978 0.02293,0.088089 0.0027,0.02187 -0.02519,0.071338 -0.0038,0.066005 0.09767,-0.024363 0.180238,-0.089759 0.271278,-0.1327203 0.01361,-0.00642 -0.02406,0.020149 -0.03883,0.02303 -0.04021,0.00784 -0.08454,-0.017963 -0.118177,-0.031897 -0.09437,-0.0469 -0.193016,-0.092383 -0.265426,-0.1711516 C 18.296224,9.1378507 18.174852,8.9996552 18.059065,8.8565171 17.920063,8.6886766 17.789026,8.5141904 17.644854,8.35071 c -0.108536,0.051635 -0.218243,0.1008773 -0.325608,0.1549048 -0.0028,0.00143 0.0056,0.00312 0.0083,0.00477 0.0092,0.00559 0.01833,0.011346 0.02752,0.016972 0.05228,0.032004 0.105474,0.062479 0.157186,0.095419 0.145032,0.085417 0.28863,0.1731502 0.442409,0.2426692 0.290418,0.1450875 0.570965,0.3096112 0.838617,0.4935156 0.03556,0.02714 0.06213,0.085465 0.106675,0.08142 0.572289,-0.05196 0.400091,-0.090727 0.2389,-0.2191969 C 19.028444,9.136848 18.923751,9.0455558 18.81302,8.9616771 18.691465,8.8726559 18.5613,8.7961651 18.428942,8.7244243 18.171414,8.5784397 17.908021,8.4437083 17.649726,8.2991542 c -0.150133,-0.082451 -0.0555,-0.031377 -0.182808,-0.098429 -0.01745,-0.00919 -0.03386,-0.034851 -0.05226,-0.027745 -0.08031,0.031016 -0.437184,0.1065181 -0.300051,0.2079324 0.127689,0.079671 0.273102,0.1262031 0.405501,0.1971718 0.246335,0.136388 0.495213,0.2680334 0.734721,0.4164726 0.131058,0.071954 0.261953,0.1452558 0.396781,0.2100594 0.02763,0.01328 0.05473,0.046285 0.08405,0.037335 0.355268,-0.1084556 0.34959,-0.045991 0.339736,-0.198697 C 18.993831,8.9195 18.875678,8.8346282 18.741032,8.7740888 18.583028,8.6961512 18.423644,8.6207526 18.266298,8.5415115 18.203744,8.5100084 17.990961,8.4005183 17.923464,8.3580147 c -0.0255,-0.016056 -0.04727,-0.037371 -0.07091,-0.056057 -0.106858,0.049437 -0.214951,0.096289 -0.320574,0.1483118 -0.008,0.00395 0.01769,-0.00429 0.02659,-0.00352 0.01546,0.00133 0.03049,0.00588 0.04551,0.00973 0.08241,0.02114 0.161987,0.051817 0.241418,0.08187 0.215365,0.0881 0.43872,0.1763467 0.608579,0.3407927 0.06441,0.064888 0.0965,0.093887 0.154355,0.1659252 0.02102,0.02617 0.04257,0.052299 0.05921,0.081448 0.0089,0.015649 -5.53e-4,0.056784 0.01666,0.051432 0.101143,-0.031458 0.189263,-0.095201 0.282953,-0.1446167 0.0091,-0.0048 -0.0193,0.0071 -0.02895,0.010647 -0.10914,-0.031532 -0.21048,-0.082812 -0.306138,-0.1437335 -0.07984,-0.052551 -0.168787,-0.1021757 -0.208505,-0.1934658 -0.07233,-0.1324648 -0.137606,-0.2685196 -0.199784,-0.4060435 -0.0386,-0.084907 -0.08394,-0.1700776 -0.11084,-0.2597638 -0.0059,-0.01965 0.0071,-0.064745 -0.01286,-0.060187 -0.106859,0.024352 -0.204096,0.081021 -0.301241,0.1317642 -0.008,0.00419 0.01581,0.0088 0.02371,0.0132 0.108572,0.081385 0.193926,0.1882653 0.295957,0.2771656 0.248868,0.2275059 0.505041,0.4556663 0.814684,0.5973481 0.04168,0.014594 0.08263,0.031462 0.125036,0.043782 0.226344,0.065757 0.476237,0.052042 0.615807,-0.2047376 6.55e-4,-0.016476 0.0043,-0.033111 0.002,-0.049428 -0.0027,-0.018681 -0.01,-0.036496 -0.01702,-0.054014 -0.04232,-0.1053806 -0.09511,-0.1512838 -0.198075,-0.1972558 -0.33853,-0.1419229 -0.69442,-0.2366521 -1.052283,-0.3159692 -0.05663,-0.010377 -0.113982,-0.044888 -0.169886,-0.031131 -0.13785,0.033923 -0.265313,0.1028724 -0.390868,0.1691242 -0.01217,0.00642 -0.0096,0.027247 -0.0068,0.040708 0.0068,0.032044 0.07286,0.1019206 0.09004,0.1307906 0.07836,0.092941 0.176127,0.1651023 0.266875,0.2454552 0.186149,0.1680892 0.382542,0.3274008 0.619337,0.4189139 0.14282,0.048774 0.285884,0.092214 0.432587,0.1280496 0.04043,0.00988 0.08122,0.018237 0.121848,0.027248 0.02537,0.00563 0.05281,0.028086 0.07615,0.016663 0.11161,-0.054625 0.207129,-0.1373304 0.310694,-0.2059955 -0.0062,-0.012231 -0.01012,-0.025874 -0.01852,-0.036694 C 19.722874,9.1034754 19.639812,9.0285762 19.625549,9.0159127 19.518718,8.9210637 19.407064,8.8316814 19.290073,8.7496153 19.048541,8.5831898 18.802815,8.4235677 18.555764,8.2654699 c -0.03644,-0.023318 -0.06787,-0.08019 -0.109735,-0.069294 -0.116013,0.030195 -0.207936,0.119357 -0.311904,0.1790355 0.08968,0.065452 0.01872,0.015428 0.147801,0.098253 0.211203,0.1355218 0.422084,0.2720149 0.625364,0.4192558 0.04246,0.032331 0.08563,0.063756 0.127387,0.096993 0.02473,0.019681 0.04078,0.066663 0.07199,0.0617 0.409692,-0.065151 0.383721,-0.069238 0.277222,-0.2699647 -0.19272,-0.3532719 -0.398538,-0.6992041 -0.588945,-1.0537191 -0.104078,0.042252 -0.210379,0.079397 -0.312235,0.126755 -0.0063,0.00293 0.01384,0.0046 0.01836,0.00988 0.01771,0.020695 0.03255,0.043738 0.04717,0.066717 0.08379,0.1316612 0.154458,0.2716409 0.242838,0.4005187 0.151645,0.2324393 0.307428,0.4966692 0.558537,0.6352545 0.02943,0.016245 0.06218,0.025584 0.09328,0.038376 0.121128,-0.053833 0.24493,-0.102013 0.363384,-0.1614988 0.01243,-0.00624 0.02028,-0.020358 0.02488,-0.03348 0.02119,-0.060508 -0.0544,-0.1820879 -0.07513,-0.2356771 C 19.717426,8.5058633 19.702486,8.4732479 19.652986,8.410319 19.566645,8.3005529 19.454241,8.21563 19.330704,8.1519933 19.218231,8.0944885 19.104883,8.0388351 18.99156,7.9830237 18.96203,7.9684827 18.9344,7.9304287 18.90283,7.9397157 c -0.352504,0.1036801 -0.346554,0.049318 -0.334947,0.2012008 0.08633,0.1788004 0.238568,0.3463267 0.40112,0.4587968 0.05235,0.036224 0.109843,0.064397 0.164764,0.096595 0.06447,0.028288 0.127845,0.059209 0.193406,0.084864 0.139378,0.05454 0.291355,0.099234 0.434734,0.1415673 0.05858,0.017295 0.117098,0.066058 0.176144,0.050444 0.130606,-0.034537 0.253704,-0.1046511 0.357201,-0.191479 0.0214,-0.017957 -0.04188,-0.036993 -0.06282,-0.055489 -0.369171,-0.2438846 -0.751635,-0.4663297 -1.129335,-0.6965835 0,0 -0.288213,0.1855705 -0.288213,0.1855709 z" 
     class="ColorScheme-Text"
    />
  <path
     style="fill:currentColor;fill-opacity:1;stroke-width:0.0233463"
     d="m 13.258897,12.846168 v 1.797378 l 0.847889,0.0061 0.84789,0.0061 -1.45624,2.159533 c -0.800933,1.187743 -1.463514,2.162124 -1.472404,2.165291 -0.0089,0.0032 -0.686218,-0.968622 -1.505174,-2.159533 l -1.4890112,-2.165291 0.91119,-0.0061 0.9111902,-0.0061 v -1.797394 -1.797395 h 1.202335 1.202335 z"
     id="path849" 
     class="ColorScheme-Text"
    />
  <path
     id="path838"
     d="m 9.5514082,14.608949 c 0.02617,-0.04441 1.0032808,-1.496026 1.1575368,-1.719668 l 0.135413,-0.196321 v 0.972586 0.972586 h -0.655074 c -0.5176683,0 -0.651467,-0.0061 -0.6378758,-0.02918 z"
     style="fill:currentColor;fill-opacity:1;stroke-width:0.0233463" 
     class="ColorScheme-Text"
    />
  <path
     id="path840"
     d="M 4.8560311,19.968518 C 3.738548,19.82087 2.8158039,19.21377 2.3425588,18.314831 2.1145933,17.881806 2.0194552,17.491968 2.0194552,16.990882 c 0,-1.076181 0.5982328,-2.044702 1.6059108,-2.599921 l 0.1234204,-0.068 0.011473,-0.385214 C 3.773791,13.48344 3.800315,13.221626 3.8666931,12.88716 4.2521245,10.945045 5.7078554,9.3641491 7.6164147,8.815033 8.1470307,8.6623683 8.4244621,8.6270597 9.0933853,8.6270597 c 0.5214191,0 0.6330112,0.00676 0.8988327,0.054479 0.979464,0.1758138 1.854122,0.5886099 2.591878,1.2232399 0.141487,0.1217084 0.319409,0.2883514 0.395382,0.3703174 0.143903,0.155252 0.482337,0.57187 0.523369,0.644276 0.02126,0.03752 0.03493,0.03098 0.135884,-0.06502 0.513849,-0.48866 1.203876,-0.835064 1.933254,-0.970524 0.354425,-0.065824 1.078994,-0.059798 1.412451,0.011747 1.38311,0.296752 2.453203,1.244159 2.893702,2.561938 0.148341,0.443771 0.192974,0.762433 0.183902,1.312984 l -0.0076,0.459078 0.249111,0.122686 c 1.481284,0.729529 2.097893,2.493338 1.370856,3.921332 -0.153514,0.301524 -0.295805,0.494381 -0.55645,0.754201 -0.447083,0.445668 -0.976062,0.72917 -1.665985,0.892874 l -0.214653,0.05093 -7.155642,0.0031 c -3.935603,0.0017 -7.1871595,-0.0011 -7.2256809,-0.0062 z m 8.2996109,-1.793207 v -0.82858 l 0.65097,-0.963249 0.650969,-0.963249 0.27121,-0.0066 C 14.877956,15.410038 15,15.402997 15,15.398008 c 0,-0.005 -0.0589,-0.09458 -0.130901,-0.1991 l -0.130901,-0.190029 0.107555,-0.161747 c 0.05916,-0.08896 0.107554,-0.172012 0.107554,-0.184557 0,-0.01293 -0.103441,-0.02569 -0.238771,-0.02946 l -0.238772,-0.0067 -0.601695,-0.874086 -0.601695,-0.874085 v -0.917743 -0.917743 h -0.625681 c -0.455513,0 -0.633301,-0.0076 -0.653697,-0.02802 -0.02179,-0.02179 -0.03424,-0.02179 -0.05603,0 -0.02015,0.02015 -0.177432,0.02802 -0.560311,0.02802 h -0.532296 v 0.795316 0.795316 l -0.671206,1.001363 -0.6712064,1.001363 -0.2392996,9.85e-4 c -0.1316148,5.42e-4 -0.2387424,0.0089 -0.2380614,0.0185 6.818e-4,0.0096 0.051778,0.09096 0.1135478,0.180728 l 0.1123098,0.163218 -0.1374965,0.204486 -0.1374964,0.204487 h 0.278573 0.2785728 l 0.5858429,0.850813 0.585842,0.850814 v 0.946852 0.946851 h 1.225681 1.225681 v -0.82858 z"
     style="fill:currentColor;fill-opacity:1;stroke-width:0.0233463" 
     class="ColorScheme-Text"
    />
  <path
     id="path842"
     d="m 9.1400779,15.210117 c 0.064985,-0.0963 0.122767,-0.175098 0.1284046,-0.175098 0.00564,0 0.06342,0.07879 0.1284047,0.175098 l 0.1181544,0.175097 H 9.2684825 9.0219235 Z"
     style="fill:currentColor;fill-opacity:1;stroke-width:0.0233463" 
     class="ColorScheme-Text"
    />
  <path
     id="path844"
     d="m 13.272374,13.782604 v -0.855528 l 0.549985,0.80004 c 0.302491,0.440021 0.566346,0.825009 0.586342,0.855527 l 0.03636,0.05549 h -0.586343 -0.586342 z"
     style="fill:currentColor;fill-opacity:1;stroke-width:0.0233463" 
     class="ColorScheme-Text"
    />
  <path
     id="path846"
     d="M 4.8560311,19.968536 C 3.7359056,19.820256 2.8162498,19.214617 2.3413171,18.312473 2.1127485,17.878302 2.0194552,17.495232 2.0194552,16.990882 c 0,-1.055271 0.5779814,-2.013974 1.5464447,-2.565101 L 3.7465858,14.322957 3.747391,14.217899 C 3.749901,13.89042 3.798512,13.259644 3.83915,13.027237 4.0311923,11.928959 4.5588007,10.921779 5.3522361,10.138827 6.1230983,9.3781487 7.1013533,8.8755699 8.1828794,8.6845827 c 0.3698277,-0.065308 1.0955979,-0.088627 1.4769934,-0.047456 1.5629632,0.1687204 2.9340512,0.9887536 3.8611242,2.3092983 0.0034,0.0048 0.08273,-0.06175 0.176401,-0.147842 0.352884,-0.324326 0.876508,-0.626954 1.35081,-0.7807 0.452369,-0.1466363 0.63787,-0.1739326 1.189146,-0.1749817 0.437081,-8.318e-4 0.533624,0.00591 0.747082,0.052155 1.593,0.3451347 2.769558,1.5581037 3.036637,3.1306127 0.04042,0.238012 0.04727,0.362437 0.04097,0.744825 l -0.0076,0.459078 0.249111,0.122686 c 0.429463,0.21151 0.792476,0.512044 1.08077,0.894758 0.857616,1.138495 0.785754,2.654495 -0.175087,3.693581 -0.452834,0.489711 -1.007698,0.797314 -1.785144,0.989638 -0.153031,0.03786 -0.619232,0.04066 -7.33074,0.044 -3.9420231,0.002 -7.1988325,-6e-4 -7.2373539,-0.0057 z m 8.2996109,-1.79376 v -0.829115 l 0.650455,-0.962714 0.650454,-0.962714 0.27195,-0.01167 0.271949,-0.01167 -0.12863,-0.191998 c -0.07075,-0.105599 -0.128629,-0.197022 -0.128629,-0.203162 0,-0.0061 0.04728,-0.07879 0.105058,-0.16145 0.05778,-0.08266 0.105058,-0.161956 0.105058,-0.176216 0,-0.01724 -0.08015,-0.02632 -0.239299,-0.02711 l -0.2393,-0.0012 -0.601167,-0.878802 -0.601167,-0.878801 v -0.917688 -0.917688 h -0.625681 c -0.455513,0 -0.633301,-0.0076 -0.653697,-0.02802 -0.02179,-0.02179 -0.03424,-0.02179 -0.05603,0 -0.02015,0.02015 -0.177432,0.02802 -0.560311,0.02802 h -0.532296 l -6.68e-4,0.799611 -6.67e-4,0.799611 -0.670539,0.997016 -0.6705389,0.997017 -0.2392996,0.001 c -0.1316148,5.72e-4 -0.2387423,0.0089 -0.2380613,0.01855 6.817e-4,0.0096 0.051777,0.09096 0.1135478,0.180728 l 0.1123097,0.163218 -0.1374964,0.204486 -0.1374965,0.204487 h 0.2792274 0.2792272 l 0.5851886,0.850838 0.585188,0.850839 v 0.946827 0.946826 h 1.225681 1.225681 v -0.829115 z"
     style="fill:currentColor;fill-opacity:1;stroke-width:0.0233463" 
     class="ColorScheme-Text"
    />
  <path
     id="path848"
     d="m 14.522557,15.321012 c 0.02285,-0.03531 0.07584,-0.115477 0.117749,-0.178146 l 0.0762,-0.113944 0.07754,0.110005 c 0.04265,0.0605 0.09696,0.140668 0.120692,0.178146 l 0.04315,0.06814 h -0.238441 -0.238441 z"
     style="fill:currentColor;fill-opacity:1;stroke-width:0.0233463" 
     class="ColorScheme-Text"
    />
  <path
     id="path850"
     d="m 12.058366,18.97013 c 0,-0.0092 0.348009,-0.523965 0.89149,-1.318586 l 0.18244,-0.266743 v 0.797872 0.797872 h -0.536965 c -0.295331,0 -0.536965,-0.0047 -0.536965,-0.01041 z"
     style="fill:currentColor;fill-opacity:1;stroke-width:0.0233463" 
     class="ColorScheme-Text"
    />
  <path
     id="path852"
     d="m 10.727627,18.066148 c 0,-0.502918 0.0042,-0.91002 0.0094,-0.904669 0.0052,0.0053 0.263888,0.377432 0.574897,0.826848 0.311009,0.449416 0.596561,0.856517 0.634559,0.904669 l 0.06909,0.08755 h -0.643985 -0.643985 z"
     style="fill:currentColor;fill-opacity:1;stroke-width:0.0233463" 
     class="ColorScheme-Text"
    />
  <path
     d="m 13.360693,19.082206 c 0.04962,-0.120231 0.0912,-0.243391 0.129429,-0.367625 0.06253,-0.121764 0.03087,-0.05191 -0.297786,0.158485 -0.0059,0.0038 -0.0011,0.01406 -0.002,0.02106 -0.0033,0.02833 -0.0093,0.04588 -0.025,0.06968 -0.03977,0.05748 -0.07967,0.11475 -0.127489,0.165955 -0.101527,0.08761 -0.0403,0.03275 0.25791,-0.149578 0.0025,-0.0015 -0.0056,0.0028 -0.0085,0.0023 -0.0017,-3.33e-4 -0.0022,-0.0028 -0.0025,-0.0044 -0.0024,-0.01257 -0.0034,-0.04267 -0.004,-0.05259 -0.0018,-0.07205 3.6e-4,-0.144126 0.002,-0.216159 0.0015,-0.05941 9.47e-4,-0.118838 10e-4,-0.178259 -0.0046,-0.06072 0.01986,-0.116932 0.03358,-0.174899 0.006,-0.04839 0.02341,-0.09331 0.03788,-0.139452 0.01366,-0.05207 0.02738,-0.104443 0.03757,-0.157373 0.01134,-0.05059 0.01039,-0.101067 0.0059,-0.152234 -0.0043,-0.04742 -0.0056,-0.09503 -0.0064,-0.14262 -6.8e-4,-0.04213 -4.84e-4,-0.08427 -4.63e-4,-0.126406 0.0045,-0.0419 -0.01604,-0.07883 -0.02711,-0.11828 -0.0021,-0.02228 -0.0265,-0.07194 -0.0027,-0.08786 0,0 -0.317501,0.145991 -0.317501,0.145991 v 0 c -0.0037,0.037 0.0043,0.07321 0.01419,0.108778 0.01078,0.03655 0.02715,0.07069 0.02235,0.109748 4.4e-5,0.04232 3.08e-4,0.08464 0.0011,0.126954 0.0013,0.04822 0.0031,0.09645 0.0073,0.144519 0.0036,0.04818 0.0012,0.09578 -0.0099,0.143046 -0.01171,0.05175 -0.02335,0.103714 -0.03945,0.154292 -0.01511,0.04648 -0.02795,0.0933 -0.03668,0.141461 -0.01543,0.0599 -0.0345,0.119247 -0.02932,0.182111 -1.44e-4,0.05933 -8.04e-4,0.118642 -0.0017,0.177961 -9.89e-4,0.07291 -0.0029,0.145868 -2.56e-4,0.218764 0.0019,0.02226 0.0022,0.04626 0.01074,0.0675 0.05491,0.136672 0.298283,-0.07123 0.37542,-0.158252 0.04581,-0.05472 0.08886,-0.11236 0.124283,-0.174386 0.01084,-0.02823 0.01814,-0.05355 0.0184,-0.0841 8.1e-5,-0.0094 0.0074,-0.03102 -0.0015,-0.02806 -0.312763,0.104228 -0.282054,0.02708 -0.323302,0.154978 -0.03624,0.123598 -0.0784,0.24554 -0.130672,0.363362 0,0 0.315163,-0.144309 0.315163,-0.144309 z"
     id="path854"
     style="fill:currentColor;fill-opacity:1;stroke:none"
      
    />
  <path
     d="m 13.241066,18.805543 c -0.139774,0.001 -0.279554,6.3e-4 -0.419328,1.46e-4 -0.06069,-3.64e-4 -0.121385,-3.48e-4 -0.182075,-8.33e-4 -0.612103,0.179802 -0.260866,0.208762 -0.16295,0.215886 0.08386,0.0061 0.167946,0.0089 0.25195,0.01211 0.11718,0.0059 0.235425,-0.0014 0.351185,-0.02073 0.219665,-0.18525 0.373863,-0.200251 0.203908,-0.227099 -0.08814,-0.01392 -0.177016,-0.01505 -0.265959,-0.01388 -0.12031,0.0034 -0.240591,0.0076 -0.360913,0.01053 -0.04277,0.002 -0.08595,-0.0023 -0.12783,0.008 -0.02372,0.0083 -0.04793,0.01275 -0.0729,0.01466 -0.03617,0.0028 -0.07222,-0.0031 -0.108154,-0.0067 -0.0053,-4.9e-4 -0.0107,-9.79e-4 -0.01605,-0.0015 0,0 -0.283994,0.202933 -0.283994,0.202933 v 0 c 0.0053,3.52e-4 0.01061,7.04e-4 0.01592,0.0011 0.037,0.003 0.0739,0.0086 0.11078,0.01071 0.0261,-5.01e-4 0.0526,8.3e-5 0.07773,-0.0081 0.01374,-0.0046 0.02903,-0.01235 0.04337,-0.01432 0.02644,-0.0036 0.05421,0.002 0.08067,-0.0018 0.120848,-0.0038 0.24166,-0.0086 0.362518,-0.01214 0.06719,-0.0015 0.132771,-0.0025 0.199798,0.0033 0.02044,0.0018 0.04085,0.0039 0.06124,0.0062 0.01564,0.0017 0.03303,0.01336 0.04685,0.0058 0.106086,-0.05784 0.202771,-0.131463 0.304156,-0.197195 -0.02559,0.02992 -0.0074,0.01567 -0.07016,0.0235 -0.09048,0.01128 -0.181471,0.02122 -0.272794,0.01517 -0.08354,-0.0026 -0.167069,-0.0052 -0.250462,-0.01102 -0.02356,-0.0016 -0.04923,-0.01588 -0.07062,-0.0058 -0.116925,0.05484 -0.223254,0.129909 -0.334332,0.195794 -0.0013,7.94e-4 0.0031,-1.69e-4 0.0047,-2.54e-4 0.06145,-4.81e-4 0.122912,-4.72e-4 0.184367,-8.33e-4 0.139641,-4.79e-4 0.279287,-8.64e-4 0.418927,1.46e-4 0,0 0.280474,-0.203776 0.280474,-0.203776 z"
     id="path856"
     style="fill:currentColor;fill-opacity:1;stroke:none"
      class="ColorScheme-Text"
    />
  <path
     d="m 11.988116,18.851459 c -0.110819,6.85e-4 -0.221346,-0.01 -0.332067,-0.0118 -0.02321,7.63e-4 -0.01304,4.58e-4 -0.0305,9.53e-4 0,0 -0.277623,0.212272 -0.277623,0.212272 v 0 c 0.0141,-0.0075 0.0054,-0.004 0.02708,-0.008 0.110487,-0.0073 0.221907,0.01127 0.332509,0.01043 0,0 0.280602,-0.20387 0.280602,-0.20387 z"
     id="path858"
     style="fill:currentColor;fill-opacity:1;stroke:none"
      class="ColorScheme-Text"
    />
  <path
     d="m 11.530706,18.941895 c 0.08375,0.09046 0.161031,0.186866 0.249362,0.272991 0.04497,0.04034 0.02346,0.02069 0.06461,0.05886 0,0 0.295374,-0.182625 0.295374,-0.182625 v 0 c -0.04159,-0.03824 -0.02003,-0.0189 -0.06476,-0.05795 -0.08873,-0.08395 -0.166476,-0.17853 -0.247361,-0.269872 0,0 -0.297221,0.178606 -0.297221,0.178606 z"
     id="path862"
     style="fill:currentColor;fill-opacity:1;stroke:none"
      class="ColorScheme-Text"
    />
  <path
     d="m 11.568815,18.82609 c -0.208899,0.0052 -0.417686,0.01758 -0.626682,0.01732 -0.137669,-0.0046 -0.273699,-0.02869 -0.40821,-0.05695 -0.128113,-0.0246 -0.141338,-0.05462 -0.263756,0.208909 -0.01546,0.03327 0.07179,0.01525 0.107932,0.02158 0.101232,0.01773 0.175206,0.02627 0.277421,0.03966 0.172797,0.01971 0.08852,0.01199 0.252772,0.02375 0,0 0.277651,-0.199035 0.277651,-0.199035 v 0 c -0.164195,-0.0092 -0.07991,-0.0024 -0.252786,-0.021 -0.105396,-0.01354 -0.170042,-0.02048 -0.27403,-0.03908 -0.03491,-0.0062 -0.07084,-0.03347 -0.104216,-0.02148 -0.123271,0.04429 -0.231677,0.122295 -0.347363,0.183728 -0.0027,0.0014 0.0056,-0.0025 0.0083,-0.0037 0.0112,0.0015 0.02239,0.0031 0.03359,0.0046 0.136725,0.02788 0.274463,0.05383 0.414063,0.06124 0.208626,0.0017 0.417004,-0.01453 0.625627,-0.01635 0,0 0.27966,-0.203185 0.27966,-0.203185 z"
     id="path866"
     style="fill:currentColor;fill-opacity:1;stroke:none"
      class="ColorScheme-Text"
    />
  <path
     d="m 10.900236,18.75972 c -0.0081,-0.13736 -0.02318,-0.274187 -0.03425,-0.411327 -0.0073,-0.07848 -0.0242,-0.157482 -0.04613,-0.233337 -0.0078,-0.02694 -0.0056,-0.01531 -0.0083,-0.03452 0,0 -0.307846,0.165051 -0.307846,0.165051 v 0 c 0.0057,0.02093 0.0023,0.0089 0.01061,0.03605 0.02104,0.07395 0.03764,0.150224 0.04417,0.226847 0.01305,0.136598 0.0296,0.273067 0.03379,0.410319 0,0 0.307959,-0.159089 0.307959,-0.159089 z"
     id="path868"
     style="fill:currentColor;fill-opacity:1;stroke:none"
      class="ColorScheme-Text"
    />
  <path
     d="m 11.154623,18.944529 c 0.07325,0.120789 0.145819,0.242203 0.223743,0.360064 0.0077,0.01204 0.01527,0.02416 0.02308,0.03613 0.04921,0.07541 -0.0031,-0.007 0.02684,0.04216 0.0016,0.0027 0.0026,0.0095 0.0052,0.0078 0.299176,-0.196525 0.354729,-0.106108 0.271274,-0.220158 0,0 -0.299722,0.177708 -0.299722,0.177708 v 0 c 0.08442,0.11149 0.01047,0.02643 0.328864,-0.136466 0.0017,-8.59e-4 -0.0029,-0.0025 -0.004,-0.004 -0.0098,-0.0139 -0.01925,-0.02807 -0.02882,-0.04213 -0.0082,-0.01197 -0.01592,-0.0242 -0.02389,-0.0363 -0.0791,-0.116006 -0.15299,-0.235777 -0.222417,-0.357788 0,0 -0.30022,0.172997 -0.30022,0.172997 z"
     id="path870"
     style="fill:currentColor;fill-opacity:1;stroke:none" 
      class="ColorScheme-Text"
    />
  <path
     d="m 12.150397,19.018283 c -0.03202,0.064 -0.06676,0.126613 -0.101016,0.189436 -0.0018,0.0033 -0.0419,0.07115 -0.04376,0.08682 -9.58e-4,0.0081 0.0051,0.01549 0.0077,0.02324 0.01091,0.0061 0.0214,0.02367 0.03275,0.01837 0.248137,-0.115856 0.334066,-0.174974 0.491665,-0.345218 0.0691,-0.07422 0.137447,-0.149243 0.203979,-0.225787 0,0 -0.318461,0.134429 -0.318461,0.134429 v 0 c -0.06671,0.07596 -0.134107,0.151401 -0.20406,0.2244 -0.04222,0.04396 -0.08383,0.0878 -0.132098,0.125278 -0.01141,0.0089 -0.04799,0.03205 -0.03522,0.02528 0.2786,-0.147517 0.28181,-0.253817 0.268589,-0.12306 0.04455,-0.09412 0.0999,-0.182945 0.145766,-0.276502 0,0 -0.315793,0.143303 -0.315793,0.143303 z"
     id="path872"
     style="fill:currentColor;fill-opacity:1;stroke:none"
      class="ColorScheme-Text"
    />
  <path
     d="m 10.952817,18.174802 c -0.07857,-0.124303 -0.17322,-0.235014 -0.279133,-0.336504 -0.01258,-0.01131 -0.02517,-0.02262 -0.03775,-0.03393 0,0 -0.294399,0.182914 -0.294399,0.182914 v 0 c 0.01256,0.01091 0.02512,0.02182 0.03768,0.03273 0.106092,0.09771 0.200097,0.205906 0.27454,0.33005 0,0 0.29906,-0.175258 0.29906,-0.175258 z"
     id="path874"
     style="fill:currentColor;fill-opacity:1;stroke:none"
      class="ColorScheme-Text"
    />
  <path
     d="m 10.977355,17.876891 c -0.06152,-0.120283 -0.124659,-0.239153 -0.195845,-0.354033 -0.02523,-0.03597 -0.05007,-0.07209 -0.0734,-0.109303 0,0 -0.300255,0.17505 -0.300255,0.17505 v 0 c 0.02373,0.03689 0.04884,0.07274 0.07459,0.108266 0.07146,0.114054 0.135905,0.231602 0.19431,0.35293 0,0 0.300606,-0.17291 0.300606,-0.17291 z"
     id="path876"
     style="fill:currentColor;fill-opacity:1;stroke:none"
      class="ColorScheme-Text"
    />
  <path
     d="m 10.879248,17.522624 c -0.05245,-0.08069 -0.09708,-0.165954 -0.144706,-0.249462 0,0 -0.299315,0.172815 -0.299315,0.172815 v 0 c 0.04855,0.08302 0.09407,0.167777 0.143906,0.250073 0,0 0.300115,-0.173426 0.300115,-0.173426 z"
     id="path880"
     style="fill:currentColor;fill-opacity:1;stroke:none"
      class="ColorScheme-Text"
    />
  <path
     d="m 10.760671,17.24047 c -0.01241,-0.01845 -0.02482,-0.0369 -0.03723,-0.05534 0,0 -0.298126,0.174418 -0.298126,0.174418 v 0 c 0.01213,0.01892 0.02427,0.03785 0.0364,0.05677 0,0 0.298959,-0.175844 0.298959,-0.175844 z"
     id="path882"
     style="fill:currentColor;fill-opacity:1;stroke:none"
      class="ColorScheme-Text"
    />
  <path
     d="m 9.528027,15.388509 c -0.09978,-0.08338 -0.1938007,-0.173964 -0.2838108,-0.267762 0,0 -0.2945924,0.179768 -0.2945924,0.179768 v 0 c 0.091241,0.09438 0.1870929,0.184546 0.2847264,0.272269 0,0 0.2936768,-0.184275 0.2936768,-0.184275 z"
     id="path884"
     style="fill:currentColor;fill-opacity:1;stroke:none"
      class="ColorScheme-Text"
    />
  <path
     d="m 9.3595434,15.106904 c -0.046043,-0.08004 -0.022513,-0.0391 -0.070587,-0.122828 0,0 -0.2987938,0.172302 -0.2987938,0.172302 v 0 c 0.047603,0.084 0.02456,0.04259 0.069198,0.124191 0,0 0.3001822,-0.173665 0.3001828,-0.173665 z"
     id="path886"
     style="fill:currentColor;fill-opacity:1;stroke:none"
      class="ColorScheme-Text"
    />
  <path
     d="M 9.3309191,15.518313 C 9.2395514,15.385251 9.1372389,15.26015 9.046192,15.126915 8.9420328,14.970428 8.9637561,14.992499 8.7164163,15.279086 c -0.013572,0.01573 0.019892,0.03648 0.030017,0.05461 0.010785,0.01932 0.021808,0.0385 0.032713,0.05775 0.054756,0.08407 0.1062318,0.172123 0.1729656,0.247572 0.0881,0.09721 0.033413,0.0445 0.2861473,-0.208288 0.00955,-0.0096 -0.014845,-0.02258 -0.022267,-0.03387 0,0 -0.2998707,0.175386 -0.2998707,0.175386 v 0 c 0.00688,0.01055 0.00889,0.03616 0.020654,0.03166 0.323661,-0.123851 0.2764619,-0.270372 0.3128933,-0.146894 -0.072642,-0.0652 -0.1146324,-0.16003 -0.1711495,-0.237976 -0.010709,-0.01914 -0.021616,-0.03816 -0.032127,-0.05741 -0.00966,-0.01768 -0.0088,-0.05815 -0.028369,-0.05336 -0.1119487,0.02743 -0.2106454,0.0937 -0.317051,0.138 -0.00213,8.87e-4 -8.47e-5,-0.0081 0.00172,-0.0067 0.02021,0.01607 0.025207,0.04753 0.045642,0.06259 0.092643,0.131998 0.1960005,0.256249 0.2838036,0.391733 0,0 0.2987807,-0.175583 0.2987807,-0.175583 z"
     id="path888"
     style="fill:currentColor;fill-opacity:1;stroke:none"
      class="ColorScheme-Text"
    />
  <path
     d="m 15.013977,15.422155 c 0.08752,-0.111761 0.172497,-0.225031 0.254046,-0.341211 0.0163,-0.02742 0.06178,-0.07264 0.01474,-0.09975 -0.0092,-0.0053 -0.02234,-0.0082 -0.03172,-0.0032 -0.293907,0.156662 -0.240841,0.105315 -0.348064,0.218812 -0.05872,0.06923 -0.117311,0.138391 -0.179416,0.204709 -0.0497,0.05394 -0.102713,0.10441 -0.157511,0.153052 -0.201926,0.113807 0.392783,-0.205395 0.199683,-0.121053 -0.01518,-0.03337 0.01208,-0.07389 0.02543,-0.103799 0.01362,-0.02009 0.03323,-0.03537 0.05228,-0.05012 0.0036,-0.0028 0.01229,-0.0047 0.01057,-0.009 -0.0058,-0.0144 -0.01927,-0.02435 -0.0289,-0.03653 -0.01007,4.89e-4 -0.02028,-2.79e-4 -0.03022,0.0015 -0.0098,0.0017 -0.05811,0.01656 -0.06762,0.02194 -0.106874,0.06048 -0.381267,0.126476 -0.297938,0.216675 0.0082,0.0089 0.02077,0.01245 0.03115,0.01868 0.06448,0.01753 0.130016,0.02111 0.193919,0.0011 0.124005,-0.06703 0.283411,-0.105054 0.354602,-0.232407 0.02217,-0.03967 -0.01079,0.01022 0.01798,-0.0315 0.03241,-0.04649 0.05046,-0.100255 0.07538,-0.150498 0.02027,-0.0428 0.03234,-0.0656 -0.0056,-0.09926 -0.138655,-0.0077 -0.297101,0.141781 -0.393968,0.255472 -0.113668,0.116189 -0.133154,0.108614 0.294577,-0.116815 0.0081,-0.0043 0.0092,-0.0159 0.0138,-0.02385 0.02018,-0.03615 0.03907,-0.0755 0.06644,-0.106957 0.09062,-0.09371 0.02596,-0.02605 -0.336044,0.162382 -0.01685,0.0088 -0.0255,0.02836 -0.04015,0.04046 -0.01738,0.01435 -0.02318,0.0159 -0.04283,0.02572 0.09296,-0.05404 0.185925,-0.108082 0.278887,-0.162122 -0.0036,0.0055 -0.03449,0.01055 -0.03505,0.0204 -2.69e-4,0.0047 0.01239,0.01648 0.01368,0.01785 0.0029,5.04e-4 0.0061,0.0029 0.0087,0.0015 0.0048,-0.0026 0.03688,-0.05556 0.04246,-0.06404 0.0091,-0.01852 0.004,-0.01016 0.0151,-0.02534 0,0 -0.319715,0.140443 -0.319715,0.140443 v 0 c -0.0095,0.01671 -0.0044,0.0085 -0.01523,0.02462 -0.0091,0.01311 -0.03931,0.05031 -0.04353,0.06299 -0.0016,0.0048 -8.23e-4,0.01 -0.0012,0.015 0.01558,0.04168 0.02397,0.04558 0.06219,0.0238 0.106146,-0.06048 0.212442,-0.120705 0.318663,-0.181058 0.130707,-0.09875 0.15602,-0.236987 -0.226411,0.03612 -0.0219,0.03613 -0.04444,0.07184 -0.06435,0.109141 -0.0945,0.147863 0.269087,-0.04702 0.331525,-0.135046 0.01623,-0.01643 0.03144,-0.03419 0.04828,-0.04999 0.0048,-0.0045 0.021,-0.01601 0.0152,-0.01281 -0.279729,0.154175 -0.331165,0.252884 -0.273791,0.147801 -0.0021,-0.01105 -0.0035,-0.02011 -0.0052,-0.02007 -0.0048,1.14e-4 -0.0146,0.05797 -0.0232,0.05799 -0.0224,0.05074 -0.04617,0.100748 -0.07776,0.146596 -0.06961,0.117648 -0.277454,0.187042 0.220202,-0.09211 -0.05746,0.03008 -0.115831,0.03159 -0.179162,0.01894 -0.0055,9.01e-4 -0.01108,0.0018 -0.01663,0.0027 0.0016,0.0041 0.0087,0.01 0.0049,0.01232 -0.486851,0.301953 -0.328636,0.169867 -0.197095,0.12395 -0.0032,-0.01143 -0.0022,-0.02496 -0.0096,-0.03428 -6.78e-4,-8.63e-4 -0.01004,0.0086 -0.02252,0.0221 -0.0141,0.01529 -0.02614,0.03142 -0.0335,0.05118 -0.02043,0.04955 -0.03376,0.102638 -4.19e-4,0.150243 0.01732,0.01391 0.03346,0.02284 0.05612,0.01029 0.103918,-0.05757 0.253097,-0.125508 0.358302,-0.213054 0.05336,-0.05016 0.106283,-0.100713 0.155259,-0.155262 0.06125,-0.06686 0.117735,-0.1379 0.180726,-0.203084 0.110635,-0.0964 -0.01043,0.01226 -0.246384,0.130174 -0.0077,0.0038 0.0079,-0.01524 0.01186,-0.02287 -4.66e-4,-0.0053 0.0036,-0.01795 -0.0014,-0.016 -0.007,0.0027 -0.0058,0.01386 -0.0096,0.0203 -0.0087,0.01463 -0.01854,0.02853 -0.02781,0.04279 -0.0815,0.116547 -0.168715,0.228519 -0.255195,0.341379 0,0 0.318116,-0.13798 0.318116,-0.13798 z"
     id="path890"
     style="fill:currentColor;fill-opacity:1;stroke:none"
      class="ColorScheme-Text"
    />
  <path
     d="m 14.202665,13.884445 c -0.05048,-0.110671 -0.106308,-0.218774 -0.158615,-0.328568 -0.01755,-0.03627 -0.04249,-0.06861 -0.06179,-0.1038 -0.0019,-0.0035 -0.007,-0.01358 -0.0037,-0.01132 0.0066,0.0046 0.02133,0.01424 0.01486,0.01901 -0.08932,0.06572 -0.187692,0.118149 -0.281538,0.177223 0.07054,0.05796 0.122252,0.133803 0.174065,0.207988 0.01582,0.03383 0.04808,0.0629 0.05644,0.100012 -0.0032,0.02807 0.0047,0.05508 0.0086,0.08294 0.01021,0.0492 0.02472,0.09649 0.04305,0.143159 0.01552,0.04314 0.0329,0.08604 0.05341,0.127065 0.01377,0.03163 0.03464,0.0584 0.05978,0.08161 0.02057,0.0183 0.04352,0.03371 0.06917,0.04373 0.04214,0.0054 0.06827,0.02375 0.09868,0.05246 0.139711,0.157857 0.05002,0.103927 0.350346,-0.135051 -0.02501,-0.04268 -0.05911,-0.0771 -0.100236,-0.103915 -0.03819,-0.02941 -0.07265,-0.0638 -0.106618,-0.09796 -0.03895,-0.04088 -0.06284,-0.09225 -0.08719,-0.142442 -0.02051,-0.04681 -0.04354,-0.0925 -0.06611,-0.138362 -0.02914,-0.04473 -0.06104,-0.08718 -0.08962,-0.132299 -0.04803,-0.07939 -0.09554,-0.159118 -0.154311,-0.231117 -0.04042,-0.04635 -0.09172,-0.07864 -0.145099,-0.107708 -0.04313,-0.02316 -0.07564,-0.05594 -0.100631,-0.09757 -0.01617,-0.0397 -0.0362,-0.07746 -0.05459,-0.116099 -0.01376,-0.02788 -0.0329,-0.0518 -0.0536,-0.07474 -0.0201,-0.02844 -0.04503,-0.05322 -0.06163,-0.08395 -0.02072,-0.04154 -0.03147,-0.08701 -0.04927,-0.129568 -0.0023,-0.0056 -0.0047,-0.01121 -0.007,-0.01682 0,0 -0.304358,0.170574 -0.304358,0.170574 v 0 c 0.0023,0.0056 0.0047,0.01111 0.007,0.01666 0.01788,0.04386 0.03023,0.09001 0.05106,0.13279 0.01809,0.03314 0.04366,0.06025 0.06556,0.09088 0.01825,0.02087 0.03656,0.04122 0.04875,0.06645 0.01935,0.03933 0.0393,0.07823 0.05667,0.118526 0.02824,0.04698 0.0635,0.08534 0.110556,0.114114 0.05092,0.02474 0.09949,0.05344 0.138584,0.09522 0.05876,0.07004 0.106103,0.148095 0.152057,0.226955 0.02714,0.04473 0.05702,0.08702 0.08687,0.12993 0.02248,0.04586 0.04579,0.09132 0.06634,0.138082 0.02611,0.05351 0.05219,0.108059 0.09306,0.152181 0.03535,0.036 0.07153,0.07151 0.10964,0.104542 0.0365,0.02456 0.07134,0.04873 0.09286,0.08932 0.103251,-0.053 0.204833,-0.10938 0.309753,-0.15899 0.0034,-0.0016 0.0064,0.0082 0.0037,0.01079 -0.0023,0.0022 -0.06191,-0.06718 -0.06612,-0.0725 -0.03053,-0.03093 -0.06052,-0.06529 -0.106981,-0.06774 -0.02332,-0.0036 -0.04167,-0.01541 -0.06015,-0.02979 -0.02194,-0.02084 -0.04267,-0.04152 -0.05386,-0.07079 -0.02014,-0.04006 -0.03679,-0.08204 -0.05209,-0.124162 -0.01727,-0.04413 -0.03056,-0.0893 -0.03911,-0.136015 -0.0041,-0.0295 -0.006,-0.05896 -0.01061,-0.08823 -0.01439,-0.03965 -0.04214,-0.07268 -0.06348,-0.108692 -0.0549,-0.07655 -0.109025,-0.154795 -0.179827,-0.217826 -0.387149,0.156317 -0.389138,0.05871 -0.263011,0.276354 0.05292,0.109419 0.111245,0.216312 0.158523,0.328406 0,0 0.301732,-0.170945 0.301732,-0.170945 z"
     id="path898"
     style="fill:currentColor;fill-opacity:1;stroke:none"
      class="ColorScheme-Text"
    />
  <path
     d="m 10.429411,12.782599 c 0.0069,0.112157 0.01101,0.224464 0.0145,0.336773 2.38e-4,0.0039 -0.0027,0.01347 7.13e-4,0.0116 0.341334,-0.187321 0.311121,-0.08279 0.31175,-0.292621 -0.005,-0.04236 0.0092,-0.07594 0.02907,-0.11225 0.0084,-0.01234 0.01425,-0.02204 0.02942,-0.02299 -0.101907,0.05757 -0.207534,0.109015 -0.305722,0.172725 -0.0065,0.0042 0.0031,0.01528 0.0041,0.02301 10e-4,0.0081 0.0013,0.01618 0.002,0.02427 2.6e-4,0.03776 0.0025,0.07609 -0.0022,0.11369 -0.0044,0.03156 -0.02243,0.06069 -0.03864,0.08772 -0.02807,0.05317 -0.06035,0.104062 -0.08834,0.157276 -0.03228,0.05176 -0.06743,0.102723 -0.109439,0.147072 -0.0519,0.05292 -0.106087,0.103207 -0.162906,0.15075 -0.04064,0.03546 -0.07729,0.07526 -0.1184354,0.110088 -0.048185,0.05808 -0.093624,0.118682 -0.1346427,0.182118 -0.038795,0.05425 -0.071608,0.11224 -0.1047917,0.169946 -0.026994,0.06204 -0.056325,0.12299 -0.083189,0.185077 -0.017861,0.03984 -0.042712,0.07591 -0.077541,0.102761 0.054587,-0.03626 -0.1071921,0.05975 -0.055189,0.02972 0.4879038,-0.281736 0.3432294,-0.198784 0.238568,-0.139376 -0.1171542,0.06802 -0.2825721,0.111892 -0.3538876,0.23947 -0.00421,0.0075 -0.012573,0.01471 -0.011407,0.02326 0.00477,0.03503 0.031024,0.03206 0.056632,0.03826 0.1930612,-0.07072 0.3792563,-0.189511 0.5345554,-0.327789 0.0037,-0.0027 0.01528,-0.0098 0.01109,-0.008 -0.2430767,0.104011 -0.286549,0.09381 -0.42293,0.215761 -0.032497,0.02452 -0.051738,0.06047 -0.077996,0.09014 -0.028694,0.02908 -0.061093,0.05369 -0.085877,0.0865 -0.017751,0.01908 -0.019406,0.04687 -0.032397,0.06796 0,0 0.3179781,-0.145685 0.3179781,-0.145685 v 0 c 0.00682,-0.02203 0.020947,-0.04084 0.035802,-0.05818 0.028702,-0.02892 0.06009,-0.05527 0.085252,-0.08749 0.023154,-0.03143 0.050057,-0.05955 0.080313,-0.0843 0.01889,-0.01572 0.037802,-0.03146 0.056493,-0.04741 0.00739,-0.0063 0.031149,-0.02224 0.021927,-0.01919 -0.2854915,0.09443 -0.2235823,0.04081 -0.3123017,0.120739 -0.031049,0.02589 -0.062767,0.05092 -0.095737,0.07436 -0.016163,0.01149 -0.066584,0.04294 -0.049112,0.03357 0.071378,-0.0383 0.3595606,-0.201399 0.2110778,-0.120432 -0.00591,0.0063 -0.013468,0.01135 -0.01774,0.01885 -0.00171,0.003 -0.00173,0.0122 0.00114,0.01028 0.00647,-0.0043 0.00806,-0.01334 0.012737,-0.01955 0.070399,-0.09359 0.2945728,-0.17487 -0.2364738,0.118141 0.1370978,-0.07999 0.28534,-0.144406 0.4100173,-0.242256 0.030113,-0.03466 0.055006,-0.07173 0.071273,-0.11508 0.02734,-0.061 0.054119,-0.12233 0.084724,-0.18178 0.03256,-0.05728 0.06792,-0.112898 0.104944,-0.167395 0.04216,-0.06124 0.08575,-0.122989 0.139478,-0.174683 0.03877,-0.03686 0.07764,-0.07354 0.117864,-0.108863 0.05641,-0.04882 0.110531,-0.100434 0.161007,-0.155397 0.03962,-0.04843 0.07705,-0.09915 0.106814,-0.154339 0.02962,-0.05229 0.05966,-0.104351 0.08823,-0.157224 0.01596,-0.03207 0.03316,-0.06546 0.03362,-0.102148 3.16e-4,-0.03949 0.0019,-0.07907 -0.0017,-0.118472 -3.4e-5,-2.58e-4 -0.0065,-0.05618 -0.01028,-0.05508 -0.247597,0.0725 -0.28026,0.03385 -0.345502,0.163782 -0.01737,0.0412 -0.02684,0.08103 -0.02214,0.1262 3.7e-4,0.196626 -0.04901,0.141823 0.308621,-0.0269 0.003,-0.0014 -7.83e-4,-0.0065 -0.0012,-0.0098 -0.0074,-0.111905 -0.01084,-0.224069 -0.01582,-0.336097 0,0 -0.308157,0.158902 -0.308157,0.158902 z"
     id="path902"
     style="fill:currentColor;fill-opacity:1;stroke:none"
      class="ColorScheme-Text"
    />
</svg>
