<?xml version="1.0" encoding="UTF-8" standalone="no"?>
<svg
   xmlns:dc="http://purl.org/dc/elements/1.1/"
   xmlns:cc="http://creativecommons.org/ns#"
   xmlns:rdf="http://www.w3.org/1999/02/22-rdf-syntax-ns#"
   xmlns:svg="http://www.w3.org/2000/svg"
   xmlns="http://www.w3.org/2000/svg"
   xmlns:sodipodi="http://sodipodi.sourceforge.net/DTD/sodipodi-0.dtd"
   xmlns:inkscape="http://www.inkscape.org/namespaces/inkscape"
   inkscape:version="1.0 (4035a4fb49, 2020-05-01)"
   sodipodi:docname="printer-error-symbolic.svg"
   id="svg14"
   version="1.1"
   viewBox="0 0 24 24">
  <metadata
     id="metadata20">
    <rdf:RDF>
      <cc:Work
         rdf:about="">
        <dc:format>image/svg+xml</dc:format>
        <dc:type
           rdf:resource="http://purl.org/dc/dcmitype/StillImage" />
        <dc:title />
      </cc:Work>
    </rdf:RDF>
  </metadata>
  <defs
     id="defs18" />
  <sodipodi:namedview
     inkscape:snap-text-baseline="false"
     inkscape:current-layer="svg14"
     inkscape:window-maximized="0"
     inkscape:window-y="33"
     inkscape:window-x="0"
     inkscape:cy="11.826573"
     inkscape:cx="7.5258302"
     inkscape:zoom="42.083333"
     showgrid="false"
     id="namedview16"
     inkscape:window-height="1292"
     inkscape:window-width="2199"
     inkscape:pageshadow="2"
     inkscape:pageopacity="0"
     guidetolerance="10"
     gridtolerance="10"
     objecttolerance="10"
     borderopacity="1"
     bordercolor="#666666"
     pagecolor="#ffffff"
     inkscape:document-rotation="0" />
  <g
     id="g6"
     transform="translate(0 1)"
     fill-rule="evenodd">
    <path
       id="path2"
       fill-opacity=".94"
       fill="#781413"
       d="m8 1h8c2 0 2-.2 2 2v8c0 2 0 2-2 2h-8c-2 0-2 0-2-2v-8c0-2 0-2 2-2z" />
    <path
       id="path4"
       fill="#ff0400"
       d="m4 7h16c2 0 2 0 2 2v6c0 2 0 2-2 2h-16c-2 0-2 0-2-2v-6c0-2 0-2 2-2z" />
  </g>
  <path
     id="path8"
     transform="translate(0 1)"
     fill="#dc322f"
     d="m6 11h12v10h-12z" />
  <path
     id="path10"
     fill="#0a0a0a"
     d="m11 13h2v5h-2z" />
  <path
     id="path12"
     fill="#0a0a0a"
     d="m9 17h6l-3 4z" />
  <path
     id="path40"
     d="m 10.50745,18.991049 -1.4806693,-1.977188 0.9875993,-0.0062 0.9876,-0.0062 V 15.00568 13.009901 H 12 12.99802 v 1.995779 1.995779 l 0.9876,0.0062 0.987599,0.0062 -1.480669,1.977188 c -0.814368,1.087455 -1.486015,1.97719 -1.49255,1.97719 -0.0065,0 -0.678182,-0.889735 -1.49255,-1.977188 z"
     style="fill:#dc322f;fill-opacity:1;stroke-width:0.0237624" />
  <path
     d="m 10.933765,13.11783 c -0.02292,0.139336 -0.05131,0.277622 -0.07218,0.417326 -0.01681,0.09711 -0.0308,0.194324 -0.03617,0.29274 -0.0098,0.09202 -0.01811,0.184238 -0.0242,0.276585 -0.0058,0.08961 -0.0023,0.179508 -0.002,0.269236 -0.0033,0.107865 -0.01485,0.215222 -0.02135,0.322893 -0.0032,0.116493 -0.0023,0.233065 -0.0023,0.349593 6.99e-4,0.149968 4.26e-4,0.299938 6e-6,0.449907 -5.54e-4,0.13979 1.31e-4,0.279578 6.87e-4,0.419366 0.0019,0.185303 0.0014,0.370614 -3.87e-4,0.555914 -8.78e-4,0.09268 -0.0015,0.185362 -0.0021,0.278043 -0.0044,0.06168 0.0045,0.122175 0.01199,0.183162 0.0074,0.06602 0.02136,0.13113 0.03632,0.195805 0.0022,-0.01063 0.005,0.05075 0.01781,0.04239 0.1115,-0.07255 0.235506,-0.134024 0.323311,-0.233956 0.03766,-0.04286 0.02195,-0.112031 0.03028,-0.168479 0.04889,-0.331182 0.04527,-0.372796 0.07523,-0.741156 0.03073,-0.854341 -0.02392,-1.708971 -0.09979,-2.559602 -0.01117,-0.14032 -0.02956,-0.279987 -0.04213,-0.420167 -0.0029,-0.03198 -0.01027,-0.07543 -6.48e-4,-0.107913 0.114353,0.06188 -3.39e-4,-0.0053 -0.279623,0.17773 -0.0068,0.0045 0.01586,0.0041 0.02357,0.0068 0.03407,0.0121 0.06692,0.02525 0.101697,0.03561 0.08265,0.02003 0.165936,0.03711 0.249159,0.05453 0.0886,0.01783 0.178973,0.02389 0.268768,0.03282 0.155484,0.01072 0.310793,0.02374 0.466287,0.03434 0.22928,0.0073 0.458829,-0.01517 0.687804,-0.02722 0.142988,-0.01037 0.286533,-0.0093 0.4296,-0.01726 0.144213,-0.01754 0.124812,-0.01069 0.345647,-0.191553 0.01373,-0.01124 -0.01993,-0.02996 -0.03356,-0.04131 -0.0421,-0.03503 -0.121467,-0.05134 -0.172419,-0.06557 -0.182864,-0.0543 -0.373281,-0.0645 -0.562281,-0.07869 -0.280694,-0.01803 -0.561329,-0.03719 -0.842232,-0.05171 -0.19781,-0.009 -0.172751,-0.03786 -0.380498,0.19998 -0.015,0.01717 0.04559,-0.0017 0.06839,-0.0013 0.03335,6.36e-4 0.06665,0.003 0.09997,0.0045 0.04775,0.0051 0.09569,0.0087 0.143262,0.0153 0.121153,0.01679 0.320418,0.05394 0.43471,0.07578 0.23446,0.04481 0.468389,0.09243 0.702831,0.137371 0.140716,0.02623 0.281365,0.05284 0.421933,0.07984 0.01493,0.0029 0.135086,0.02592 0.158311,0.03474 0.01113,0.0042 0.01958,0.01357 0.02937,0.02035 -0.0067,0.0063 -0.01276,0.01348 -0.02014,0.01905 -0.05328,0.04019 -0.226422,0.141356 -0.169175,0.107059 0.05341,-0.032 0.114234,-0.05397 0.160315,-0.09584 0.03953,-0.03591 -0.09332,0.05196 -0.140195,0.07756 -0.0433,0.02364 -0.08689,0.04676 -0.130331,0.07015 -0.191464,0.104051 -0.23918,0.128372 -0.48839,0.282365 -0.04878,0.03015 -0.10373,0.0785 -0.110807,0.139489 -0.0022,0.01921 0.0019,0.03863 0.0029,0.05794 0.051,0.24082 0.08329,0.484444 0.106463,0.729324 0.02304,0.279839 0.04181,0.55983 0.04342,0.840672 -0.0068,0.249952 -0.02977,0.498948 -0.05005,0.748037 -0.01796,0.159924 -0.01421,0.320353 -0.0083,0.480739 0.0063,0.145311 0.0332,0.28709 0.06779,0.427897 0.01548,0.04003 0.03718,0.167627 0.0758,0.193142 0.01035,0.0068 0.02485,0.01612 0.03579,0.01026 0.117362,-0.06293 0.226051,-0.140847 0.339076,-0.21127 0.05433,-0.07833 0.11227,-0.155561 0.152968,-0.242286 0.02403,-0.05121 0.02909,-0.07349 0.04576,-0.126721 0.02909,-0.103759 0.02298,-0.212419 0.01844,-0.318867 -0.01972,-0.126694 -0.02774,-0.254483 -0.03306,-0.382456 -0.0056,-0.153657 -0.0036,-0.307433 -0.01,-0.461049 -0.01177,-0.205049 -0.02372,-0.410253 -0.03999,-0.615014 -0.01396,-0.17906 -0.022,-0.358449 -0.03399,-0.537637 -0.01631,-0.175193 -0.02927,-0.350991 -0.05443,-0.525201 -0.01785,-0.08955 -0.02672,-0.179821 -0.03082,-0.270896 -0.0032,-0.102234 -0.0022,-0.204534 -0.002,-0.306801 -0.0025,-0.06074 -0.01178,-0.12092 -0.0196,-0.181124 -0.005,-0.03851 -0.0032,-0.07646 -0.0257,-0.108432 -0.105967,0.07087 -0.222446,0.128114 -0.317901,0.212612 -0.02031,0.01798 -0.0084,0.05359 -0.01301,0.08032 -0.0068,0.03933 -0.01443,0.07851 -0.02136,0.117821 -0.03574,0.202865 -0.05762,0.406425 -0.07987,0.611168 -0.03069,0.360357 -0.07255,0.720889 -0.07986,1.082771 0.0028,0.189013 0.04669,0.374231 0.08772,0.557858 0.03456,0.132776 0.06989,0.265327 0.103895,0.398246 0.04219,0.172476 0.08422,0.344902 0.11516,0.519791 0.02738,0.132418 0.04459,0.266437 0.05333,0.401287 0.01163,0.09607 0.01915,0.192475 0.02376,0.289111 3.3e-4,0.0043 -0.0028,0.01501 9.91e-4,0.01297 0.106021,-0.05658 0.214871,-0.109779 0.312284,-0.180153 0.01148,-0.0083 -0.0033,-0.02814 -0.0044,-0.04226 -0.0021,-0.02557 -0.0033,-0.0512 -0.0052,-0.07678 -0.007,-0.09222 -0.01822,-0.221054 -0.02569,-0.308837 -0.04769,-0.518033 -0.07844,-1.037449 -0.100187,-1.557164 -0.01079,-0.233665 -0.02646,-0.467104 -0.03346,-0.700934 -0.07024,-0.12884 -0.06066,-0.128876 -0.305139,0.228454 -0.02822,0.04125 0.01255,0.09917 0.0192,0.148709 0.03181,0.236851 0.06055,0.473212 0.08483,0.710986 0.05402,0.514364 0.05067,1.031646 0.02756,1.547546 -2.9e-5,0.110701 -0.0199,0.220568 -0.02104,0.331192 -2.59e-4,0.02493 2.04e-4,0.07811 0.03073,0.06434 0.118964,-0.05365 0.228005,-0.127033 0.342007,-0.190549 0.07511,-0.07888 0.154437,-0.153695 0.223693,-0.238018 0.03672,-0.04471 0.07084,-0.09148 0.106668,-0.136911 0.05722,-0.07207 0.107392,-0.161762 0.194621,-0.200847 -0.452525,0.252887 -0.337124,0.153769 -0.197299,0.154292 0.0684,2.56e-4 0.136658,0.0069 0.204773,0.01233 0.156062,0.01216 0.312444,0.01997 0.468864,0.02568 0.102569,0.0043 0.204708,0.01228 0.305737,0.03067 0.04203,0.01149 0.08625,0.01131 0.12833,0.02175 0.02665,0.0093 0.0505,0.02578 0.06791,0.04824 0.0036,0.0046 0.01474,0.0129 0.0092,0.01488 -0.0079,0.0029 -0.01551,-0.0066 -0.02326,-0.0098 0.0792,-0.05697 0.188516,-0.08659 0.237614,-0.170899 0.0227,-0.03898 -0.09017,-0.0031 -0.135249,-0.0049 -0.252939,-0.01011 -0.505786,-0.02262 -0.758644,-0.03455 -0.179972,-0.0055 -0.359484,-0.01606 -0.538679,-0.03335 -0.02991,-0.0043 -0.06051,-0.0037 -0.09029,-0.0091 -0.0058,-0.0011 -0.01157,-0.0024 -0.01717,-0.0043 -0.0035,-0.0011 -0.0082,-0.0078 -0.01001,-0.0046 -0.0019,0.0032 0.0056,0.005 0.0084,0.0075 -0.09169,0.06116 -0.194937,0.107818 -0.275074,0.18349 -0.02107,0.0199 0.05777,-0.0055 0.08675,-0.0057 0.06041,-2.88e-4 0.120792,0.0025 0.181169,0.0044 0.246194,0.0078 0.492261,0.01972 0.738315,0.03095 0.213863,0.01116 0.429847,0.01154 0.639333,0.06142 0.08651,0.0206 0.147414,0.04232 0.230842,0.06966 0.0281,0.01042 0.05692,0.01906 0.08429,0.03125 0.12558,0.05592 -0.03703,0.211129 0.282119,-0.170519 0.02261,-0.02703 -0.06955,0.01193 -0.104662,0.01496 -0.08189,0.0071 -0.226692,0.0083 -0.307282,0.0098 -0.116487,-2.37e-4 -0.23351,-9.84e-4 -0.348887,-0.01904 -0.0188,-0.0029 -0.07406,-0.01244 -0.07577,-0.02136 -0.0013,-0.0067 0.01296,0.0045 0.01945,0.0067 0.135825,-0.0278 0.01313,-0.0065 -0.228742,0.148687 -0.01286,0.0083 0.02867,-0.01064 0.04324,-0.01525 0.01399,-0.0044 0.0281,-0.0086 0.04241,-0.01186 0.04743,-0.0109 0.06384,-0.0113 0.113428,-0.01702 0.06014,3.28e-4 0.206031,-0.02674 0.257035,0.0093 -0.02633,0.04126 -0.05828,0.07825 -0.08794,0.117043 -0.04028,0.05953 -0.08466,0.115468 -0.12322,0.176094 -0.04291,0.05694 -0.08315,0.115282 -0.129153,0.169969 -0.08061,0.104458 -0.180024,0.190648 -0.281576,0.27379 -0.09799,0.07545 -0.181026,0.166329 -0.265913,0.255446 0.04951,-0.01386 -0.08438,0.0608 -0.06085,0.04944 0.109574,-0.05287 0.220392,-0.103525 0.326974,-0.162197 0.01486,-0.0082 0.02321,-0.02475 0.03493,-0.03702 0.114525,-0.120015 -0.0039,0.0057 0.133626,-0.141098 0.15912,-0.164467 0.311175,-0.335258 0.449234,-0.517805 0.03841,-0.04795 0.07174,-0.09935 0.104534,-0.15115 0.0071,-0.01129 0.01428,-0.02259 0.02169,-0.03371 0.0052,-0.0078 0.01614,-0.01375 0.01624,-0.02318 1.08e-4,-0.01057 -0.01048,-0.01837 -0.01572,-0.02755 -0.187414,0.005 -0.0617,-0.0064 -0.414717,0.210815 -0.02917,0.01795 -0.05434,0.04175 -0.08035,0.06403 -0.09349,0.08009 -0.175204,0.170366 -0.257814,0.261277 -0.05933,0.06487 -0.11034,0.136441 -0.163197,0.206466 -0.0096,0.01278 -0.04387,0.04446 -0.02915,0.03816 0.341527,-0.146101 0.275206,-0.08264 0.403568,-0.243663 0.02601,-0.0331 0.05168,-0.06646 0.07802,-0.09931 0.09685,-0.120769 0.09644,-0.114877 0.192497,-0.23967 0.07887,-0.102462 0.154858,-0.20687 0.234998,-0.308374 -0.09815,0.04141 0.118769,-0.106223 0.0834,-0.08712 -0.100617,0.05436 -0.199752,0.111501 -0.297739,0.170468 -0.0081,0.0049 -0.0153,0.01211 -0.01963,0.02052 -0.01319,0.0256 -0.02049,0.05386 -0.03224,0.08015 -0.017,0.03801 -0.03598,0.07511 -0.05397,0.112664 -0.126476,0.229234 -0.278168,0.445282 -0.452394,0.64073 -0.09022,0.105305 -0.18823,0.203408 -0.269989,0.315629 -0.06066,0.09382 -0.125471,0.184848 -0.187262,0.277884 -0.05566,0.07948 -0.114719,0.156726 -0.168178,0.237712 -0.06846,0.108263 -0.138826,0.215488 -0.213459,0.319665 -0.154639,0.21517 -0.327545,0.416192 -0.509681,0.608306 -0.01824,0.01781 -0.0775,0.06489 -0.05473,0.05343 0.08975,-0.04519 0.172501,-0.10313 0.258071,-0.155811 9.67e-4,-5.96e-4 2.12e-4,-0.0023 4.92e-4,-0.0034 0.0056,-0.02188 0.01031,-0.044 0.01702,-0.06555 0.04208,-0.135099 0.04107,-0.119534 0.106364,-0.259656 0.100039,-0.193815 0.220037,-0.381533 0.371624,-0.539721 0.07395,-0.07717 0.11296,-0.103077 0.195205,-0.167167 0.102865,-0.07202 0.07121,-0.05298 0.175424,-0.11424 0.02537,-0.01491 0.101796,-0.05911 0.07657,-0.04395 -0.07814,0.04695 -0.158202,0.09072 -0.235319,0.139329 -0.0078,0.0049 0.0358,-0.007 0.02659,-0.0078 -0.01376,-0.0011 -0.02726,0.0044 -0.04089,0.0066 -0.213224,0.207944 -0.452023,0.386914 -0.685848,0.57057 -0.148635,0.105426 -0.271166,0.237538 -0.375039,0.386161 -0.05761,0.08769 -0.116712,0.175211 -0.159308,0.271395 -0.01919,0.04401 -0.03521,0.115528 0.04236,0.114236 0.05729,-9.54e-4 0.127813,-0.04742 0.172142,-0.07053 0.139636,-0.08403 0.282343,-0.163153 0.418907,-0.252087 0.05436,-0.0354 0.103152,-0.07874 0.152942,-0.120318 0.137807,-0.115068 0.232119,-0.20244 0.355016,-0.335383 0.142708,-0.154371 0.176349,-0.206633 0.300799,-0.370661 0.09504,-0.121585 0.16585,-0.259818 0.254229,-0.385802 0.01198,-0.01708 0.05837,-0.05776 0.03978,-0.0483 -0.33858,0.172234 -0.171639,0.194633 -0.322611,0.166777 -0.172643,0.206228 -0.390164,0.367877 -0.593524,0.54192 -0.07088,0.06805 -0.158372,0.116892 -0.227156,0.18723 -0.02643,0.02703 -0.03908,0.04645 -0.06192,0.07724 -0.06814,0.09039 -0.136508,0.180805 -0.198731,0.275418 -0.05225,0.07382 -0.06447,0.162262 -0.08028,0.249152 0.0128,0.02672 -0.0223,0.05273 -0.01647,0.07899 0.02751,0.123977 0.349066,-0.190095 0.349545,-0.190484 0.02407,-0.01955 0.02679,-0.05596 0.04124,-0.08341 0.01977,-0.03756 0.04092,-0.07439 0.06137,-0.111579 0.08382,-0.139298 0.178997,-0.271397 0.281286,-0.397661 0.02928,-0.03614 0.05811,-0.07282 0.09028,-0.106418 0.02143,-0.02238 0.0976,-0.07534 0.07009,-0.06108 -0.09054,0.0469 -0.173873,0.106583 -0.260809,0.159874 -0.005,-2.51e-4 -0.01163,-0.0044 -0.01514,-7.54e-4 -0.01219,0.01259 -0.01804,0.03007 -0.02752,0.04481 -0.01502,0.02337 -0.02916,0.04741 -0.04596,0.06953 -0.07054,0.09286 -0.156571,0.172152 -0.240394,0.252556 -0.147467,0.135731 -0.312174,0.250542 -0.456505,0.389718 -0.08573,0.07692 -0.163,0.161652 -0.239132,0.247795 -0.06316,0.06584 -0.113284,0.14195 -0.165828,0.216039 -0.06236,0.09805 -0.131223,0.191552 -0.198275,0.286375 -0.08535,0.110997 -0.155007,0.232753 -0.230684,0.350336 -0.02303,0.04364 -0.05539,0.08424 -0.07458,0.130011 -0.0019,0.0046 -0.0063,0.01701 -0.0018,0.01491 0.356641,-0.165552 0.277517,-0.07244 0.393167,-0.24364 0.139139,-0.195454 0.266013,-0.399311 0.403779,-0.595655 0.0716,-0.09955 0.150243,-0.193591 0.243463,-0.273701 0.0093,-0.008 0.16495,-0.131849 0.175241,-0.140047 0.0721,-0.04959 0.135846,-0.110493 0.207663,-0.160422 0.01164,-0.0081 0.04949,-0.02754 0.03658,-0.02169 -0.340586,0.154224 -0.253956,0.06025 -0.3682,0.205232 -0.175119,0.237598 -0.365312,0.463862 -0.55108,0.69319 -0.113481,0.149979 -0.245629,0.281767 -0.387658,0.404084 -0.06068,0.0499 -0.104474,0.116927 -0.16409,0.167855 -0.0063,0.0054 -0.01369,0.0093 -0.02054,0.01395 0.107759,-0.05635 0.215518,-0.112696 0.323277,-0.169043 0.0074,-0.02139 0.02161,-0.03962 0.03595,-0.05686 0.0043,-0.0051 0.01956,-0.01799 0.01378,-0.01462 -0.309764,0.180441 -0.389001,0.197243 -0.260259,0.165979 0.202838,0.0018 0.101178,0.04708 0.418556,-0.179255 0.01,-0.0071 -0.0053,-0.0239 -0.0079,-0.03585 -0.04857,-0.0993 -0.128711,-0.180264 -0.20044,-0.263425 -0.05527,-0.06622 -0.10804,-0.134823 -0.150863,-0.209822 -0.02833,-0.06436 -0.05164,-0.130633 -0.07543,-0.196737 -0.04837,-0.12137 -0.120599,-0.232633 -0.194268,-0.340007 -0.06087,-0.08566 -0.119082,-0.173323 -0.1836,-0.256328 -0.03826,-0.04138 -0.06299,-0.09217 -0.09522,-0.137992 -0.06466,-0.07981 -0.124569,-0.163377 -0.179756,-0.249991 -0.0095,-0.01435 -0.01881,-0.02877 -0.02837,-0.04306 -0.0046,-0.0069 -0.06037,-0.09062 -0.06761,-0.0872 -0.340604,0.160963 -0.342993,0.06257 -0.308265,0.231795 0.07801,0.234896 0.202735,0.451294 0.322927,0.666642 0.05469,0.102109 0.113813,0.201551 0.185124,0.292842 0.08687,0.10575 0.04594,0.06673 0.304399,-0.194119 0.0143,-0.01443 -0.02055,-0.03505 -0.0315,-0.05217 -0.04259,-0.06658 -0.08701,-0.132181 -0.130225,-0.19838 -0.07515,-0.106582 -0.133088,-0.223681 -0.202542,-0.333805 -0.07392,-0.1018 -0.14497,-0.20585 -0.222444,-0.305025 -0.0897,-0.101405 -0.176098,-0.205514 -0.263601,-0.308801 -0.09449,-0.10855 -0.187614,-0.21832 -0.27999,-0.32868 -0.03969,-0.04408 -0.07488,-0.0907 -0.107766,-0.139977 -0.04996,-0.07512 -0.08704,-0.157533 -0.12604,-0.238567 -0.03724,-0.07349 -0.07507,-0.146555 -0.118823,-0.216405 -0.04283,-0.06059 -0.083246,-0.122938 -0.1289787,-0.181396 -0.052445,-0.06909 -0.1042674,-0.138708 -0.1530512,-0.210418 -0.052497,-0.09007 -0.1018655,-0.181307 -0.1625845,-0.266168 -0.027648,-0.03856 -0.053686,-0.0782 -0.080232,-0.117532 -0.059119,-0.07281 -0.1215365,-0.142536 -0.1792893,-0.216563 -0.049199,-0.06451 -0.1032912,-0.124476 -0.1571321,-0.18499 -0.019737,-0.02201 -0.041202,-0.04238 -0.060876,-0.06445 -0.00291,-0.0033 0.012586,0.0072 0.00896,0.0096 -0.2890505,0.194963 -0.3961696,0.125213 -0.2731066,0.195632 0.077844,0.05421 0.1700247,0.07604 0.2610408,0.09686 0.1569423,0.03461 0.316883,0.05263 0.4769598,0.06455 0.2108063,0.0087 0.4215068,0.02004 0.6322468,0.03028 0.139736,0.0076 0.279627,0.0081 0.419348,0.01585 0.138026,0.008 0.276215,0.0126 0.414399,0.01679 0.01566,9.68e-4 0.03134,0.0017 0.04699,0.0029 0.02146,0.0017 0.05368,0.0051 0.07585,0.0084 0.0042,6.29e-4 0.0091,0.0051 0.01255,0.0026 0.290988,-0.21205 0.376382,-0.195506 0.229003,-0.209278 -0.155773,-0.01381 -0.311304,-0.02879 -0.467421,-0.03838 -0.378284,-0.01653 -0.757057,-0.01129 -1.1354969,-0.02198 0,0 -0.2723994,0.196971 -0.2723994,0.196971 v 0 c 0.3766048,0.0064 0.7535623,0.0027 1.1297723,0.02432 0.153333,0.01062 0.305876,0.02742 0.458688,0.04327 0.157036,0.01577 0.04692,0.01212 0.349804,-0.196287 0.0048,-0.0033 -0.01107,-0.0038 -0.01681,-0.0048 -0.04173,-0.0074 -0.08455,-0.0082 -0.126558,-0.01307 -0.138661,-0.0018 -0.277317,-0.0055 -0.415737,-0.01424 -0.140601,-0.0086 -0.281198,-0.01132 -0.422025,-0.01462 -0.209872,-0.0075 -0.419433,-0.01971 -0.6290605,-0.03149 -0.1590667,-0.0096 -0.3183243,-0.02447 -0.4739725,-0.06008 -0.086337,-0.01912 -0.1768308,-0.03873 -0.250336,-0.09047 -0.1218486,-0.07736 -0.031908,-0.02876 -0.3429334,0.153925 -0.00866,0.0051 0.025806,0.03408 0.043988,0.05217 0.00888,0.0088 0.01747,0.01797 0.026205,0.02695 0.052995,0.06037 0.107011,0.119697 0.1573087,0.182407 0.057182,0.07308 0.1177014,0.14319 0.1752223,0.215889 0.026409,0.04014 0.052114,0.08062 0.08198,0.118351 0.06248,0.08301 0.1127134,0.173182 0.1647425,0.263004 0.04771,0.07347 0.09793,0.145374 0.1510387,0.215063 0.045859,0.05683 0.085933,0.117867 0.1280932,0.177455 0.043482,0.06862 0.079967,0.140964 0.1168446,0.213271 0.040953,0.08158 0.078429,0.165164 0.1279114,0.242161 0.03233,0.05208 0.0677,0.100082 0.110814,0.143894 0.09575,0.107694 0.191298,0.215514 0.284291,0.325621 0.08661,0.103266 0.169334,0.209756 0.259179,0.310329 0.0786,0.09669 0.150392,0.198865 0.221239,0.301289 0.06969,0.110144 0.129609,0.226364 0.205486,0.332601 0.04246,0.06568 0.08674,0.130944 0.126753,0.198154 0.0097,0.01629 0.0088,0.05505 0.02707,0.05002 0.112667,-0.03103 0.215444,-0.09126 0.319038,-0.145338 0.0058,-0.003 -0.0088,-0.0096 -0.01319,-0.01432 -0.0729,-0.08787 -0.136501,-0.182381 -0.191799,-0.282486 -0.121658,-0.208818 -0.246302,-0.423039 -0.308049,-0.658313 0.0086,-0.146348 0.01363,-0.0605 -0.302645,0.118918 -0.0055,0.0031 0.01155,0.0055 0.01601,0.01 0.03149,0.03131 0.04994,0.07419 0.07772,0.108331 0.0559,0.08652 0.113916,0.17206 0.178049,0.252712 0.0326,0.04639 0.05565,0.09929 0.09601,0.140036 0.06636,0.08075 0.126554,0.166287 0.187664,0.251019 0.07243,0.10491 0.140316,0.215046 0.184569,0.335166 0.02441,0.06804 0.04956,0.1359 0.07884,0.202015 0.04463,0.0767 0.09899,0.14682 0.15677,0.214077 0.03939,0.04542 0.07833,0.09114 0.116202,0.137847 0.0191,0.02356 0.04274,0.05117 0.05747,0.07835 0.005,0.0092 0.0076,0.01939 0.01143,0.02909 -0.0668,0.102959 -0.01244,0.01618 0.289469,-0.15511 0.0055,-0.0031 -0.01162,0.0058 -0.01793,0.0066 -0.02746,0.0036 -0.05555,-0.0083 -0.08292,-0.0077 -0.159401,-0.01642 -0.357294,0.112913 -0.390267,0.273533 0.106912,-0.04058 0.214906,-0.07841 0.320735,-0.121736 0.0073,-0.003 0.01148,-0.0109 0.01703,-0.01654 0.01007,-0.01023 0.01998,-0.02062 0.02981,-0.03107 0.04296,-0.04563 0.08432,-0.09296 0.132481,-0.133375 0.139135,-0.122664 0.264771,-0.25809 0.37691,-0.406176 0.186149,-0.232826 0.378523,-0.460803 0.558184,-0.698696 0.014,-0.02204 0.0675,-0.07172 0.042,-0.06612 -0.264295,0.05807 -0.366206,0.160457 -0.555766,0.309556 -0.03973,0.03189 -0.13753,0.109609 -0.175006,0.142992 -0.09261,0.0825 -0.170055,0.17891 -0.240792,0.280428 -0.134952,0.198857 -0.262735,0.402703 -0.406013,0.595845 -0.01745,0.02274 -0.08046,0.07375 -0.05233,0.06822 0.313113,-0.06153 0.263976,-0.07008 0.372432,-0.247552 0.07451,-0.118064 0.146621,-0.237938 0.231735,-0.348848 0.06797,-0.09485 0.135257,-0.190088 0.199959,-0.28722 0.05205,-0.07378 0.105465,-0.14657 0.167371,-0.212562 0.07498,-0.08475 0.153235,-0.166226 0.236225,-0.24325 0.145806,-0.135655 0.308489,-0.251326 0.452865,-0.388667 0.0845,-0.08296 0.171055,-0.164917 0.240744,-0.261323 0.01689,-0.02337 0.06894,-0.101589 0.0695,-0.138947 2.78e-4,-0.01871 -0.01398,-0.03471 -0.02096,-0.05206 -0.112,0.06269 -0.22734,0.11975 -0.335999,0.188065 -0.03596,0.02261 -0.136532,0.151902 -0.1503,0.169387 -0.101746,0.129211 -0.197886,0.263019 -0.282987,0.40386 -0.02155,0.03805 -0.04335,0.07596 -0.06466,0.11414 -0.01573,0.02818 -0.07814,0.09116 -0.04648,0.08493 0.101618,-0.02001 0.184503,-0.09528 0.281635,-0.131227 0.008,-0.0029 -10e-4,0.02937 0.0061,0.02474 0.02224,-0.01442 -0.01543,-0.06862 0.01403,-0.07826 0.01718,-0.08404 0.03477,-0.166647 0.08702,-0.23699 0.06274,-0.09343 0.129674,-0.184001 0.199114,-0.272552 0.08219,-0.09884 0.187594,-0.171098 0.284203,-0.255083 0.178465,-0.153406 0.375756,-0.301759 0.532337,-0.477421 0.02321,-0.02603 0.04311,-0.05483 0.06467,-0.08224 -0.0026,-0.02318 0.0142,-0.07763 -0.0077,-0.06955 -0.11353,0.04191 -0.211241,0.118791 -0.311064,0.187205 -0.01624,0.01113 -0.02275,0.03215 -0.03327,0.04879 -0.01918,0.03032 -0.03696,0.06151 -0.05582,0.09204 -0.09658,0.156312 -0.07289,0.117222 -0.186954,0.285343 -0.04569,0.05986 -0.08933,0.121338 -0.137078,0.17957 -0.157201,0.191721 -0.332513,0.364186 -0.525433,0.519774 -0.05161,0.04162 -0.168715,0.05417 -0.158834,0.119737 0.0092,0.06107 0.109225,-0.05769 0.163838,-0.08654 -0.163436,0.09585 -0.02734,0.02131 -0.153555,0.08025 -0.0083,0.0039 -0.01485,0.01177 -0.0238,0.01362 -0.01719,0.0035 0.01808,-0.06979 0.01544,-0.06785 0.04462,-0.09255 0.10148,-0.17866 0.158528,-0.263916 0.104397,-0.143727 0.227673,-0.269748 0.371966,-0.374294 0.119887,-0.09502 0.240712,-0.18898 0.35903,-0.285954 0.06978,-0.05719 0.184513,-0.152575 0.250911,-0.216485 0.02808,-0.02703 0.05341,-0.05679 0.08011,-0.08518 9.75e-4,-0.02476 0.01345,-0.05185 0.0029,-0.07428 -0.0053,-0.01121 -0.02612,-0.0043 -0.03713,0.0014 -0.20796,0.106902 -0.416121,0.225963 -0.605988,0.364043 -0.08309,0.06854 -0.114907,0.0902 -0.18974,0.171997 -0.148733,0.162586 -0.266429,0.35217 -0.366681,0.547422 -0.03861,0.08315 -0.136482,0.263056 -0.121465,0.362622 0.0028,0.01823 0.01385,0.0529 0.0309,0.04588 0.257845,-0.106084 0.265397,-0.123432 0.388478,-0.25051 0.179628,-0.194739 0.349527,-0.398447 0.506676,-0.611842 0.07648,-0.106075 0.150538,-0.213877 0.220945,-0.324094 0.05467,-0.07968 0.111047,-0.158173 0.166703,-0.237166 0.06212,-0.09213 0.124212,-0.184278 0.187145,-0.275851 0.08335,-0.108754 0.179255,-0.206745 0.267229,-0.311699 0.169131,-0.200445 0.318879,-0.417498 0.445142,-0.647457 0.01428,-0.02928 0.08204,-0.16061 0.09165,-0.204507 0.0046,-0.02099 0.01921,-0.07051 -0.0014,-0.06444 -0.230863,0.06794 -0.288177,0.107098 -0.397314,0.249182 -0.165649,0.218487 -0.328279,0.43916 -0.507161,0.647258 -0.114768,0.140117 -0.124462,0.126305 0.236635,-0.03101 0.01408,-0.0061 0.01795,-0.02491 0.02699,-0.03732 0.02966,-0.04073 0.05962,-0.08218 0.09137,-0.12125 0.02191,-0.02696 0.04497,-0.05297 0.06745,-0.07946 0.08312,-0.09023 0.165568,-0.179632 0.261936,-0.256231 0.02737,-0.02175 0.116502,-0.07667 0.0851,-0.0613 -0.227575,0.111392 -0.286848,0.215215 -0.212714,0.100001 -0.0016,-0.0057 7.24e-4,-0.01884 -0.0049,-0.01702 -4.09e-4,1.33e-4 -0.03251,0.05229 -0.03515,0.05647 -0.0319,0.0504 -0.06582,0.09945 -0.101993,0.146895 -0.137384,0.181122 -0.288347,0.350881 -0.44768,0.513036 -0.01085,0.01135 -0.121006,0.125264 -0.138214,0.147457 -0.01269,0.01636 -0.05237,0.05796 -0.03226,0.05307 0.207937,-0.05054 0.268751,-0.06504 0.37515,-0.176596 0.08349,-0.08936 0.170329,-0.175148 0.266514,-0.251061 0.101653,-0.0852 0.198589,-0.175631 0.280455,-0.280565 0.04545,-0.05664 0.0891,-0.114588 0.129929,-0.174668 0.03894,-0.05932 0.08297,-0.115116 0.123831,-0.17311 0.02871,-0.03672 0.07903,-0.08707 0.07401,-0.138504 -8.91e-4,-0.0091 -0.0057,-0.01747 -0.0085,-0.0262 -0.0061,-0.0062 -0.01097,-0.01402 -0.01842,-0.01855 -0.05912,-0.03595 -0.192663,-0.01046 -0.259237,-0.01217 -0.03327,0.0027 -0.08162,0.0057 -0.115146,0.01149 -0.165422,0.02875 -0.351062,0.120961 -0.457553,0.240498 0.0022,0.01262 -3.23e-4,0.02713 0.0067,0.03785 0.01327,0.02027 0.07898,0.02683 0.08908,0.02831 0.118623,0.01737 0.238716,0.0175 0.358319,0.01792 0.208874,-0.0022 0.103557,-6.95e-4 0.3035,-0.0043 0.03487,-6.23e-4 0.07363,0.01416 0.104613,-0.0019 0.405209,-0.209513 0.412198,-0.191714 0.194038,-0.271097 -0.121149,-0.03895 -0.242116,-0.07969 -0.368323,-0.0995 -0.171631,-0.02694 -0.346287,-0.02062 -0.519105,-0.0306 -0.244239,-0.0098 -0.488404,-0.01999 -0.732388,-0.03508 -0.05782,-0.0036 -0.115593,-0.008 -0.173396,-0.01195 -0.02865,-0.0019 -0.05993,-0.01771 -0.08597,-0.0056 -0.113661,0.05286 -0.214325,0.130063 -0.321487,0.195095 0.0031,0.0071 0.0047,0.01512 0.0094,0.0213 0.02713,0.03575 0.09341,0.02197 0.129846,0.02914 0.183504,0.01431 0.367134,0.02391 0.551236,0.02627 0.190047,0.0068 0.380062,0.01403 0.569934,0.02488 0.06164,0.0035 0.123254,0.0074 0.184838,0.01178 0.0433,0.0031 0.08838,0.02348 0.129789,0.01047 0.129969,-0.04086 0.248291,-0.112233 0.372436,-0.16835 4.71e-4,-0.01116 0.0037,-0.02255 0.0014,-0.03349 -0.006,-0.02861 -0.06469,-0.07068 -0.08978,-0.08346 -0.04251,-0.01793 -0.08818,-0.01498 -0.132844,-0.02523 -0.102998,-0.01804 -0.206619,-0.02749 -0.311032,-0.03328 -0.156803,-0.0033 -0.313622,-0.0091 -0.469926,-0.02253 -0.06748,-0.0061 -0.134808,-0.01355 -0.202477,-0.01713 -0.0031,-1.66e-4 -0.07616,-0.0042 -0.08092,-0.0019 -0.114574,0.05515 -0.224032,0.120354 -0.336049,0.180531 -0.07633,0.0554 -0.126761,0.137028 -0.183649,0.210724 -0.10291,0.131566 -0.209884,0.260393 -0.338569,0.368041 0.09182,-0.04724 0.181823,-0.09819 0.275456,-0.141723 0.0054,-0.0025 -0.0037,0.022 -0.0067,0.01675 -0.0061,-0.01105 -0.0039,-0.101874 -0.0039,-0.102737 0.0016,-0.08566 0.0069,-0.171225 0.0071,-0.256923 0.01009,-0.516173 0.01751,-1.03397 -0.03557,-1.548302 -0.02325,-0.239001 -0.05217,-0.47765 -0.07358,-0.716805 -0.0046,-0.05106 0.0404,-0.14745 -0.01051,-0.15343 -0.375582,-0.04411 -0.263655,0.230265 -0.315056,0.09396 0.02142,0.230071 0.03157,0.461178 0.05115,0.691406 0.03111,0.519991 0.06482,1.039822 0.09644,1.55978 0.0093,0.175809 0.0094,0.158105 0.01447,0.313768 8.56e-4,0.0265 0.0012,0.05302 0.0021,0.07952 5.09e-4,0.0151 -0.01219,0.04999 0.0022,0.04526 0.328353,-0.108288 0.340553,-0.03747 0.313806,-0.159806 -0.0085,-0.0961 -0.0146,-0.192395 -0.02587,-0.288239 -0.01113,-0.135317 -0.03085,-0.269686 -0.05894,-0.402565 -0.03315,-0.175373 -0.07387,-0.34904 -0.114027,-0.522923 -0.03247,-0.132897 -0.07022,-0.264399 -0.105313,-0.39662 -0.04165,-0.180675 -0.08324,-0.363109 -0.08647,-0.549354 0.0013,-0.358307 0.03211,-0.716118 0.06701,-1.072467 0.02526,-0.206709 0.05275,-0.411123 0.09427,-0.615246 0.0081,-0.04002 0.01672,-0.07996 0.02555,-0.11984 0.0059,-0.02668 0.04546,-0.08521 0.01867,-0.07983 -0.10636,0.02136 -0.197267,0.09033 -0.2959,0.1355 -7.28e-4,-0.0045 -0.0033,-0.01779 -0.0022,-0.01341 0.0028,0.01076 0.0053,0.02162 0.0072,0.03257 0.01024,0.05878 0.0176,0.119222 0.02162,0.178747 0.0012,0.01793 0.0012,0.03592 0.0018,0.05389 1.11e-4,0.102485 0.0013,0.204962 0.0038,0.307419 0.003,0.09245 0.01306,0.183514 0.03356,0.27389 0.02758,0.172601 0.04274,0.346907 0.0558,0.521128 0.0114,0.179192 0.01979,0.358562 0.03505,0.537496 0.01474,0.204561 0.03194,0.409101 0.03859,0.614116 0.004,0.154067 8.38e-4,0.308265 0.0084,0.46226 0.006,0.128361 0.0131,0.256596 0.02979,0.384086 0.0044,0.102711 0.01,0.207115 -0.02187,0.306527 -0.04503,0.131069 -0.115007,0.250208 -0.206661,0.354616 0.08843,-0.04582 0.174691,-0.09611 0.265298,-0.13747 0.008,-0.0037 -0.0051,0.02087 -0.01375,0.02265 -0.0075,0.0015 -0.01216,-0.0099 -0.01615,-0.01651 -0.02932,-0.04833 -0.03923,-0.107471 -0.05645,-0.16023 -0.03457,-0.138759 -0.05809,-0.278951 -0.06349,-0.422198 -0.0069,-0.158296 -0.01098,-0.316646 0.0053,-0.474646 0.01851,-0.249342 0.041,-0.498576 0.04494,-0.748738 -0.003,-0.281693 -0.01852,-0.562883 -0.04464,-0.843399 -0.024,-0.244814 -0.05787,-0.48808 -0.09522,-0.73116 0.0047,-0.06192 0.0095,-0.0776 0.05897,-0.11963 0.01844,-0.01567 0.07983,-0.05413 0.05804,-0.04362 -0.03343,0.01614 -0.392126,0.21944 -0.09695,0.05479 0.233242,-0.12525 0.464095,-0.25387 0.692644,-0.387812 0.04165,-0.02441 0.141698,-0.08078 0.168288,-0.135303 0.0081,-0.01666 -4.41e-4,-0.03706 -6.62e-4,-0.05559 -0.01328,-0.01002 -0.02449,-0.02363 -0.03983,-0.03005 -0.01971,-0.0083 -0.153367,-0.03162 -0.163809,-0.03343 -0.143658,-0.02491 -0.28756,-0.04852 -0.431317,-0.07286 -0.235781,-0.04214 -0.47057,-0.08766 -0.705299,-0.135321 -0.08109,-0.01647 -0.332972,-0.06845 -0.42642,-0.08438 -0.04654,-0.0079 -0.09348,-0.01325 -0.140224,-0.01987 -0.03276,-0.0029 -0.06545,-0.0067 -0.09828,-0.0086 -0.02189,-0.0013 -0.04641,-0.01125 -0.06578,-9.73e-4 -0.467734,0.248066 -0.400501,0.201801 -0.185177,0.209716 0.283001,0.0086 0.565892,0.02279 0.848119,0.04566 0.184568,0.01748 0.37105,0.02917 0.550452,0.07946 0.0523,0.01362 0.07194,0.01679 0.120754,0.03648 0.01332,0.0054 0.02504,0.01473 0.03888,0.01855 0.003,8.32e-4 0.0047,-0.0042 0.0074,-0.0058 0.09798,-0.05513 0.198088,-0.106544 0.294626,-0.164159 0.0093,-0.0055 -0.02111,0.0048 -0.03167,0.0072 -0.144766,0.01595 -0.291732,0.0085 -0.436709,0.0236 -0.226259,0.01387 -0.453264,0.03325 -0.68001,0.02658 -0.154908,-0.0083 -0.309443,-0.02082 -0.463971,-0.03422 -0.08876,-0.0093 -0.177911,-0.0158 -0.266005,-0.0304 -0.08258,-0.01683 -0.164831,-0.03496 -0.24715,-0.05287 -0.03406,-0.0091 -0.06654,-0.01828 -0.09855,-0.03326 -0.0089,-0.0042 -0.01743,-0.01705 -0.02651,-0.01319 -0.331023,0.141033 -0.318714,0.04353 -0.328523,0.182755 0.0011,0.03716 0.0071,0.0745 0.01254,0.111173 0.02017,0.136811 0.04154,0.273458 0.05847,0.410737 0.104426,0.843185 0.169093,1.694284 0.116291,2.544005 -0.04124,0.367262 -0.03782,0.421126 -0.104802,0.751565 -0.01176,0.05804 -0.100236,0.157981 -0.04281,0.172416 0.32217,0.08098 0.304241,-0.06048 0.28433,-0.125689 -0.01464,-0.06354 -0.02757,-0.127547 -0.03471,-0.192424 -0.0072,-0.05971 -0.0124,-0.119191 -0.0099,-0.179434 -6.59e-4,-0.09196 -0.0012,-0.183921 -0.0021,-0.275879 -0.0018,-0.185168 -0.0022,-0.370347 -3.96e-4,-0.555517 5.42e-4,-0.140003 0.0012,-0.280005 5.48e-4,-0.420009 -5.33e-4,-0.149929 -10e-4,-0.299863 -5e-5,-0.449792 4.72e-4,-0.116518 4.98e-4,-0.23312 0.0064,-0.349519 0.0059,-0.107682 0.014,-0.215261 0.01734,-0.32307 5.66e-4,-0.08969 0.0018,-0.179402 0.0062,-0.269002 0.0053,-0.09226 0.01362,-0.184261 0.02333,-0.276161 0.0066,-0.09711 0.02038,-0.193387 0.03599,-0.289438 0.01958,-0.140334 0.04687,-0.279232 0.07466,-0.418137 0,0 -0.316117,0.154988 -0.316117,0.154988 z"
     id="path42"
     style="fill:#dc322f;fill-opacity:1" />
  <rect
     y="13.6364"
     x="6.5614066"
     height="1.8659586"
     width="10.765644"
     id="rect867"
     style="fill:#0a0a0a;fill-opacity:1" />
  <rect
     style="fill:#dc322f;fill-opacity:1"
     id="rect838"
     width="11.092178"
     height="2.998045"
     x="6.334105"
     y="13.415499" />
  <text
     id="text22"
     y="19.28097"
     x="9.2555561"
     style="font-size:192px;line-height:1.25;font-family:'Noto Sans';-inkscape-font-specification:'Noto Sans, Normal'"
     xml:space="preserve"><tspan
       y="19.28097"
       x="9.2555561"
       id="tspan20"
       sodipodi:role="line"></tspan></text>
  <text
     inkscape:transform-center-y="-0.043750967"
     inkscape:transform-center-x="-0.78059639"
     transform="rotate(0.27699281)"
     id="text867"
     y="19.297173"
     x="7.6322918"
     style="font-style:normal;font-variant:normal;font-weight:500;font-stretch:normal;font-size:16px;line-height:1.25;font-family:'Noto Sans';-inkscape-font-specification:'Noto Sans, Medium';font-variant-ligatures:normal;font-variant-caps:normal;font-variant-numeric:normal;font-variant-east-asian:normal"
     xml:space="preserve"><tspan
       y="19.297173"
       x="7.6322918"
       id="tspan865"
       sodipodi:role="line">x</tspan></text>
</svg>
