<?xml version="1.0" encoding="UTF-8" standalone="no"?>
<svg
   xmlns:dc="http://purl.org/dc/elements/1.1/"
   xmlns:cc="http://creativecommons.org/ns#"
   xmlns:rdf="http://www.w3.org/1999/02/22-rdf-syntax-ns#"
   xmlns:svg="http://www.w3.org/2000/svg"
   xmlns="http://www.w3.org/2000/svg"
   xmlns:sodipodi="http://sodipodi.sourceforge.net/DTD/sodipodi-0.dtd"
   xmlns:inkscape="http://www.inkscape.org/namespaces/inkscape"
   inkscape:version="1.0 (4035a4fb49, 2020-05-01)"
   sodipodi:docname="cloud-upload.svg"
   id="svg10"
   version="1.1"
   viewBox="0 0 24 24">
  <metadata
     id="metadata16">
    <rdf:RDF>
      <cc:Work
         rdf:about="">
        <dc:format>image/svg+xml</dc:format>
        <dc:type
           rdf:resource="http://purl.org/dc/dcmitype/StillImage" />
      </cc:Work>
    </rdf:RDF>
  </metadata>
  <defs id="defs3051">
    <style type="text/css" id="current-color-scheme">
      .ColorScheme-Text {
        color:#eff0f1;
      }
      </style>
  </defs>
  <sodipodi:namedview
     inkscape:current-layer="svg10"
     inkscape:window-maximized="1"
     inkscape:window-y="33"
     inkscape:window-x="0"
     inkscape:cy="12"
     inkscape:cx="8.0428016"
     inkscape:zoom="42.833333"
     showgrid="false"
     id="namedview12"
     inkscape:window-height="1531"
     inkscape:window-width="3840"
     inkscape:pageshadow="2"
     inkscape:pageopacity="0"
     guidetolerance="10"
     gridtolerance="10"
     objecttolerance="10"
     borderopacity="1"
     bordercolor="#666666"
     pagecolor="#ffffff" />
  <path
     id="path2"
     style="fill:currentColor;fill-opacity:1;stroke:none"
        d="m9.09 8.594c-2.957 0-5.342 2.385-5.342 5.343 0 .122-.007.254 0 .376-1.042.501-1.751 1.522-1.751 2.686 0 1.672 1.446 3 3.251 3h13.498c1.805 0 3.251-1.329 3.251-3 0-1.239-.788-2.317-1.937-2.779.029-.19.029-.369.029-.562 0-2.124-1.722-3.846-3.842-3.846-1.067 0-2.023.426-2.718 1.124-.967-1.418-2.596-2.342-4.44-2.342m-2.216 1.626c.576 0 1.06.448 1.06.999 0 .551-.483.999-1.06.999-.58 0-1.031-.448-1.031-.999 0-.551.451-.999 1.031-.999zm5.091.781l3.03 4.405h-1.844v3.595h-2.438v-3.595h-1.719z" 
        class="ColorScheme-Text"
      />
  <path
     id="path4"
     style="fill:currentColor;fill-opacity:1;stroke:none"
        d="m18.387 9.733l-.401-.38-.541.115.236-.498-.279-.48.551.072.369-.412.1.544.505.222-.483.265z" 
        class="ColorScheme-Text"
      />
  <path
     id="path6"
     style="fill:currentColor;fill-opacity:1;stroke:none"
        d="m18.831 8.723l.021-.258-.201-.165.251-.061.093-.24.136.222.258.014-.168.197.064.251-.236-.1z" 
        class="ColorScheme-Text"
      />
  <path
     id="path8"
     style="fill:currentColor;fill-opacity:1;stroke:none"
        d="m19.07 10.224l-.05-.39-.351-.183.362-.168.064-.39.269.29.39-.061-.19.347.175.355-.387-.075z" 
        class="ColorScheme-Text"
      />
  <path
     id="path841"
     d="m 10.727626,17.183167 v -1.797378 l -0.8478896,-0.0061 -0.84789,-0.0061 1.4562406,-2.159533 c 0.800933,-1.187743 1.463514,-2.162124 1.472404,-2.165291 0.0089,-0.0032 0.686218,0.968622 1.505174,2.159533 l 1.489011,2.165291 -0.91119,0.0061 -0.91119,0.0061 v 1.797394 1.797395 h -1.202335 -1.202335 z"
     style="fill:#00ff00;stroke:#2b0000;stroke-width:0.0233463" />
  <path
     id="path843"
     d="m 6.6694855,12.185136 c -0.5187346,-0.102083 -0.8861148,-0.608006 -0.801315,-1.1035 0.075134,-0.439017 0.392605,-0.753578 0.8415152,-0.833803 0.6648442,-0.118814 1.3114896,0.48604 1.1950758,1.117841 -0.1017381,0.552152 -0.6718321,0.930343 -1.235276,0.819462 z"
     style="fill:#53a93f;stroke:#2b0000;stroke-width:0.0233463;fill-opacity:1" />
  <path
     id="path845"
     d="M 10.750973,17.159824 V 15.36245 L 9.9139026,15.35635 9.0768324,15.35025 9.659992,14.486436 c 1.743991,-2.583311 2.243533,-3.319027 2.278257,-3.355378 0.03612,-0.03781 0.04185,-0.03503 0.09622,0.04669 0.0318,0.04779 0.29207,0.4254 0.578381,0.839126 0.286312,0.413726 0.920122,1.332987 1.408468,2.042802 l 0.887902,1.290572 -0.900135,0.0061 -0.900136,0.0061 v 1.797391 1.797391 h -1.178988 -1.178988 z"
     style="fill:#53a93f;fill-opacity:1;stroke:#2b0000;stroke-width:0.0233463" />
</svg>
