<?xml version="1.0" encoding="UTF-8" standalone="no"?>
<svg
   xmlns:dc="http://purl.org/dc/elements/1.1/"
   xmlns:cc="http://creativecommons.org/ns#"
   xmlns:rdf="http://www.w3.org/1999/02/22-rdf-syntax-ns#"
   xmlns:svg="http://www.w3.org/2000/svg"
   xmlns="http://www.w3.org/2000/svg"
   xmlns:sodipodi="http://sodipodi.sourceforge.net/DTD/sodipodi-0.dtd"
   xmlns:inkscape="http://www.inkscape.org/namespaces/inkscape"
   inkscape:version="1.0 (4035a4fb49, 2020-05-01)"
   sodipodi:docname="folder-decrypted.svg"
   id="svg10"
   version="1.1"
   width="512"
   viewBox="0 0 512 512"
   height="512">
  <metadata
     id="metadata16">
    <rdf:RDF>
      <cc:Work
         rdf:about="">
        <dc:format>image/svg+xml</dc:format>
        <dc:type
           rdf:resource="http://purl.org/dc/dcmitype/StillImage" />
        <dc:title></dc:title>
      </cc:Work>
    </rdf:RDF>
  </metadata>
  <defs
     id="defs14" />
  <sodipodi:namedview
     inkscape:current-layer="svg10"
     inkscape:window-maximized="0"
     inkscape:window-y="33"
     inkscape:window-x="0"
     inkscape:cy="256"
     inkscape:cx="254.98614"
     inkscape:zoom="1.9726562"
     showgrid="false"
     id="namedview12"
     inkscape:window-height="1288"
     inkscape:window-width="3041"
     inkscape:pageshadow="2"
     inkscape:pageopacity="0"
     guidetolerance="10"
     gridtolerance="10"
     objecttolerance="10"
     borderopacity="1"
     bordercolor="#666666"
     pagecolor="#ffffff" />
  <path
     id="path2"
     fill-rule="evenodd"
     fill="#565656"
     d="m108.62333 57.3655c-7.963 0-15.223 2.323-20.688 6.25-4.545 3.266-7.749 7.867-8.75 13.13h-11.906c-16.447 0-29.875 13.02-29.875 29.19v66.75c0 .505.005 1 .031 1.5-.001.011.001.021 0 .031-.026.499-.031 1.026-.031 1.531v66.72c0 16.17 13.428 29.22 29.875 29.22h377.47c16.447 0 29.875-13.05 29.875-29.22v-66.72c0-.505-.005-1.032-.031-1.531.001-.011-.001-.021 0-.031.026-.499.031-.995.031-1.5v-66.75c0-16.17-13.428-29.19-29.875-29.19h-262.91c-1-5.255-4.205-9.857-8.75-13.12-5.465-3.927-12.756-6.25-20.719-6.25h-43.75" />
  <path
     id="path4"
     opacity=".764"
     fill-rule="evenodd"
     fill="#0a0a0a"
     d="m108.54333 57.3055c-7.963 0-15.11 2.403-20.572 6.33-4.545 3.266-7.702 7.931-8.703 13.187h-12.13c-17.677 0-29.802 12.771-29.802 30.661v3.956c0-16.17 13.355-29.27 29.802-29.27h14.286c1-5.256 2-9.657 6.549-12.923 5.465-3.927 12.609-6.33 20.572-6.33h43.78c7.963 0 15.371 2.403 20.835 6.33 4.545 3.266 5.766 7.668 6.769 12.923h264.88c16.447 0 29.802 11.455 29.802 27.625v-3.956c0-16.17-13.355-29.01-29.802-29.01h-262.95c-1-5.256-4.159-9.921-8.703-13.187-5.465-3.927-12.872-6.33-20.835-6.33z" />
  <path
     id="path6"
     fill-rule="evenodd"
     fill="#ff0400"
     d="m37.35333 213.7155c-19.928 0-38.06 11.337-36.23 25.697l24.26 190.23c1.733 13.594 16.271 25.05 36.2 25.05h383.41c19.933 0 34.1-11.5 36.2-24.98l29.632-190.23c1.123-7.206-3.137-13.807-9.971-18.394-6.833-4.587-16.258-7.371-26.22-7.371h-437.27" />
  <path
     id="path8"
     opacity=".4"
     fill-rule="evenodd"
     fill="#0a0a0a"
     d="m37.34333 213.7055c-19.928 0-38.05 11.353-36.22 25.713l.406 3.136c3-11.423 18.732-19.755 35.812-19.755h437.28c9.966 0 19.386 2.782 26.22 7.369 4.736 3.178 8.234 7.317 9.563 11.96l.406-2.643c1.123-7.206-3.134-13.825-9.969-18.411-6.833-4.587-16.252-7.369-26.22-7.369h-437.28" />
  <path
     inkscape:transform-center-y="-26.92237"
     inkscape:transform-center-x="1.7592203"
     d="m 253.91614,131.0025 c -32.716,0 -65.84,21.855 -65.84,54.999 v 60.3 h -24.26 v 134.7 h 182.34 v -134.7 h -24.994 v -61.973 c 0,-24.91 -25.759,-53.33 -67.25,-53.33 m -0.469,30.21 c 17.616,-0.092 36.803,12.204 36.803,30.942 v 54.15 h -72.23 l 0.029,-0.029 v -53.885 c 0,-20.325 20.242,-31.1 35.396,-31.18 m 0.821,114.63 c 10.08,0 18.255,8.175 18.255,18.255 0,6.01 -2.929,11.326 -7.413,14.651 l 7.238,40.612 h -35.836 l 7.179,-40.41 c -4.638,-3.309 -7.677,-8.724 -7.677,-14.856 0,-10.08 8.175,-18.255 18.255,-18.255"
     fill="#0a0a0a"
     fill-rule="evenodd"
     id="path10"
     style="fill:url(#meshgradient48);fill-opacity:1" />
  <path
     d="m 253.91614,131.0025 c -32.716,0 -65.84,21.855 -65.84,54.999 v 60.3 h -24.26 v 134.7 h 182.34 v -134.7 h -24.994 v -61.973 c 0,-24.91 -25.759,-53.33 -67.25,-53.33 m -0.469,30.21 c 17.616,-0.092 36.803,12.204 36.803,30.942 v 54.15 h -72.23 l 0.029,-0.029 v -53.885 c 0,-20.325 20.242,-31.1 35.396,-31.18 m 0.821,114.63 c 10.08,0 18.255,8.175 18.255,18.255 0,6.01 -2.929,11.326 -7.413,14.651 l 7.238,40.612 h -35.836 l 7.179,-40.41 c -4.638,-3.309 -7.677,-8.724 -7.677,-14.856 0,-10.08 8.175,-18.255 18.255,-18.255"
     fill="#0a0a0a"
     fill-rule="evenodd"
     id="path10-3"
     style="fill:url(#meshgradient48);fill-opacity:1" />
  <path
     d="m 253.91614,131.0025 c -32.716,0 -65.84,21.855 -65.84,54.999 v 60.3 h -24.26 v 134.7 h 182.34 v -134.7 h -24.994 v -61.973 c 0,-24.91 -25.759,-53.33 -67.25,-53.33 m -0.469,30.21 c 17.616,-0.092 36.803,12.204 36.803,30.942 v 54.15 h -72.23 l 0.029,-0.029 v -53.885 c 0,-20.325 20.242,-31.1 35.396,-31.18 m 0.821,114.63 c 10.08,0 18.255,8.175 18.255,18.255 0,6.01 -2.929,11.326 -7.413,14.651 l 7.238,40.612 h -35.836 l 7.179,-40.41 c -4.638,-3.309 -7.677,-8.724 -7.677,-14.856 0,-10.08 8.175,-18.255 18.255,-18.255"
     fill="#0a0a0a"
     fill-rule="evenodd"
     id="path10-6"
     style="fill:url(#meshgradient48);fill-opacity:1" />
  <path
     d="m 253.91614,131.0025 c -32.716,0 -65.84,21.855 -65.84,54.999 v 60.3 h -24.26 v 134.7 h 182.34 v -134.7 h -24.994 v -61.973 c 0,-24.91 -25.759,-53.33 -67.25,-53.33 m -0.469,30.21 c 17.616,-0.092 36.803,12.204 36.803,30.942 v 54.15 h -72.23 l 0.029,-0.029 v -53.885 c 0,-20.325 20.242,-31.1 35.396,-31.18 m 0.821,114.63 c 10.08,0 18.255,8.175 18.255,18.255 0,6.01 -2.929,11.326 -7.413,14.651 l 7.238,40.612 h -35.836 l 7.179,-40.41 c -4.638,-3.309 -7.677,-8.724 -7.677,-14.856 0,-10.08 8.175,-18.255 18.255,-18.255"
     fill="#0a0a0a"
     fill-rule="evenodd"
     id="path10-7"
     style="fill:url(#meshgradient48);fill-opacity:1" />
  <path
     d="m 253.44714,161.2125 c -32.716,0 -65.84,21.855 -65.84,54.999 v 60.3 h -24.26 v 134.7 h 182.34 v -134.7 h -24.994 v -61.973 c 0,-24.91 -25.759,-53.33 -67.25,-53.33 m -0.469,30.21 c 17.616,-0.092 36.803,12.204 36.803,30.942 v 54.15 h -72.23 l 0.029,-0.029 v -53.885 c 0,-20.325 20.242,-31.1 35.396,-31.18 m 0.821,114.63 c 10.08,0 18.255,8.175 18.255,18.255 0,6.01 -2.929,11.326 -7.413,14.651 l 7.238,40.612 h -35.836 l 7.179,-40.41 c -4.638,-3.309 -7.677,-8.724 -7.677,-14.856 0,-10.08 8.175,-18.255 18.255,-18.255"
     fill="#0a0a0a"
     fill-rule="evenodd"
     id="path10-35" />
  <rect
     y="241.21812"
     x="159.31987"
     height="35.71711"
     width="68.124382"
     id="rect60"
     style="fill:#ff0400;fill-opacity:1" />
</svg>
