<?xml version="1.0" encoding="UTF-8" standalone="no"?>
<svg
   xmlns:dc="http://purl.org/dc/elements/1.1/"
   xmlns:cc="http://creativecommons.org/ns#"
   xmlns:rdf="http://www.w3.org/1999/02/22-rdf-syntax-ns#"
   xmlns:svg="http://www.w3.org/2000/svg"
   xmlns="http://www.w3.org/2000/svg"
   xmlns:sodipodi="http://sodipodi.sourceforge.net/DTD/sodipodi-0.dtd"
   xmlns:inkscape="http://www.inkscape.org/namespaces/inkscape"
   inkscape:version="1.0 (4035a4fb49, 2020-05-01)"
   height="512"
   viewBox="0 0 512 512"
   width="512"
   version="1.1"
   id="svg10"
   sodipodi:docname="folder-important.svg">
  <metadata
     id="metadata16">
    <rdf:RDF>
      <cc:Work
         rdf:about="">
        <dc:format>image/svg+xml</dc:format>
        <dc:type
           rdf:resource="http://purl.org/dc/dcmitype/StillImage" />
        <dc:title></dc:title>
      </cc:Work>
    </rdf:RDF>
  </metadata>
  <defs
     id="defs14">
    <rect
       id="rect855"
       height="227.63738"
       width="142.36634"
       y="176.02933"
       x="182.04505" />
  </defs>
  <sodipodi:namedview
     inkscape:current-layer="svg10"
     inkscape:window-maximized="0"
     inkscape:window-y="181"
     inkscape:window-x="1717"
     inkscape:cy="256"
     inkscape:cx="239.67767"
     inkscape:zoom="1.9726562"
     showgrid="false"
     id="namedview12"
     inkscape:window-height="1304"
     inkscape:window-width="1681"
     inkscape:pageshadow="2"
     inkscape:pageopacity="0"
     guidetolerance="10"
     gridtolerance="10"
     objecttolerance="10"
     borderopacity="1"
     bordercolor="#666666"
     pagecolor="#ffffff" />
  <path
     id="path2"
     fill-rule="evenodd"
     fill="#565656"
     d="m108.63121 57.3885c-7.963 0-15.228 2.293-20.693 6.22-4.545 3.266-7.751 7.872-8.752 13.13h-11.909c-16.447 0-29.883 13.03-29.883 29.2v66.736c0 16.17 13.436 29.19 29.883 29.19h377.47c16.447 0 29.883-13.03 29.883-29.19v-66.736c0-16.17-13.436-29.2-29.883-29.2h-262.91c-1-5.256-4.208-9.862-8.753-13.13-5.465-3.927-12.73-6.22-20.693-6.22h-43.761" />
  <path
     style="fill:#ff0400;fill-opacity:1"
     id="path4"
     fill-rule="evenodd"
     fill="#ff0400"
     d="m37.36121 118.4785c-19.928 0-38.06 15.818-36.23 35.853l24.26 265.41c1.733 18.966 16.271 34.947 36.2 34.947h383.41c19.933 0 34.1-16.05 36.2-34.853l29.632-265.41c1.123-10.05-3.137-19.263-9.971-25.663-6.833-6.399-16.258-10.284-26.22-10.284h-437.27" />
  <path
     id="path6"
     opacity=".764"
     fill-rule="evenodd"
     fill="#0a0a0a"
     d="m108.5512 57.3085c-7.96299 0-15.10999 2.403-20.57199 6.33-4.545 3.266-7.702 7.931-8.703 13.187h-12.13c-17.677 0-29.802 12.771-29.802 30.661v3.956c0-16.17 13.355-29.27 29.802-29.27h14.286c1-5.256 2-9.657 6.549-12.923 5.465-3.927 12.609-6.33 20.57199-6.33h43.78c7.963 0 15.371 2.403 20.835 6.33 4.545 3.266 5.766 7.668 6.769 12.923h264.88c16.447 0 29.802 11.455 29.802 27.625v-3.956c0-16.17-13.355-29.01-29.802-29.01h-262.95c-1-5.256-4.159-9.921-8.703-13.187-5.465-3.927-12.872-6.33-20.835-6.33z" />
  <path
     id="path8"
     opacity=".4"
     fill-rule="evenodd"
     fill="#0a0a0a"
     d="m37.35121 118.4685c-19.928 0-38.05 15.84-36.22 35.875l.406 4.375c3-15.936 18.732-27.563 35.813-27.563h437.27999c9.966 0 19.386 3.882 26.22 10.281 4.736 4.435 8.234 10.208 9.563 16.688l.406-3.688c1.123-10.05-3.134-19.288-9.969-25.688-6.833-6.399-16.252-10.281-26.22-10.281h-437.27999" />
  <text
     style="line-height:1.25;font-family:'Noto Sans';font-size:192px;-inkscape-font-specification:'Noto Sans, Normal';white-space:pre;shape-inside:url(#rect855);"
     id="text853"
     xml:space="preserve" />
  <text
     id="text861"
     y="378.78867"
     x="256.15506"
     style="font-size:192px;line-height:1.25;font-family:'Noto Sans';-inkscape-font-specification:'Noto Sans, Normal'"
     xml:space="preserve"><tspan
       y="378.78867"
       x="256.15506"
       id="tspan859"
       sodipodi:role="line" /></text>
  <text
     id="text865"
     y="361.43286"
     x="239.43787"
     style="font-size:192px;line-height:1.25;font-family:'Noto Sans';-inkscape-font-specification:'Noto Sans, Normal';white-space:pre;inline-size:0"
     xml:space="preserve"><tspan
       y="361.43286"
       x="239.43787"
       id="tspan863" /></text>
  <text
     id="text869"
     y="340.34442"
     x="208.89752"
     style="font-size:192px;line-height:1.25;font-family:'Noto Sans';-inkscape-font-specification:'Noto Sans, Normal'"
     xml:space="preserve"><tspan
       y="340.34442"
       x="208.89752"
       id="tspan867"
       sodipodi:role="line" /></text>
  <text
     id="text873"
     y="345.71912"
     x="222.98552"
     style="font-size:192px;line-height:1.25;font-family:'Noto Sans';-inkscape-font-specification:'Noto Sans, Normal'"
     xml:space="preserve"><tspan
       y="345.71912"
       x="222.98552"
       id="tspan871"
       sodipodi:role="line" /></text>
  <text
     transform="scale(1.0385221,0.96290678)"
     id="text877"
     y="413.01315"
     x="205.33803"
     style="font-size:304.15px;line-height:1.25;font-family:'Noto Sans';-inkscape-font-specification:'Noto Sans, Normal';stroke-width:1.58411"
     xml:space="preserve"><tspan
       style="stroke-width:1.58411"
       y="413.01315"
       x="205.33803"
       id="tspan875"
       sodipodi:role="line">!</tspan></text>
</svg>
