<?xml version="1.0" encoding="UTF-8" standalone="no"?>
<svg
   xmlns:dc="http://purl.org/dc/elements/1.1/"
   xmlns:cc="http://creativecommons.org/ns#"
   xmlns:rdf="http://www.w3.org/1999/02/22-rdf-syntax-ns#"
   xmlns:svg="http://www.w3.org/2000/svg"
   xmlns="http://www.w3.org/2000/svg"
   xmlns:sodipodi="http://sodipodi.sourceforge.net/DTD/sodipodi-0.dtd"
   xmlns:inkscape="http://www.inkscape.org/namespaces/inkscape"
   inkscape:version="1.0 (4035a4fb49, 2020-05-01)"
   sodipodi:docname="user-home.svg"
   id="svg16"
   version="1.1"
   width="512"
   viewBox="0 0 512 512"
   height="512">
  <metadata
     id="metadata22">
    <rdf:RDF>
      <cc:Work
         rdf:about="">
        <dc:format>image/svg+xml</dc:format>
        <dc:type
           rdf:resource="http://purl.org/dc/dcmitype/StillImage" />
      </cc:Work>
    </rdf:RDF>
  </metadata>
  <defs
     id="defs20" />
  <sodipodi:namedview
     inkscape:current-layer="svg16"
     inkscape:window-maximized="0"
     inkscape:window-y="196"
     inkscape:window-x="1493"
     inkscape:cy="256"
     inkscape:cx="254.98614"
     inkscape:zoom="1.9726562"
     showgrid="false"
     id="namedview18"
     inkscape:window-height="1147"
     inkscape:window-width="1585"
     inkscape:pageshadow="2"
     inkscape:pageopacity="0"
     guidetolerance="10"
     gridtolerance="10"
     objecttolerance="10"
     borderopacity="1"
     bordercolor="#666666"
     pagecolor="#ffffff" />
  <path
     id="path2"
     fill-rule="evenodd"
     fill="#565656"
     d="m108.63121 57.3705c-7.963 0-15.228 2.293-20.693 6.22-4.545 3.266-7.751 7.872-8.752 13.13h-11.909c-16.447 0-29.883 13.03-29.883 29.2v66.736c0 16.17 13.436 29.19 29.883 29.19h377.47c16.447 0 29.883-13.03 29.883-29.19v-66.736c0-16.17-13.436-29.2-29.883-29.2h-262.91c-1-5.256-4.208-9.862-8.753-13.13-5.465-3.927-12.73-6.22-20.693-6.22h-43.761" />
  <path
     id="path4"
     fill-rule="evenodd"
     fill="#ff0400"
     d="m37.36121 118.4605c-19.928 0-38.06 15.818-36.23 35.853l24.26 265.41c1.733 18.966 16.271 34.947 36.2 34.947h383.41c19.933 0 34.1-16.05 36.2-34.853l29.632-265.41c1.123-10.05-3.137-19.263-9.971-25.663-6.833-6.399-16.258-10.284-26.22-10.284h-437.27" />
  <path
     id="path6"
     opacity=".764"
     fill-rule="evenodd"
     fill="#0a0a0a"
     d="m108.5512 57.2905c-7.96299 0-15.10999 2.403-20.57199 6.33-4.545 3.266-7.702 7.931-8.703 13.187h-12.13c-17.677 0-29.802 12.771-29.802 30.661v3.956c0-16.17 13.355-29.27 29.802-29.27h14.286c1-5.256 2-9.657 6.549-12.923 5.465-3.927 12.609-6.33 20.57199-6.33h43.78c7.963 0 15.371 2.403 20.835 6.33 4.545 3.266 5.766 7.668 6.769 12.923h264.88c16.447 0 29.802 11.455 29.802 27.625v-3.956c0-16.17-13.355-29.01-29.802-29.01h-262.95c-1-5.256-4.159-9.921-8.703-13.187-5.465-3.927-12.872-6.33-20.835-6.33z" />
  <path
     id="path8"
     opacity=".4"
     fill-rule="evenodd"
     fill="#0a0a0a"
     d="m37.35121 118.4505c-19.928 0-38.05 15.84-36.22 35.875l.406 4.375c3-15.936 18.732-27.563 35.813-27.563h437.27999c9.966 0 19.386 3.882 26.22 10.281 4.736 4.435 8.234 10.208 9.563 16.688l.406-3.688c1.123-10.05-3.134-19.288-9.969-25.688-6.833-6.399-16.252-10.281-26.22-10.281h-437.27999" />
  <path
     id="path10"
     stroke-width="7.489"
     stroke-linejoin="round"
     stroke="#ffffff"
     fill-rule="evenodd"
     fill="#0a0a0a"
     d="m158.95374 281.64892v126.06646h64.75314v-59.52821-4.0756c0-6.16475 4.93962-11.10601 11.10601-11.10601h42.38624c6.16475 0 11.10601 4.93963 11.10601 11.10601v4.0756 59.52821h64.75313v-126.06646h-194.09638z" />
  <path
     id="path12"
     stroke-width="8.678"
     stroke-linejoin="round"
     stroke="#ffffff"
     fill-rule="evenodd"
     fill="#0a0a0a"
     d="m132.0595 283.63695l61.97059-58.92229 61.97058-58.92229 61.97059 58.92229 61.97058 58.92229h-123.94961z" />
  <path
     id="path14"
     fill-rule="evenodd"
     fill="#0a0a0a"
     d="m169.35121 195.6805c-.498.101-.892.54-.892 1.07v2.165c0 .605.491 1.096 1.096 1.096h1.809v74.69h25.6v-74.68h1.809c.605 0 1.07-.491 1.07-1.096v-2.165c0-.605-.465-1.07-1.07-1.07h-29.22c-.076 0-.133-.015-.204 0" />
  <path
     id="path24"
     d="m 156.42491,409.7851 c -1.04953,-1.33427 -1.05065,-1.3999 -1.05065,-61.59208 v -60.25639 l -11.78614,-0.007 c -8.40853,-0.005 -12.14493,-0.18902 -13.03814,-0.64099 -1.69461,-0.85749 -2.78267,-2.91778 -2.38264,-4.51163 0.20412,-0.81327 7.37829,-8.00153 19.46804,-19.50627 10.52965,-10.02013 20.11432,-19.08935 21.29927,-20.15383 l 2.15446,-1.9354 -0.0105,5.50849 -0.0105,5.50849 -14.20818,13.43366 -14.20817,13.43367 56.84146,0.12892 c 31.2628,0.0709 82.26388,0.0709 113.33573,0 l 56.49429,-0.12892 -53.29797,-50.69307 c -29.31388,-27.88119 -54.82811,-52.10031 -56.69828,-53.82027 l -3.40033,-3.1272 -29.11183,27.68364 -29.11182,27.68364 -0.14345,-5.37696 -0.14345,-5.37696 4.9593,-4.78671 c 22.42796,-21.64748 51.79884,-49.12862 52.76653,-49.37149 0.65248,-0.16377 1.68277,-0.0664 2.28954,0.21634 0.60677,0.28275 29.2206,27.25399 63.5863,59.93608 41.28831,39.26557 62.59418,59.86467 62.81062,60.727 0.40456,1.61191 -0.67449,3.66662 -2.37834,4.52878 -0.89321,0.45197 -4.62961,0.63566 -13.03814,0.64099 l -11.78614,0.007 v 60.25639 c 0,60.19218 -0.001,60.25781 -1.05065,61.59208 l -1.05066,1.33569 h -33.84899 c -33.76435,0 -33.85141,-0.003 -34.81469,-1.06673 -0.92405,-1.02073 -0.97663,-2.53997 -1.21917,-35.22354 l -0.25346,-34.1568 -1.90907,-1.90914 -1.90908,-1.90913 -23.67692,-0.14154 c -16.39475,-0.098 -24.09167,0.0303 -25.02542,0.41702 -0.74169,0.30722 -2.00265,1.2412 -2.80214,2.07551 l -1.45361,1.51693 -0.25346,34.13198 c -0.24253,32.65914 -0.29514,34.178 -1.21917,35.19871 -0.96328,1.06407 -1.05034,1.06673 -34.81469,1.06673 h -33.84899 z m 63.83648,-36.91856 c 0,-29.89939 0.0409,-31.26644 1.01224,-33.86268 1.20957,-3.23287 4.41719,-6.68102 7.60558,-8.17591 2.22354,-1.0425 2.90892,-1.06953 27.12079,-1.06953 24.35655,0 24.88551,0.0212 27.20004,1.09108 3.22967,1.49288 6.25441,4.75485 7.50266,8.09108 1.002,2.67809 1.03591,3.78884 1.03591,33.92596 v 31.15722 h 28.89505 28.89505 V 345.9802 287.93663 H 256 162.47129 v 58.04357 58.04356 h 28.89505 28.89505 z"
     style="fill:#0a0a0a;fill-opacity:1;stroke-width:0.506931;opacity:1" />
  <path
     id="path849"
     d="m 171.06811,252.19849 c -0.25443,1.83052 -0.35232,3.68971 -0.76328,5.49155 -0.0345,0.15125 -1.32478,0.79774 -1.49369,0.98669 -1.04131,1.16486 -2.06977,3.08956 -2.99703,4.23283 -0.42534,0.52443 -1.8515,0.76764 -2.08032,1.24397 -0.16038,0.33384 -0.25542,0.99234 -0.50693,1.26244 -0.29145,0.31297 -0.88774,0.18429 -1.18503,0.49173"
     style="fill:none;stroke:#000000;stroke-width:1px;stroke-linecap:butt;stroke-linejoin:miter;stroke-opacity:1" />
  <path
     d="m 169.42055,256.71512 c -1.56922,1.20566 -3.22195,2.28464 -4.85637,3.39548 -1.27942,0.85278 -2.48732,1.82339 -3.66404,2.81235 -0.55363,0.37883 -1.04796,0.8359 -1.55794,1.27128 0,0 6.98113,-2.82372 6.98113,-2.82372 v 0 c 0.50311,-0.42152 1.00335,-0.84556 1.52477,-1.24474 1.19623,-0.95208 2.37566,-1.92983 3.67488,-2.74189 1.65977,-1.10818 3.28651,-2.26597 4.85486,-3.50093 0,0 -6.95729,2.83217 -6.95729,2.83217 z"
     id="path851"
     style="opacity:1;fill:#0a0a0a;fill-opacity:1" />
  <path
     d="m 169.31907,255.01122 c -1.22365,1.15839 -2.43339,2.33281 -3.71629,3.42725 -1.12507,0.90323 -2.15098,1.91628 -3.25138,2.84615 -1.18962,0.95225 -2.30051,1.97518 -3.29127,3.13198 -0.96109,1.27101 -2.10313,2.38661 -3.06786,3.65582 -0.85139,1.1048 -1.45206,2.37313 -2.2144,3.53379 0,0 6.8491,-3.0232 6.8491,-3.0232 v 0 c 0.69731,-1.18892 1.39573,-2.38289 2.25803,-3.46276 0.99499,-1.22448 2.06316,-2.38519 3.06592,-3.6032 1.02953,-1.10337 2.17712,-2.07534 3.32919,-3.04806 1.06904,-0.96561 2.16008,-1.90361 3.2509,-2.84462 1.27373,-1.133 2.48479,-2.33518 3.74567,-3.48253 0,0 -6.95761,2.86938 -6.95761,2.86938 z"
     id="path853"
     style="opacity:1;fill:#0a0a0a;fill-opacity:1" />
  <path
     d="m 162.0293,255.74976 c -0.62118,1.71874 -1.43791,3.32791 -2.51699,4.8002 -0.85476,1.12567 -1.89493,2.0934 -2.77737,3.19278 -0.90577,0.85297 -1.62618,1.89751 -2.22559,2.98329 -0.64804,0.88908 -1.0579,1.91815 -1.66432,2.82986 -0.17823,0.44008 -1.62972,2.64183 -1.60082,2.86623 0.0334,0.25923 0.29043,0.43464 0.43565,0.65196 2.36364,-1.34933 4.78035,-2.6097 7.09094,-4.048 0.13458,-0.0838 1.66426,-1.89203 1.6665,-1.89476 0.86504,-1.04978 1.72623,-2.10594 2.57153,-3.17182 1.08999,-1.47948 2.19364,-2.94609 3.28044,-4.42768 0.82861,-0.84503 1.61578,-1.73622 2.45921,-2.56363 0.83288,-0.84619 1.48604,-1.8374 2.24238,-2.74896 0.8024,-1.13447 1.53265,-2.32084 2.14504,-3.56857 0.48459,-0.90662 0.50009,-1.89485 0.53364,-2.89415 0.0642,-0.96947 -0.0706,-1.9319 -0.14537,-2.89636 -0.14429,-0.69027 -0.32246,-1.37206 -0.41327,-2.07224 -0.33622,-2.86054 -0.56142,-0.37375 -6.77619,3.49092 -0.12434,0.0773 -0.0567,0.28745 -0.0934,0.42919 -0.5555,2.14494 0.27081,-1.24982 -0.34871,1.3331 -0.22323,1.4369 -0.68387,2.80878 -1.08257,4.19979 -0.31884,1.25685 -0.61764,2.52698 -1.13484,3.71962 -0.71901,1.1612 -1.81265,2.02137 -2.73898,3.0144 -0.23632,0.16813 -0.46858,0.34213 -0.70896,0.50441 -1.03781,0.70057 -1.97877,1.20772 -1.8217,1.11643 9.85533,-5.72805 5.68704,-3.25766 3.3616,-2.10099 -2.88843,1.56563 -3.21599,1.73394 -7.85903,4.50961 -0.22098,0.13211 -0.38975,0.3367 -0.59086,0.49745 -0.508,0.40606 -1.05956,0.73949 -1.5777,1.13119 -1.17121,0.95092 -1.99172,2.21687 -2.98597,3.32969 -0.85752,1.04438 -1.80728,2.01542 -2.57566,3.12916 -0.51019,0.83073 -1.01843,1.66324 -1.54539,2.48892 -0.71851,1.27091 -1.27563,2.62659 -1.8055,3.9847 -0.42283,0.79319 -0.63871,1.67613 -0.98229,2.49929 -0.43071,1.03193 -0.0182,-0.21767 -0.3083,0.71483 -0.12154,1.44095 1.60819,0.53083 2.22087,0.3579 0.45237,-0.10792 0.903,-0.22342 1.35711,-0.32376 0.97012,-0.21436 2.91068,-0.5328 3.73987,-0.96698 4.98502,-2.61023 7.68087,-3.89841 11.3097,-7.15196 0.83378,-0.74755 1.59725,-1.56998 2.39587,-2.35497 1.39305,-1.60646 2.355,-2.61242 3.53525,-4.3336 0.51085,-0.74497 1.65696,-2.26462 0.98138,-3.29099 -0.13569,-0.20614 -0.38241,-0.31206 -0.57361,-0.4681 -0.28264,-0.0117 -0.56978,-0.0868 -0.84792,-0.0352 -0.53861,0.0999 -1.61213,0.71489 -2.03663,0.95133 -0.9674,0.53883 -1.92981,1.08665 -2.88895,1.64004 -2.59822,1.49908 -5.18991,3.00946 -7.78487,4.51419 11.70646,-6.63265 -1.64882,0.59564 -5.24672,3.20894 -0.84668,0.61497 -0.73133,0.54779 -1.43342,1.22622 -0.70482,0.67543 -1.14829,1.51315 -1.52265,2.39894 -0.0674,0.15951 -0.23873,0.30819 -0.20392,0.47783 0.0491,0.23942 0.28309,0.39849 0.42463,0.59774 0.23554,0.0274 0.47369,0.12662 0.70662,0.0822 0.2697,-0.0514 0.50413,-0.22056 0.74165,-0.35825 2.41314,-1.39885 4.80686,-2.83094 7.20811,-4.2501 0.3109,-0.18374 1.2408,-0.73964 0.92832,-0.55859 -5.91198,3.42528 -7.11861,3.89549 -3.85105,2.44919 3.50143,-1.04073 7.12848,-2.01946 10.80538,-2.01295 1.44046,0.15366 2.99386,0.66627 3.84718,1.91077 0.003,0.15406 0.0381,0.31085 0.009,0.46218 -0.17186,0.89637 -0.69072,1.8051 -1.06606,2.62235 -0.60667,1.3209 -0.31953,0.67782 -0.87607,1.95854 -0.60299,1.10147 -1.14795,2.23544 -1.6055,3.40421 -0.34703,0.96167 -0.36995,1.98952 -0.39349,3.0001 -0.0416,1.19115 -0.28059,2.36759 -0.39891,3.55534 -0.10481,1.35812 -0.0909,2.72347 -0.11118,4.0851 -0.0221,1.07046 -0.0161,2.14103 -0.004,3.21154 0.0164,1.31649 0.009,2.63319 -0.003,3.94969 -0.0143,0.93878 -0.009,1.87758 0.001,2.81635 0.008,1.11298 -0.007,2.22594 -0.001,3.33891 0.0335,1.07826 0.0203,2.13343 -0.16921,3.1945 -0.17117,1.2434 -0.27402,2.48892 -0.44677,3.7325 -0.19522,1.59623 -0.52175,3.17184 -0.73705,4.76624 -0.1434,1.09565 -0.15289,2.20372 -0.16441,3.30708 -0.0257,1.21826 0.0808,2.43629 -0.0598,3.64854 -0.18228,1.37406 -0.31422,2.75394 -0.39573,4.13748 0.0388,1.30681 -0.16618,2.57841 -0.34344,3.86762 -0.17085,1.2165 -0.27082,2.4407 -0.31655,3.66782 -0.0255,0.99301 -0.0165,1.98657 -0.0158,2.97983 -0.0716,1.1224 0.0908,2.22102 0.23869,3.32889 0.21078,1.50806 0.45566,3.00888 0.59841,4.52664 0.10262,1.16399 0.1151,2.33286 0.13011,3.50043 0.0415,1.96763 0.0391,3.93585 0.0265,5.9038 -0.0242,1.55595 -0.017,3.11205 -0.0239,4.66811 -0.0256,1.12389 -0.0382,2.23514 0.10293,3.35023 0.0743,1.26716 0.58886,2.43907 0.90875,3.65345 0.34661,1.21905 0.57447,2.44886 0.69894,3.7099 0.28336,1.52341 0.46565,3.05742 0.55988,4.60324 0.0622,1.2337 0.0643,2.46933 0.068,3.70427 -3e-4,1.13431 0.2357,2.25165 0.33613,3.38054 0.0841,1.05084 0.0851,2.10522 0.0994,3.15852 -0.0969,1.43471 -0.55425,2.8021 -0.85308,4.20027 -0.30036,1.68321 -0.72936,3.33681 -0.99986,5.02636 -0.1828,1.13139 -0.15696,2.2808 -0.16415,3.42292 0.10989,1.18864 0.22325,2.37561 0.28205,3.56819 -0.10895,1.09299 0.3254,2.06791 0.59802,3.09558 0.11813,0.42541 0.32568,0.80419 0.56146,1.17238 0,0 6.50888,-3.8321 6.50888,-3.8321 v 0 c -0.21956,-0.27973 -0.3702,-0.58378 -0.46099,-0.93136 -0.27075,-0.97983 -0.63218,-1.90506 -0.53855,-2.94909 -0.0723,-1.17606 -0.19756,-2.34775 -0.26388,-3.52382 0.0114,-1.10981 0.0376,-2.22172 0.20769,-3.32089 0.25711,-1.6666 0.65316,-3.30509 0.98228,-4.95822 0.3615,-1.446 0.79256,-2.88867 0.83603,-4.39038 -0.007,-1.06927 -0.0525,-2.13853 -0.1413,-3.20424 -0.10071,-1.10876 -0.32799,-2.2078 -0.3042,-3.32431 -0.005,-1.24549 -0.0246,-2.49114 -0.11688,-3.7338 -0.1182,-1.55291 -0.31409,-3.09187 -0.56952,-4.62815 -0.14261,-1.29849 -0.36392,-2.57669 -0.7299,-3.83287 -0.33563,-1.1741 -0.82091,-2.31542 -0.84523,-3.55526 -0.10873,-1.08387 -0.0917,-2.17051 -0.0942,-3.25908 -0.006,-1.54856 0.002,-3.09715 -0.0192,-4.64563 -0.009,-1.97948 -0.003,-3.95898 0.0257,-5.93827 -0.005,-1.18808 -0.0315,-2.37685 -0.17631,-3.55769 -0.17676,-1.52116 -0.42472,-3.03268 -0.58825,-4.55515 -0.14308,-1.08029 -0.23437,-2.15593 -0.18137,-3.24748 -9.9e-4,-0.9848 -0.001,-1.96977 0.0307,-2.95419 0.0477,-1.19763 0.13778,-2.39357 0.31277,-3.58008 0.19124,-1.30693 0.34288,-2.60995 0.33757,-3.93363 0.0802,-1.37521 0.22076,-2.74432 0.39159,-4.11117 0.0762,-1.23616 0.0451,-2.47581 0.0626,-3.714 0.0129,-1.07387 0.0413,-2.14877 0.18011,-3.2152 0.20117,-1.59057 0.51674,-3.16212 0.72835,-4.75105 0.18586,-1.24475 0.27545,-2.49906 0.48621,-3.74022 0.1526,-1.09541 0.114,-2.19438 0.11278,-3.29824 0.006,-1.11262 -0.009,-2.22522 -0.001,-3.33784 0.01,-0.93925 0.0158,-1.87851 0.001,-2.81777 -0.0128,-1.31496 -0.0211,-2.6301 -0.007,-3.94508 0.009,-1.06729 0.01,-2.13451 3.3e-4,-3.20182 0.002,-1.34342 0.0157,-2.68886 0.15458,-4.02648 0.13097,-1.19919 0.36469,-2.3896 0.37944,-3.59855 0.0559,-0.94562 0.12741,-1.89496 0.52313,-2.77119 0.4875,-1.1279 0.98573,-2.24912 1.52755,-3.35247 0.59471,-1.37218 1.84102,-3.49917 1.82084,-4.97897 -0.004,-0.26156 -0.11007,-0.51145 -0.1651,-0.76718 -0.97557,-1.44437 -2.66788,-2.17346 -4.35137,-2.42848 -0.47389,-0.018 -0.94785,-0.0736 -1.42169,-0.0541 -3.25156,0.13386 -6.4275,1.18797 -9.5883,1.84758 -4.07061,1.49925 -1.22824,0.36094 -8.83687,4.76932 -0.31797,0.18423 -1.25485,0.7648 -0.93372,0.58614 1.85361,-1.03127 3.68216,-2.10704 5.53227,-3.14458 0.36391,-0.20408 -1.32647,0.66958 -0.90373,0.86604 0.0161,0.12089 -0.0673,0.40203 0.0482,0.36265 0.15306,-0.0522 0.12246,-0.29962 0.19325,-0.44503 0.39355,-0.8084 0.94114,-1.51391 1.60945,-2.11562 0.76144,-0.64564 1.5508,-1.22107 2.3917,-1.76182 0.39683,-0.25519 1.6139,-0.97754 1.20243,-0.74669 -0.27977,0.15696 -17.98733,10.36878 2.99308,-1.72866 -10.14778,5.80966 -1.90288,1.1629 0.4707,-0.2824 0.0834,-0.0325 0.17467,-0.14564 0.25021,-0.0976 0.23292,0.14816 -0.0406,0.858 -0.18359,1.15422 -1.0203,2.11344 -2.72627,3.81298 -4.24703,5.5552 -0.80499,0.76267 -1.57068,1.56908 -2.41496,2.28803 -0.86553,0.73705 -3.83782,1.95313 -2.70743,2.07396 1.37696,0.14717 2.56894,-1.11497 3.65625,-1.97255 0.54246,-0.42785 -1.30184,0.46881 -1.97043,0.64291 -0.53382,0.13901 -1.08666,0.19083 -1.6285,0.29427 -0.42812,0.0817 -0.85415,0.17411 -1.28122,0.26117 -1.47096,0.25386 -0.15296,-0.0137 -1.21932,0.28793 -0.4546,0.12857 -0.55971,0.19109 -0.15399,0.79289 0.0217,0.0321 0.0295,-0.0716 0.0443,-0.10745 0.42592,-1.04381 0.75262,-2.12757 1.22979,-3.15171 0.55015,-1.32974 1.11988,-2.65975 1.89136,-3.87938 0.50508,-0.82877 1.06563,-1.61874 1.57955,-2.44142 0.82239,-1.04816 1.69895,-2.04977 2.56301,-3.0635 0.93745,-1.14499 1.85941,-2.31824 3.08121,-3.18072 0.52106,-0.36751 1.02391,-0.76017 1.54356,-1.12882 0.20213,-0.1434 0.83433,-0.53449 0.61863,-0.41243 -4.53401,2.56565 -7.77407,4.55584 -4.91519,2.80791 4.11222,-2.06171 8.32337,-4.10699 11.87772,-7.04358 0.97274,-1.01736 2.10828,-1.94823 2.64424,-3.28855 0.43068,-1.23526 0.74026,-2.50637 1.08883,-3.7664 0.42738,-1.38909 0.75319,-2.799 1.05669,-4.21982 0.0616,-0.22812 0.31437,-1.14522 0.36684,-1.40576 0.0349,-0.17332 0.23778,-0.59017 0.0733,-0.52529 -7.45909,2.94281 -7.13259,0.74731 -6.645,3.43765 0.11927,0.67404 0.30705,1.33301 0.41637,2.00874 0.078,0.93398 0.18056,1.86824 0.11118,2.80691 -0.0546,0.91725 -0.1983,1.78951 -0.6596,2.6014 -0.63286,1.20032 -1.35233,2.3582 -2.20093,3.41918 -0.73515,0.922 -1.43261,1.87605 -2.28435,2.69797 -0.80022,0.87741 -1.68947,1.67639 -2.39171,2.63936 -1.08881,1.44675 -2.09427,2.95189 -3.21615,4.3738 -0.83695,1.05153 -1.67437,2.11046 -2.55827,3.12317 -2.10881,2.41616 -5.99606,4.73996 4.25516,-1.2517 0.0611,0.2003 -0.0224,0.56114 0.18321,0.60091 0.19053,0.0369 0.18321,-0.34216 0.27747,-0.51179 0.43399,-0.78102 0.89683,-1.5447 1.3541,-2.31208 0.53863,-0.95437 1.05772,-1.9176 1.65794,-2.83623 0.66436,-1.02797 1.39425,-1.99931 2.26346,-2.86604 0.93848,-1.05369 1.90247,-2.09176 2.71978,-3.24495 1.02751,-1.56072 1.76966,-3.26675 2.48949,-4.98745 0,0 -6.81787,3.16677 -6.81787,3.16677 z"
     id="path855"
     style="opacity:1;fill:#0a0a0a;fill-opacity:1" />
  <path
     d="m 224.73479,402.96349 c -0.30024,-1.86127 -0.27776,-3.75218 -0.48275,-5.62187 -0.14931,-1.0244 -0.18618,-2.0863 -0.51841,-3.07705 -0.14679,-0.43772 -0.35942,-0.85054 -0.53905,-1.27584 -0.50216,-1.12742 -0.69506,-2.34921 -0.9448,-3.54888 -0.24828,-1.32592 -0.5764,-2.62824 -0.738,-3.96991 -0.12077,-1.18481 -0.12957,-2.37706 -0.1461,-3.56677 -0.0857,-1.67254 0.0772,-3.32963 0.22889,-4.9923 0.14136,-1.42792 0.24189,-2.85792 0.27762,-4.2922 0.0196,-1.01543 0.026,-2.03112 0.0284,-3.04672 -0.0136,-1.10769 -0.0173,-2.21535 -0.0105,-3.3231 0.052,-1.00291 -0.003,-1.97983 -0.1698,-2.96763 -0.17816,-0.97021 -0.26035,-1.95263 -0.30252,-2.93691 -0.18901,-0.97857 -0.31831,-1.9623 -0.38395,-2.9564 0.031,-1.12807 -0.20187,-2.22387 -0.38888,-3.32865 -0.10094,-0.7889 -0.20995,-1.59495 -0.11458,-2.38846 0.021,-0.82228 0.28015,-1.58266 0.4617,-2.37471 0.0966,-1.00449 0.34062,-1.9392 0.65673,-2.89307 0.18243,-1.04631 0.84447,-1.84065 1.35963,-2.72851 0.37998,-0.69036 0.46171,-1.47806 0.51006,-2.25083 0.15924,-0.90843 0.40779,-1.8057 0.79488,-2.64589 0.57911,-1.0663 1.47989,-1.89848 2.21692,-2.84876 0.7917,-0.68774 1.39516,-1.57077 2.17543,-2.26176 0.49734,-0.49459 1.00701,-0.95565 1.44689,-1.50508 0.23903,-0.0554 0.29029,-0.31429 0.46083,-0.44142 0.0915,-0.0682 0.41197,-0.19493 0.3138,-0.13678 -10.64172,6.30317 -7.33103,4.18684 -4.97266,2.94855 1.06591,-0.51741 2.13183,-1.03513 3.22035,-1.50344 3.21121,-1.49035 2.54575,-0.65292 6.84551,-5.22871 0.2329,-0.24786 -0.67839,0.0499 -1.01758,0.0749 -0.4814,0.0371 -1.1063,0.13314 -1.60814,0.0327 -0.17329,-0.0347 0.27994,-0.21619 0.41242,-0.33316 0.4972,-0.43894 0.91472,-0.96069 1.37886,-1.43446 2.37818,-2.28682 6.92391,-3.3467 -4.4878,2.18655 -0.1522,0.0738 -0.26222,-0.21373 -0.39333,-0.3206 -0.17556,0.1465 -0.35112,0.29301 -0.52667,0.43952 -1.74219,2.05388 -3.69259,3.91985 -5.52154,5.89544 -1.16321,1.18575 -2.36951,2.3449 -3.37844,3.66834 -0.77986,1.02083 -1.59755,2.00344 -2.21816,3.13266 -0.53384,1.14914 -0.82636,2.37799 -1.00913,3.62557 -0.33132,3.35265 -1.75279,2.71281 6.67951,-2.47243 0.19319,-0.11879 0.002,-0.45497 0.0343,-0.67951 0.0647,-0.4545 0.16992,-0.90229 0.25487,-1.35343 0.95353,-3.69029 1.94727,-7.37023 3.12518,-10.9954 0.45946,-1.2709 1.04403,-2.57563 1.93166,-3.61287 2.24209,-1.42707 4.55521,-3.09297 -6.01553,3.31241 -0.0862,0.0522 0.0701,0.18951 0.0923,0.28776 0.0713,0.31579 0.0802,0.5774 0.10681,0.90141 0.15163,0.53252 -0.65938,1.48765 -0.51376,1.94805 0.25041,0.79168 0.80929,0.83464 1.48929,1.1367 2.88676,0.53551 5.84772,0.57446 8.77713,0.64601 1.86489,0.0407 3.72997,0.0237 5.595,0.0118 1.58883,-0.0117 3.17771,-0.002 4.7665,0.0102 3.44302,0.0585 3.5671,-0.0879 7.36789,-4.58686 0.32609,-0.386 -0.96825,-0.28956 -1.45237,-0.43434 -3.43867,-0.67829 -6.91827,-1.11766 -10.37724,-1.6806 -2.88245,-0.43104 -5.77598,-0.78167 -8.66161,-1.1891 -2.67654,-0.61854 -1.21571,-0.37849 -6.17353,4.29272 -0.31811,0.29971 0.86827,-0.1062 1.30464,-0.13079 3.18135,-0.17926 6.36806,-0.0366 9.54935,0.0552 4.72477,0.17139 9.44613,0.42209 14.1684,0.64954 2.49924,0.11699 4.93042,0.83814 7.37622,1.33165 2.33754,0.48653 4.70062,0.83418 7.03725,1.32328 1.35784,0.3337 2.73075,0.52426 4.12769,0.44884 1.13772,-0.12596 2.27567,-0.23689 3.41902,-0.29591 0.77321,-0.0774 1.5634,0.0319 2.32851,-0.10631 3.57687,-0.8362 1.83594,-0.58005 7.85569,-4.51137 -1.14293,-1.77887 -3.26879,-2.43204 -5.21276,-2.91854 -0.45349,-0.0854 -0.90494,-0.1824 -1.36046,-0.2562 -0.81717,-0.11095 -1.72418,-0.22753 -2.5422,-0.36222 -0.2985,-0.0491 -0.5971,-0.0993 -0.89262,-0.16397 -0.13512,-0.0296 -0.43831,-0.25076 -0.39769,-0.11853 0.0822,0.26743 0.36984,0.41988 0.55476,0.62982 -8.00368,4.60472 -7.45229,3.36042 -3.37836,3.66587 1.9874,0.149 3.95448,0.43333 5.92554,0.7193 2.23029,0.34611 4.49443,0.63597 6.62794,1.40216 0.6148,0.20623 0.81121,0.64984 1.03994,1.19524 0.50698,0.9135 1.3367,1.58953 2.1149,2.26468 0.82078,0.67605 1.61956,1.39755 2.33137,2.18945 0.48987,0.44895 0.66546,1.05688 0.86241,1.66946 0.26594,1.05765 0.85309,1.98746 1.19643,3.02484 0.49741,0.93841 0.53422,2.00852 0.82912,3.00514 0.28243,0.80819 0.45118,1.6398 0.52639,2.49046 0.0558,0.85091 0.05,1.70423 0.0512,2.55651 -10e-4,0.91905 -0.002,1.83811 -0.003,2.75716 -0.12114,0.78116 -0.25807,1.55653 -0.31441,2.34571 -0.0544,0.75586 -0.0508,1.5134 -0.047,2.27057 0.007,1.02851 -0.0324,2.04751 0.12904,3.06526 0.15709,0.89812 0.19817,1.81037 0.22748,2.7199 0.0352,1.08828 0.0216,2.17724 0.0159,3.26583 -0.0416,0.90374 -0.007,1.7798 0.16213,2.66687 0.16322,0.75242 0.2438,1.51602 0.28228,2.28368 0.0319,0.8139 0.0247,1.62855 0.0254,2.44286 -0.007,0.89952 9.4e-4,1.79874 0.0109,2.69818 0.006,1.24734 -0.0333,2.49048 0.11035,3.73101 0.12305,0.85075 0.1767,1.7082 0.20488,2.56658 0.0388,1.14496 0.0342,2.29063 0.0308,3.43604 -0.009,1.08746 -4.7e-4,2.1749 -0.007,3.26237 -0.0553,0.87739 0.0976,1.7814 -0.0878,2.64454 -0.18856,0.82758 -0.2898,1.67105 -0.35624,2.51616 -0.0419,0.89597 -0.0368,1.79457 -0.0329,2.69155 4.5e-4,1.10131 0.01,2.20256 0.009,3.30386 -0.002,1.00979 -0.003,2.01958 -0.01,3.02936 -0.0122,0.78832 -10e-4,1.57664 10e-4,2.36498 -0.0302,3.21238 -0.92579,2.01804 6.7106,-3.02875 0.1672,-0.11049 -0.0117,-0.40065 -0.0151,-0.60103 -0.004,-0.23113 -0.004,-0.4623 -0.007,-0.69345 -0.005,-1.36525 0.0123,-2.73029 -0.004,-4.09546 -0.11512,-2.37091 0.0217,-4.73104 0.20785,-7.09376 0.0618,-0.92887 0.13521,-1.84857 0.28692,-2.76661 0,0 -6.69975,3.30029 -6.69975,3.30029 v 0 c -0.10017,0.92483 -0.15628,1.85042 -0.20534,2.77952 -0.15136,2.38983 -0.26731,4.77916 -0.25128,7.17481 -0.0165,1.36668 1.8e-4,2.73323 -0.004,4.09998 -0.002,0.2334 -0.003,0.46682 -0.007,0.70019 -0.003,0.2055 -0.20856,0.6857 -0.0151,0.6164 7.22274,-2.58692 6.75846,-0.69224 6.71063,-3.80972 0.003,-0.7888 0.0136,-1.57758 10e-4,-2.36638 -0.007,-1.00629 -0.008,-2.01261 -0.0118,-3.01892 -0.003,-1.1026 0.003,-2.20519 0.004,-3.30779 0.008,-0.88191 10e-4,-1.76506 0.0793,-2.64449 0.0783,-0.83344 0.21743,-1.65631 0.36698,-2.47958 0.0671,-0.90741 0.0137,-1.81805 0.0259,-2.72736 -0.005,-1.08612 0.006,-2.17219 -0.003,-3.25832 -0.004,-1.15855 -0.001,-2.31732 -0.0187,-3.4757 -0.0409,-0.87357 -0.11695,-1.74463 -0.24328,-2.61036 -0.13962,-1.21172 -0.0861,-2.42898 -0.0844,-3.64666 0.0109,-0.90433 0.0211,-1.80849 0.0162,-2.71292 -1.7e-4,-0.82783 -0.004,-1.65615 -0.0425,-2.48324 -0.0529,-0.7936 -0.16794,-1.5781 -0.33211,-2.35664 -0.13715,-0.84558 -0.10451,-1.69471 -0.10309,-2.54936 -0.007,-1.09446 -0.022,-2.18887 -0.0368,-3.28325 -0.033,-0.93912 -0.0906,-1.87841 -0.25081,-2.80586 -0.13879,-0.98125 -0.0891,-1.9713 -0.0802,-2.95986 0.0108,-0.73992 0.022,-1.48096 0.0849,-2.21864 0.0864,-0.79988 0.24482,-1.59215 0.27092,-2.39772 0.001,-0.9203 0.006,-1.84059 0.006,-2.76089 -10e-4,-0.87577 -10e-4,-1.75346 -0.0824,-2.62627 -0.10374,-0.88829 -0.31333,-1.75063 -0.59731,-2.59924 -0.26953,-1.01673 -0.37253,-2.08468 -0.86155,-3.03515 -0.36264,-1.02385 -0.92237,-1.96713 -1.16261,-3.02916 -0.23083,-0.70562 -0.45207,-1.43101 -1.02688,-1.94047 -0.73744,-0.81377 -1.57138,-1.55135 -2.40938,-2.25764 -0.6978,-0.58107 -1.43638,-1.18916 -1.88903,-1.98882 -0.3046,-0.72341 -0.65816,-1.35728 -1.40994,-1.70415 -2.22863,-0.77625 -4.58219,-1.06138 -6.91094,-1.38335 -1.9567,-0.27995 -3.91026,-0.58762 -5.87411,-0.81449 -0.0631,-0.007 -2.34403,-0.25559 -2.44625,-0.21153 -2.46831,1.0638 -4.80466,2.41085 -7.20699,3.61628 0.0931,0.27697 0.0953,0.6038 0.27914,0.83093 0.0835,0.10313 1.35995,0.27996 1.44902,0.2935 1.29538,0.19677 2.60124,0.30086 3.88874,0.54941 1.61745,0.36406 3.31666,0.80602 4.49234,2.06965 7.39288,-4.32681 8.44543,-4.17702 4.92389,-3.42188 -0.19404,0.0657 -0.37463,0.17765 -0.57636,0.21327 -0.54582,0.0964 -1.13711,-0.0637 -1.68585,0.0329 -1.15385,0.0538 -2.30994,0.11768 -3.45356,0.28707 -1.3655,0.16278 -2.69778,0.0782 -4.0411,-0.24799 -2.36997,-0.46568 -4.7593,-0.81605 -7.13347,-1.26144 -1.23334,-0.23663 -1.91874,-0.35387 -3.14434,-0.64694 -1.40828,-0.33677 -2.78406,-0.9142 -4.25842,-0.81302 -4.83317,-0.0733 -9.66468,-0.22942 -14.49487,-0.41088 -2.29809,-0.094 -4.59522,-0.21344 -6.89404,-0.2874 -0.78425,-0.0252 -1.56926,-0.0195 -2.35359,-0.042 -0.41436,-0.0119 -0.88338,-0.26896 -1.24208,-0.0612 -2.25315,1.30509 -4.3318,2.89739 -6.39553,4.48513 -0.12476,0.096 0.31061,0.0512 0.46592,0.0768 2.91552,0.29336 5.82049,0.65875 8.71582,1.11181 3.43518,0.57041 6.91077,0.88625 10.3173,1.61941 0.40586,0.10885 0.8359,0.50232 1.21757,0.32655 11.38285,-5.24208 8.28875,-3.84759 5.02243,-3.88479 -1.6077,0.015 -3.21544,0.0299 -4.82322,0.0285 -1.87291,10e-4 -3.7456,0.0151 -5.61848,0.022 -2.87176,-0.0144 -5.76348,-0.027 -8.6053,-0.48461 -0.2203,-0.0417 -0.86795,-0.13255 -0.87206,-0.20608 -0.0317,-0.56755 0.64171,-1.53381 0.39172,-2.17908 -0.0124,-0.1015 -0.23016,-1.65001 -0.39436,-1.59191 -4.62201,1.63552 -5.66441,1.18547 -7.3651,3.56494 -0.72409,1.18163 -1.33827,2.42236 -1.68913,3.7719 -1.06284,3.67248 -1.98956,7.3828 -3.07981,11.04786 -0.11329,0.49123 -0.23458,0.98068 -0.33986,1.47369 -0.0473,0.22137 -0.33084,0.74489 -0.11764,0.66882 7.80564,-2.78514 6.41743,-0.74266 6.85584,-4.14161 0.20899,-1.17372 0.52206,-2.33277 1.12843,-3.37073 0.67947,-1.05982 1.47204,-2.03556 2.24418,-3.02846 1.05108,-1.24072 2.19483,-2.39878 3.31094,-3.58037 1.8639,-1.98649 3.80315,-3.90657 5.57176,-5.97915 0.15352,-0.26651 0.4284,-0.49365 0.46056,-0.79953 0.0309,-0.2935 -0.0137,-0.94465 -0.28847,-0.83703 -3.55629,1.39282 -6.03827,2.69632 -8.47662,5.12607 -0.31866,0.35146 -1.16109,1.20978 -1.35575,1.6887 -0.68973,1.69697 0.8865,1.78505 2.03619,1.60933 3.64419,-0.34841 0.75693,0.0822 7.67607,-4.65856 0.10503,-0.072 -0.21809,0.13184 -0.33146,0.18978 -0.4322,0.22089 -0.89176,0.27133 -1.31741,0.50395 -1.03342,0.58473 -2.19306,0.94049 -3.23097,1.52577 -3.07104,1.33155 -6.37804,2.73712 -8.62211,5.23405 -0.48325,0.48927 -0.97524,0.96632 -1.45248,1.46211 -0.68691,0.78588 -1.43466,1.51671 -2.10639,2.31585 -0.80444,0.95702 -1.68136,1.8893 -2.15603,3.06608 -0.32442,0.92877 -0.60526,1.87542 -0.71943,2.85624 -0.0788,0.69107 -0.23908,1.34937 -0.63612,1.93475 -0.55348,0.90385 -1.02949,1.82852 -1.26851,2.87195 -0.30761,0.97048 -0.46289,1.95753 -0.65478,2.95433 -0.21194,0.82173 -0.37714,1.64626 -0.41085,2.49782 -0.0115,0.85239 0.0538,1.70609 0.20506,2.54565 0.20534,1.07501 0.39838,2.14563 0.36909,3.24677 0.0727,0.9916 0.22085,1.96882 0.36319,2.95192 0.0606,1.00666 0.17317,2.00798 0.34901,3.00154 0.13843,0.95126 0.11671,1.90362 0.11634,2.86338 0.008,1.11041 0.006,2.22075 -0.005,3.33114 0.004,1.00506 0.0116,2.01023 -0.012,3.01514 -0.0407,1.40985 -0.11927,2.81867 -0.24893,4.2233 -0.15769,1.68971 -0.29597,3.37828 -0.23291,5.07751 0.001,1.21917 0.0197,2.43966 0.18289,3.65023 0.18793,1.35525 0.52758,2.67493 0.76468,4.02115 0.2614,1.24531 0.46501,2.5108 1.01716,3.67068 0.54947,1.33475 0.91443,2.68536 0.99327,4.13947 0.18193,1.88773 0.23522,3.78612 0.42096,5.67415 0,0 6.65917,-3.49967 6.65917,-3.49967 z"
     id="path857"
     style="opacity:1;fill:#0a0a0a;fill-opacity:1" />
  <path
     d="m 353.29762,402.09573 c -0.24687,-2.41089 -0.53986,-4.81657 -0.73892,-7.23249 -0.13564,-1.64553 -0.18703,-3.29569 -0.19508,-4.94622 -0.003,-0.95685 0.008,-1.9137 0.002,-2.87053 -0.18152,-0.98215 -0.35003,-1.96 -0.43167,-2.95619 -0.0153,-1.04939 -0.098,-2.08457 -0.23548,-3.12395 -0.13971,-1.28288 -0.15072,-2.57532 -0.16117,-3.86439 -0.008,-1.44473 -0.0158,-2.88945 -0.0206,-4.33422 -0.01,-1.76511 -0.009,-3.53017 0.005,-5.29524 0.009,-1.11494 0.0177,-2.22988 0.0275,-3.34481 0.006,-0.66069 0.008,-1.32142 0.009,-1.98213 -0.005,-0.74129 -0.008,-1.48255 -0.006,-2.22385 -6.6e-4,-0.8147 -0.003,-1.62938 -0.001,-2.44409 0.006,-0.85483 -0.003,-1.70956 -0.008,-2.56435 -0.0207,-1.28881 -0.0156,-2.57771 -0.003,-3.86655 0.0136,-0.8183 0.0149,-1.63662 0.0115,-2.45499 -0.0171,-1.30746 -0.027,-2.61505 -0.0273,-3.92263 0.003,-1.24505 0.0133,-2.49006 0.019,-3.7351 0.006,-1.01242 0.003,-2.02478 -0.005,-3.03716 -0.005,-1.21286 -0.003,-2.4257 0.002,-3.63856 0.007,-0.92521 0.0105,-1.8504 0.01,-2.77564 -0.0688,-0.86212 0.1944,-1.68434 0.31381,-2.53058 0.0623,-1.01187 0.27055,-1.99527 0.39809,-2.99921 0.0817,-1.38646 0.37403,-2.74272 0.57724,-4.11389 0.13524,-0.99044 0.19686,-1.98874 0.20315,-2.98779 -0.008,-1.12446 -0.003,-2.24894 -0.002,-3.37342 -0.003,-1.26398 -0.015,-2.52792 -0.0185,-3.79189 0,-1.44653 -0.002,-2.89304 0.004,-4.33956 -1.8e-4,-1.00584 0.0246,-2.01156 0.0171,-3.01737 -0.0169,-1.23523 -0.0176,-2.47056 -0.0137,-3.70587 0.004,-1.06989 0.009,-2.13977 0.0111,-3.20966 -0.009,-1.17569 -0.0125,-2.35136 -0.008,-3.52708 0.0646,-0.92121 -0.10496,-1.87218 0.0945,-2.77794 0.26953,-0.98724 0.22709,-2.01941 0.43598,-3.01466 0.14812,-0.70562 0.0769,-0.35455 0.21381,-1.05316 0,0 -6.76013,3.28239 -6.76013,3.28239 v 0 c -0.13506,0.69915 -0.0675,0.34404 -0.20267,1.06536 -0.14173,1.01664 -0.22573,2.04055 -0.445,3.04581 -0.0722,0.95109 -0.0137,1.90645 -0.0239,2.85963 0.005,1.1783 0.002,2.35656 -0.008,3.53484 0.002,1.06613 0.007,2.13225 0.0111,3.19838 0.004,1.23996 0.003,2.47994 -0.0137,3.71981 -0.007,1.00002 0.0171,1.99993 0.0171,2.99996 0.007,1.44501 0.004,2.89002 0.005,4.33504 -0.003,1.26964 -0.0143,2.53924 -0.0127,3.8089 0.005,1.12105 0.0179,2.24241 -0.0145,3.3632 -0.0336,0.96627 -0.0767,1.93354 -0.22196,2.89089 -0.20266,1.36962 -0.43869,2.73363 -0.57261,4.11253 -0.16735,1.0001 -0.32845,1.99703 -0.43029,3.00635 -0.15273,0.87447 -0.33599,1.74291 -0.26484,2.63762 -7.1e-4,0.92191 0.003,1.84379 0.01,2.76567 0.005,1.21235 0.006,2.42467 0.002,3.63701 -0.009,1.01419 -0.0111,2.02837 -0.005,3.0426 0.006,1.23859 0.0159,2.47715 0.019,3.71575 -3.4e-4,1.31686 -0.0103,2.63373 -0.0273,3.95048 -0.003,0.81447 -0.002,1.62888 0.0115,2.44327 0.0124,1.28999 0.0171,2.58004 -0.003,3.86999 -0.005,0.85759 -0.0138,1.71512 -0.008,2.57276 0.002,0.81514 -6.4e-4,1.63026 -0.001,2.44541 0.002,0.74349 -0.002,1.48694 -0.006,2.23042 10e-4,0.65774 0.002,1.3155 0.009,1.97322 0.01,1.10562 0.0185,2.21125 0.0269,3.31689 0.0138,1.76382 0.0129,3.52763 0.002,5.29149 -0.006,1.452 -0.0205,2.90435 0.002,4.35619 0.027,1.32221 0.0383,2.64786 0.16575,3.96503 0.14448,1.0213 0.19975,2.04504 0.24068,3.07556 0.0809,0.97776 0.27116,1.93416 0.39138,2.90578 -0.01,0.95973 -0.008,1.91981 0.0164,2.87933 0.0566,1.65054 0.14501,3.30093 0.31542,4.94405 0.2435,2.42659 0.5325,4.85013 0.65031,7.28722 0,0 6.65018,-3.47366 6.65018,-3.47366 z"
     id="path859"
     style="opacity:1;fill:#0a0a0a;fill-opacity:1" />
  <path
     d="m 347.16388,286.07953 c 0.21293,1.61624 0.34902,3.2413 0.44644,4.8682 0.0486,1.27968 0.26284,2.54659 0.40235,3.81884 0,0 6.63033,-3.4773 6.63033,-3.4773 v 0 c -0.15961,-1.25656 -0.36051,-2.5118 -0.39028,-3.78044 -0.113,-1.61657 -0.33735,-3.22513 -0.38368,-4.84575 0,0 -6.70516,3.41645 -6.70516,3.41645 z"
     id="path861"
     style="opacity:1;fill:#0a0a0a;fill-opacity:1" />
  <path
     d="m 375.1454,281.35405 c -1.10748,-1.36817 -2.26962,-2.68305 -3.49526,-3.94649 -1.36801,-1.2585 -2.89727,-2.31526 -4.3064,-3.52832 -1.09889,-1.02369 -2.27943,-1.95302 -3.44002,-2.904 -1.15682,-0.91033 -2.30307,-1.82705 -3.54906,-2.61362 -1.21866,-0.82536 -2.34023,-1.78152 -3.49541,-2.69108 -0.9962,-0.8111 -2.14355,-1.43336 -3.12537,-2.25837 -0.7254,-0.60156 -1.40475,-1.25056 -2.04061,-1.94561 -0.541,-0.61333 -1.09578,-1.21394 -1.64189,-1.82308 -0.53376,-0.63679 -1.08808,-1.25652 -1.61568,-1.89912 -0.4163,-0.65648 -0.95167,-1.22516 -1.44081,-1.82667 -0.54286,-0.57933 -1.10794,-1.13901 -1.67015,-1.70039 -0.70186,-0.5278 -1.26141,-1.17984 -1.80634,-1.86015 -0.65647,-0.63087 -1.18191,-1.37319 -1.7852,-2.0521 -0.45143,-0.6598 -1.05239,-1.18416 -1.61754,-1.74064 -0.60449,-0.57396 -1.32745,-0.99699 -2.01466,-1.4608 -1.15759,-0.87805 -2.38472,-1.65794 -3.61427,-2.42991 -1.02607,-0.55246 -2.03132,-1.1306 -3.02265,-1.74383 -0.98295,-0.53117 -1.94282,-1.10043 -2.83082,-1.78007 -0.88468,-0.64885 -1.80311,-1.25764 -2.73629,-1.83559 -0.81395,-0.46368 -1.52814,-1.06872 -2.21496,-1.69906 -0.67369,-0.64916 -1.33825,-1.31214 -2.04454,-1.92735 -0.70229,-0.69134 -1.48895,-1.28836 -2.20054,-1.96808 -0.88184,-0.96214 -1.77114,-1.91474 -2.71877,-2.81273 -2.3155,-2.36106 -0.048,-2.75028 -6.58137,3.85905 -0.21106,0.21352 0.43922,0.40945 0.66104,0.61177 0.26768,0.24415 0.53829,0.48507 0.80744,0.7276 2.5438,2.27819 5.23111,4.39251 7.93012,6.48257 2.53202,2.03058 5.24684,3.78212 8.2124,5.10025 3.68476,1.5205 3.53515,0.84859 8.36142,-3.58021 0.27522,-0.25255 -0.52235,-0.53715 -0.8159,-0.76814 -0.35564,-0.27987 -0.75025,-0.50633 -1.12537,-0.75949 -2.04613,-1.15232 -3.99052,-2.45011 -5.88774,-3.82956 -1.17117,-0.86466 -2.19989,-1.90621 -3.23224,-2.9285 -1.26711,-1.27346 -2.41985,-2.65498 -3.62614,-3.98556 -1.15821,-1.32746 -2.35877,-2.63001 -3.42794,-4.03205 -0.59902,-0.87103 -1.36367,-1.5745 -2.14927,-2.26964 -1.00085,-0.90801 -1.99367,-1.82374 -3.01452,-2.70935 -0.8198,-0.71786 -1.62185,-1.45412 -2.42852,-2.18642 -0.89801,-0.89637 -2.00363,-1.51431 -2.89534,-2.4208 -0.70206,-0.72997 -1.43043,-1.43674 -2.109,-2.18876 -0.52533,-0.53693 -1.02207,-1.1015 -1.50451,-1.67687 -0.61224,-0.52469 -1.06349,-1.17566 -1.5591,-1.80458 -0.6419,-0.78858 -1.25113,-1.60193 -1.89569,-2.38871 -0.53472,-0.6102 -1.10973,-1.18208 -1.66111,-1.77648 -0.56657,-0.5981 -1.12872,-1.18769 -1.77319,-1.70314 -1.36576,-0.93256 -2.7503,-1.83609 -4.11749,-2.76729 -1.27153,-0.89938 -2.55662,-1.77593 -3.87547,-2.60485 -1.18831,-0.72361 -2.27619,-1.5735 -3.14114,-2.6646 -0.85014,-1.16432 -1.69811,-2.32916 -2.53433,-3.50334 -0.49248,-0.75805 -1.13875,-1.41553 -1.58015,-2.20491 -0.48491,-0.7118 -0.95783,-1.42967 -1.4382,-2.14421 -0.9591,-1.30015 -2.37856,-2.10031 -3.7116,-2.95702 -1.32348,-0.79351 -2.62639,-1.60104 -3.86399,-2.52246 -0.83391,-0.60585 -1.64108,-1.27954 -2.26996,-2.10186 -0.5752,-0.87507 -0.90657,-1.86749 -1.45095,-2.76316 -0.59812,-0.83595 -1.31569,-1.57099 -2.0284,-2.30769 -1.05566,-0.89489 -1.9992,-1.90589 -2.98381,-2.8781 -0.59448,-0.58533 -1.16328,-1.19555 -1.79478,-1.74129 -0.51488,-0.39811 -1.14513,-0.61018 -1.72375,-0.90141 -0.50414,-0.29482 -0.26451,-0.13495 -0.72021,-0.4776 0,0 -6.37541,3.99789 -6.37541,3.99789 v 0 c 0.50561,0.4374 0.24452,0.24112 0.77997,0.5932 0.51384,0.3135 1.06224,0.57105 1.61922,0.78419 0.62274,0.54398 1.26813,1.06429 1.84087,1.66676 0.99729,0.93916 1.89359,1.98427 2.93556,2.87331 0.66933,0.70483 1.36933,1.38045 1.95871,2.15575 0.55136,0.92064 0.87119,1.95159 1.46898,2.84536 0.66688,0.8833 1.52737,1.61566 2.41234,2.27317 1.27561,0.90246 2.56483,1.77111 3.93444,2.5305 1.25035,0.79261 2.58161,1.52187 3.47464,2.74262 0.4706,0.69643 0.92974,1.39862 1.40762,2.09065 0.45922,0.81654 1.11498,1.49978 1.64776,2.26937 0.86699,1.15956 1.73569,2.31751 2.5668,3.50372 0.88867,1.19926 2.01983,2.10703 3.29502,2.88317 1.31458,0.82403 2.59449,1.69146 3.85511,2.59512 1.36634,0.88405 2.71763,1.80001 4.05226,2.72882 0.61244,0.49319 1.13334,1.05814 1.68014,1.61927 0.52778,0.59722 1.12427,1.12895 1.65526,1.72551 0.62127,0.80011 1.29049,1.56339 1.89589,2.37685 0.48768,0.63981 0.90098,1.33562 1.54428,1.8366 0.47615,0.59382 1.00153,1.15173 1.53802,1.69186 0.67528,0.77214 1.43159,1.47191 2.15146,2.20195 0.89333,0.93225 1.97936,1.59481 2.91681,2.46969 0.82279,0.72534 1.5975,1.50335 2.43905,2.20867 1.0447,0.84404 2.03657,1.74972 2.99311,2.69288 0.74229,0.67488 1.50875,1.31966 2.10583,2.13517 1.0961,1.40959 2.33837,2.69944 3.50908,4.04602 1.1918,1.35782 2.34532,2.75421 3.59838,4.05507 1.05823,1.05441 2.10692,2.13678 3.32153,3.01338 1.92513,1.36276 3.89021,2.65354 5.95064,3.80628 0.3385,0.23841 0.68375,0.46752 1.01552,0.71522 0.17541,0.13096 0.30626,0.51189 0.50492,0.41994 9.96814,-4.61412 7.89551,-2.85475 4.44797,-4.11677 -2.99972,-1.16345 -5.71346,-2.86246 -8.24354,-4.84683 -2.65964,-2.07897 -5.27489,-4.22057 -7.74799,-6.52032 -0.25674,-0.24634 -0.51504,-0.49107 -0.77022,-0.73903 -0.19289,-0.18742 -0.32913,-0.6784 -0.57395,-0.56707 -2.31044,1.05069 -4.32396,2.67003 -6.58522,3.82275 -0.12343,0.0629 -0.18391,-0.24227 -0.16847,-0.37994 0.027,-0.2412 0.53601,1.03945 0.51173,0.51798 0.97242,0.85566 1.85222,1.80331 2.70234,2.77981 0.69303,0.7332 1.51421,1.32111 2.22843,2.03452 0.72818,0.57669 1.33961,1.28138 2.01813,1.91231 0.73774,0.64335 1.44828,1.32618 2.30996,1.81019 0.92948,0.53212 1.79145,1.1716 2.68802,1.75269 0.88903,0.71384 1.84522,1.34413 2.86464,1.85226 0.99116,0.63015 1.9942,1.22196 3.05743,1.72222 1.21686,0.75951 2.44897,1.5042 3.55878,2.41897 0.63588,0.46233 1.31178,0.86068 1.91587,1.36619 0.54584,0.55755 1.19141,1.01909 1.61425,1.68981 0.59145,0.67411 1.1099,1.41149 1.77399,2.01727 0.56299,0.70081 1.08978,1.42665 1.83494,1.95486 0.5601,0.5205 1.07251,1.08723 1.62566,1.6148 0.48279,0.61035 1.03042,1.17194 1.445,1.83398 0.53281,0.65061 1.09924,1.27259 1.6307,1.92257 0.54128,0.62063 1.11217,1.2131 1.65396,1.83253 0.65584,0.71194 1.34287,1.4004 2.09446,2.01213 0.9699,0.86625 2.17762,1.42713 3.16729,2.27786 1.18592,0.92074 2.35201,1.86675 3.57018,2.74501 1.24327,0.73516 2.32042,1.67653 3.46419,2.54985 1.16931,0.94084 2.3677,1.84786 3.47414,2.8657 1.41124,1.16856 2.86421,2.28324 4.25329,3.47811 1.2067,1.2204 2.39115,2.46293 3.388,3.86567 0,0 6.47823,-3.81417 6.47823,-3.81417 z"
     id="path863"
     style="opacity:1;fill:#0a0a0a;fill-opacity:1" />
  <path
     d="m 261.10565,173.66457 c -1.09028,-0.75421 -2.09235,-1.61253 -2.98744,-2.58932 -0.33357,-0.43124 -0.69574,-0.8387 -1.0453,-1.25678 0,0 -6.44417,3.87857 -6.44417,3.87857 v 0 c 0.36347,0.41902 0.74838,0.81944 1.07924,1.26581 0.92703,1.02165 1.97401,1.89701 3.05097,2.75451 0,0 6.3467,-4.05279 6.3467,-4.05279 z"
     id="path865"
     style="opacity:1;fill:#0a0a0a;fill-opacity:1" />
  <path
     d="m 249.64944,174.25488 c -1.4104,0.87741 -2.87102,1.68726 -4.1994,2.6885 -0.71961,0.4982 -1.47043,1.04852 -1.99159,1.7602 -0.63188,0.54972 -1.11623,1.2511 -1.58038,1.94304 -0.5035,1.07081 -1.22771,2.0087 -1.92662,2.96018 -0.31403,0.57552 -2.1338,2.186 -0.41322,2.51379 0.27483,0.0524 0.51558,-0.21738 0.77337,-0.32608 3.84282,-1.99241 7.50987,-3.95141 10.51501,-7.00366 0.92303,-0.88688 1.47638,-2.07171 2.06,-3.19349 0.0874,-0.14475 0.18103,-0.28589 0.26212,-0.43425 0.21559,-0.39447 0.19225,-0.49426 0.48944,-0.82046 0.21767,-0.23891 0.47606,-0.39685 0.66829,-0.66243 -2.44831,1.17054 -4.93929,2.25573 -7.34493,3.51162 -0.30037,0.15681 -0.48752,0.47069 -0.73216,0.70511 -0.31533,0.30217 -0.62053,0.61542 -0.94775,0.90467 -1.02975,0.91025 -2.1242,1.7593 -3.22602,2.57937 -1.24734,0.87397 -2.44652,1.79575 -3.61206,2.77013 -1.01212,1.04495 -1.65302,2.36929 -2.315,3.64671 -0.43538,1.25068 -1.12316,2.34259 -1.84728,3.43655 -0.92098,1.24126 -1.87862,2.45988 -2.95038,3.57523 -0.41614,0.54892 -0.93597,0.99975 -1.41053,1.4944 -0.0732,0.0763 -0.24372,0.13139 -0.21519,0.23325 0.0927,0.33105 0.21239,1.02038 0.52866,0.8856 2.42274,-1.03247 4.53767,-2.67435 6.80651,-4.01152 1.89685,-1.50279 3.71387,-3.10455 5.51969,-4.71485 1.43518,-1.38974 3.11937,-2.47284 4.6616,-3.73391 1.42031,-1.15173 2.47693,-2.65802 3.58869,-4.09074 0.99087,-1.22238 1.91257,-2.49855 2.88725,-3.73369 0.35796,-0.54905 0.76057,-1.06349 1.17391,-1.57085 0.0567,-0.0696 0.2493,-0.24851 0.16806,-0.21037 -7.37433,3.46198 -5.86951,1.23082 -7.67458,4.31076 -1.62578,2.35316 -3.41596,4.6004 -5.24,6.80409 -1.54999,1.76542 -3.08802,3.55575 -4.83125,5.1351 -1.61879,1.45466 -3.33656,2.80118 -4.91705,4.29793 -0.75566,0.44625 -1.28304,1.12333 -1.88406,1.73513 -0.5749,0.5852 -1.15727,1.09428 -1.67955,1.7329 -0.68398,0.91622 -1.5471,1.64285 -2.47952,2.29225 -0.89081,0.67034 -1.83249,1.25415 -2.70279,1.95383 -0.16056,0.13761 -0.30947,0.29011 -0.48167,0.41284 -0.17828,0.12707 -0.37714,0.22246 -0.56571,0.33368 -0.21617,0.14867 -0.43641,0.29158 -0.6485,0.446 -0.83143,0.60535 -1.65369,1.22713 -2.46812,1.85521 -1.74959,1.22769 -3.35998,2.63604 -5.11472,3.85492 -1.81949,1.29766 -3.20423,3.06307 -4.99153,4.40232 1.95797,-1.15862 3.91594,-2.31724 5.87391,-3.47585 -0.32578,0.0842 0.0516,0.25315 0.11463,0.20619 0.19138,-0.14245 1.25908,-1.97776 1.38558,-2.17003 2.24798,-3.04286 4.79726,-5.85205 7.29156,-8.69295 1.9587,-2.14216 3.76164,-4.41536 5.69999,-6.57445 1.06282,-0.8341 2.31045,-3.01904 3.50455,-3.54451 -2.23898,1.14182 -4.47797,2.28363 -6.71696,3.42544 -0.0655,0.0429 -0.15649,0.0614 -0.19639,0.12873 -0.0858,0.14476 -0.0985,0.32235 -0.16301,0.47776 -0.25372,0.61145 -0.54504,1.21513 -0.80957,1.82295 -1.08838,2.15691 -2.42819,4.16719 -3.66541,6.2386 -1.00798,1.44714 -1.93091,2.95806 -3.01486,4.35084 -0.35881,0.63422 -0.96661,1.09937 -1.30759,1.74654 -0.29396,0.74882 -0.12781,0.39102 -0.49397,1.07547 -0.0683,0.15564 -0.18075,0.29867 -0.20491,0.46691 -0.0192,0.1338 -0.0446,0.44772 0.0808,0.39738 2.50007,-1.00322 4.93909,-2.15952 7.34254,-3.37618 0.32775,-0.16592 0.5332,-0.50566 0.80784,-0.74965 0.78108,-0.69389 1.58297,-1.36401 2.3731,-2.0476 1.04169,-0.9086 2.08728,-1.81966 3.16854,-2.68153 0.19946,-0.15899 0.41265,-0.29999 0.61667,-0.4531 0.0961,-0.0721 0.39437,-0.26927 0.28364,-0.22258 -2.46293,1.03854 -4.90094,2.13522 -7.3514,3.20283 -1.25443,1.16679 -2.59601,2.23743 -3.87424,3.37978 -1.27496,1.25051 -2.7343,2.28976 -4.08277,3.45265 -1.20198,1.00485 -2.38578,2.02644 -3.64725,2.96185 -1.43244,1.12196 -2.8627,2.25319 -4.24227,3.43902 -1.16975,1.10587 -2.38302,2.17774 -3.43526,3.39851 -0.96542,1.0602 -1.96131,2.08226 -3.00552,3.0656 -1.16286,1.01605 -2.38627,1.96991 -3.72234,2.74698 -1.26373,0.78444 -2.43958,1.70657 -3.62249,2.60797 -2.90668,2.93746 -4.74347,3.084 5.58102,-2.03224 2.64916,-3.79874 5.95398,-7.10074 9.25792,-10.32804 1.14534,-1.18415 2.43569,-2.20938 3.64166,-3.32769 0.58161,-0.53933 1.10226,-1.07121 1.75303,-1.52477 2.49464,-1.76547 -2.92809,2.08675 -5.89698,3.40977 -0.2556,0.1139 -0.29256,-0.58339 -0.5705,-0.61586 -0.21446,-0.0251 -0.27406,0.33373 -0.41026,0.50126 -1.3113,1.61298 -0.32046,0.41404 -1.94093,2.35084 -2.96713,3.70394 -6.02789,7.32925 -9.23159,10.83074 -2.60006,2.81432 -3.83579,2.20769 4.6922,-2.22862 0.1235,-0.0642 0.15162,0.30462 0.29075,0.29981 0.11046,-0.004 0.27034,-0.60318 0.36855,-0.91444 0.42195,-1.28929 0.93948,-2.52829 1.17758,-3.87035 0.11009,-1.14787 0.2957,-2.31104 0.14363,-3.46042 -0.22674,-1.09859 -0.59055,-2.15407 -0.98337,-3.2023 0,0 -6.56191,3.65964 -6.56191,3.65964 v 0 c 0.40243,0.97218 0.74143,1.96789 0.87881,3.01632 0.0478,1.08812 -0.036,2.18304 -0.22546,3.25538 -0.30428,1.30066 -0.81526,2.5297 -1.20347,3.80579 -1.56026,5.34544 6.29005,-0.62011 8.16403,-3.19821 3.11031,-3.57871 6.15452,-7.21211 9.207,-10.84001 0.19986,-0.23233 2.51366,-2.73196 2.51669,-3.16231 0.002,-0.35079 -0.0931,-1.09938 -0.41757,-0.96602 -3.79781,1.56093 -4.80631,2.39155 -6.96655,4.11864 -1.74955,1.54661 -3.39094,3.22026 -5.09102,4.81976 -3.33565,3.34539 -6.68656,6.74411 -9.41596,10.61275 8.06218,-2.78221 4.76344,-0.91956 8.2053,-3.77925 1.18532,-0.87891 2.34391,-1.79976 3.62645,-2.53705 1.30446,-0.85777 2.5387,-1.82828 3.67886,-2.89536 1.03753,-0.99639 2.00123,-2.06316 2.98003,-3.11662 1.09787,-1.15861 2.25973,-2.25852 3.46838,-3.30089 1.39559,-1.14549 2.76875,-2.31964 4.22401,-3.39017 1.25507,-0.96594 2.45092,-2.0007 3.66942,-3.01159 1.37838,-1.1231 2.74719,-2.25889 4.05584,-3.46352 1.30423,-1.14513 2.65969,-2.2329 3.91495,-3.43252 -2.20061,0.82558 -4.41222,1.62238 -6.60182,2.47672 -0.31119,0.12142 -0.51419,0.42654 -0.769,0.64254 -1.03475,0.87714 -2.06828,1.75603 -3.08595,2.65298 -0.57914,0.49352 -1.84724,1.58561 -2.4596,2.06327 -0.30454,0.23754 -1.29895,0.81928 -0.93934,0.67837 4.61278,-1.80742 5.4687,-0.8526 6.63507,-3.26787 0.4986,-0.98103 1.18291,-1.82123 1.83398,-2.70435 1.01736,-1.41819 1.94806,-2.89988 2.87985,-4.37468 1.26511,-2.10749 2.64809,-4.15029 3.72162,-6.36701 2.02052,-4.58 1.4683,-3.83818 -5.93498,0.0371 -1.09254,1.21492 -2.18944,2.42585 -3.28692,3.6364 -1.88754,2.15401 -3.68822,4.38193 -5.58178,6.53084 -2.51696,2.89946 -5.13863,5.72766 -7.38575,8.84574 -0.44235,0.68637 -1.35214,1.75155 -1.3104,2.65555 0.0124,0.26831 0.11002,0.54194 0.26595,0.76063 1.59712,2.23989 18.13044,-9.94657 7.364,-3.72589 1.68399,-1.43581 3.1422,-3.13235 4.99809,-4.36196 1.71427,-1.26026 3.34541,-2.6303 5.08092,-3.86314 1.40596,-1.04343 2.85787,-2.021 4.24583,-3.08657 0.90028,-0.66124 1.84458,-1.26033 2.71861,-1.95793 0.87641,-0.73281 1.70323,-1.49768 2.38825,-2.42029 1.10857,-1.20454 2.29967,-2.33336 3.56002,-3.37777 1.61417,-1.46035 3.30171,-2.83814 4.9106,-4.30405 1.66732,-1.64887 3.23271,-3.39921 4.73514,-5.19907 1.81006,-2.26217 3.6397,-4.52193 5.26249,-6.92285 1.76737,-2.78543 0.93461,-1.11094 -6.07958,1.694 -0.0804,0.0322 -0.83008,1.13677 -0.88886,1.21603 -0.13208,0.17808 -0.2666,0.35434 -0.39991,0.53151 -0.93317,1.24162 -1.85781,2.4904 -2.82858,3.70307 -1.10848,1.41101 -2.22017,2.83973 -3.66146,3.93286 -1.56316,1.22136 -3.18988,2.36753 -4.6132,3.75762 -1.83184,1.63461 -3.681,3.25562 -5.65629,4.71683 2.04984,-1.16636 3.95304,-2.64019 6.14952,-3.4991 0.31839,-0.1245 0.24287,0.65891 0.47722,0.9078 0.063,0.0669 0.12357,-0.13602 0.18616,-0.20327 0.45823,-0.49239 0.9148,-0.98622 1.35865,-1.49176 1.03848,-1.18771 2.05491,-2.40234 2.94572,-3.70602 0.71145,-1.10257 1.23746,-2.29121 1.77712,-3.48374 0.65779,-1.23749 1.36501,-2.48734 2.46124,-3.3932 1.12902,-0.95544 2.36057,-1.78195 3.52185,-2.69734 1.43808,-1.13438 2.875,-2.28795 4.1631,-3.59402 2.56448,-2.60027 -0.40952,-0.38416 -5.75023,1.59129 -0.58162,0.57753 -0.90501,1.33385 -1.30538,2.03721 -0.59344,1.07611 -1.16476,2.16348 -2.12009,2.97463 -2.17894,2.0941 -8.50909,6.00722 2.22323,-0.54032 -0.6793,0.46292 -0.80054,0.27856 -0.48664,1.19697 0.0184,0.0539 0.0681,-0.0913 0.10103,-0.13773 0.36021,-0.50848 0.71441,-1.02129 1.06822,-1.53423 0.69829,-0.97452 1.35668,-1.9675 1.97942,-2.99052 0.49775,-0.65796 1.01837,-1.28878 1.6138,-1.86246 0.63888,-0.56843 1.28016,-1.13185 2.00642,-1.59088 1.38489,-0.93541 2.81364,-1.80297 4.25489,-2.64843 0,0 -7.02098,2.71147 -7.02098,2.71147 z"
     id="path867"
     style="opacity:1;fill:#0a0a0a;fill-opacity:1" />
</svg>
