<?xml version="1.0" encoding="UTF-8" standalone="no"?>
<svg
   xmlns:dc="http://purl.org/dc/elements/1.1/"
   xmlns:cc="http://creativecommons.org/ns#"
   xmlns:rdf="http://www.w3.org/1999/02/22-rdf-syntax-ns#"
   xmlns:svg="http://www.w3.org/2000/svg"
   xmlns="http://www.w3.org/2000/svg"
   xmlns:sodipodi="http://sodipodi.sourceforge.net/DTD/sodipodi-0.dtd"
   xmlns:inkscape="http://www.inkscape.org/namespaces/inkscape"
   height="512"
   viewBox="0 0 512 512"
   width="512"
   version="1.1"
   id="svg20"
   sodipodi:docname="xava.svg"
   inkscape:version="1.0.1 (3bc2e813f5, 2020-09-07)">
  <metadata
     id="metadata26">
    <rdf:RDF>
      <cc:Work
         rdf:about="">
        <dc:format>image/svg+xml</dc:format>
        <dc:type
           rdf:resource="http://purl.org/dc/dcmitype/StillImage" />
        <dc:title />
      </cc:Work>
    </rdf:RDF>
  </metadata>
  <defs
     id="defs24" />
  <sodipodi:namedview
     pagecolor="#ffffff"
     bordercolor="#666666"
     borderopacity="1"
     objecttolerance="10"
     gridtolerance="10"
     guidetolerance="10"
     inkscape:pageopacity="0"
     inkscape:pageshadow="2"
     inkscape:window-width="3840"
     inkscape:window-height="1534"
     id="namedview22"
     showgrid="false"
     inkscape:zoom="2.0078125"
     inkscape:cx="171.57977"
     inkscape:cy="256"
     inkscape:window-x="0"
     inkscape:window-y="30"
     inkscape:window-maximized="1"
     inkscape:current-layer="svg20"
     inkscape:document-rotation="0" />
  <path
     d="m490.30678 256.00699c0 129.40454-104.90024 234.30479-234.30478 234.30479-129.40454 0-234.304785-104.90025-234.304785-234.30479 0-129.40453 104.900245-234.304784 234.304785-234.304784 129.40454 0 234.30478 104.900254 234.30478 234.304784"
     fill="#ff0400"
     fill-rule="evenodd"
     id="path2" />
  <path
     d="M 243.29961,91.891051 C 173.13108,154.4947 127.25292,155.14397 102.91914,380.72988 l 131.67209,103.8828 C 353.41123,483.7597 470.02,375.48286 471.91,256.87569 c -0.187,-0.14028 -0.374,-0.26756 -0.563,-0.40685 z"
     fill-opacity="0.235"
     id="path4"
     sodipodi:nodetypes="cccccc" />
  <g
     fill-rule="evenodd"
     transform="translate(0 -540.36)"
     id="g16">
    <path
       d="m256 541.36c-140.83 0-255 114.17-255 255 0 140.83 114.17 255 255 255 140.83 0 255-114.17 255-255 0-140.83-114.17-255-255-255m8.827 44.931c120.9 0 218.9 98 218.9 218.9 0 120.9-98 218.9-218.9 218.9-120.9 0-218.93-98-218.93-218.9 0-120.9 98.03-218.9 218.93-218.9"
       fill-opacity=".067"
       id="path6" />
    <g
       fill-opacity=".129"
       id="g12">
      <path
         d="m256 544.79c-138.94 0-251.57 112.63-251.57 251.57 0 138.94 112.63 251.54 251.57 251.54 138.94 0 251.57-112.6 251.57-251.54 0-138.94-112.63-251.57-251.57-251.57m5.885 38.556c120.9 0 218.9 98 218.9 218.9 0 120.9-98 218.9-218.9 218.9-120.9 0-218.93-98-218.93-218.9 0-120.9 98.03-218.9 218.93-218.9"
         id="path8" />
      <path
         d="m256 548.72c-136.77 0-247.64 110.87-247.64 247.64 0 136.77 110.87 247.64 247.64 247.64 136.77 0 247.64-110.87 247.64-247.64 0-136.77-110.87-247.64-247.64-247.64m2.942 31.691c120.9 0 218.9 98 218.9 218.9 0 120.9-98 218.9-218.9 218.9-120.9 0-218.93-98-218.93-218.9 0-120.9 98.03-218.9 218.93-218.9"
         id="path10" />
    </g>
    <path
       d="m253.04 548.22c-135.42 0-245.19 109.78-245.19 245.19 0 135.42 109.78 245.19 245.19 245.19 135.42 0 245.19-109.78 245.19-245.19 0-135.42-109.78-245.19-245.19-245.19zm0 26.297c120.9 0 218.9 98 218.9 218.9 0 120.9-98 218.9-218.9 218.9-120.9 0-218.93-98-218.93-218.9 0-120.9 98.03-218.9 218.93-218.9z"
       fill="#0a0a0a"
       stroke="#000000"
       stroke-opacity=".31"
       stroke-width="4.904"
       id="path14" />
  </g>
  <g
     id="layer101"
     fill="#0a0a0a"
     stroke="none"
     transform="matrix(0.14627488,0,0,0.15710776,67.813164,28.808495)">
    <path
       d="m 240,2120 v -120 h 1040 1040 v 120 120 H 1280 240 Z"
       id="path2-3" />
    <path
       d="M 400,1360 V 800 h 160 160 v 560 560 H 560 400 Z"
       id="path4-6" />
    <path
       d="M 880,1160 V 400 h 160 160 v 760 760 H 1040 880 Z"
       id="path6-7" />
    <path
       d="M 1360,1400 V 880 h 160 160 v 520 520 h -160 -160 z"
       id="path8-5" />
    <path
       d="m 1840,1560 v -360 h 160 160 v 360 360 h -160 -160 z"
       id="path10-3" />
  </g>
  <path
     style="fill:#000000;stroke:#0a0a0a;stroke-width:0.498054"
     d="m 267.20623,248.77821 v -81.68093 h 23.15953 23.15953 v 81.68093 81.68093 h -23.15953 -23.15953 z"
     id="path867" />
  <path
     style="fill:#000000;stroke:#0a0a0a;stroke-width:0.498054"
     d="M 196.98054,211.1751 V 91.891051 h 23.15954 23.15953 V 211.1751 330.45914 h -23.15953 -23.15954 z"
     id="path869" />
  <path
     style="fill:#000000;stroke:#0a0a0a;stroke-width:0.498054"
     d="m 126.75486,242.55253 v -87.90662 h 23.15954 23.15953 v 87.90662 87.90661 H 149.9144 126.75486 Z"
     id="path871" />
  <path
     style="fill:#000000;stroke:#0a0a0a;stroke-width:0.498054"
     d="m 103.3463,361.83658 v -18.42802 h 151.90662 151.90661 v 18.42802 18.42801 H 255.25292 103.3463 Z"
     id="path873" />
  <path
     style="fill:#0a0a0a;stroke:#0a0a0a;stroke-width:0.498054;fill-opacity:1"
     d="m 337.43191,273.92996 v -56.52918 h 23.15953 23.15953 v 56.52918 56.52918 h -23.15953 -23.15953 z"
     id="path875" />
  <path
     style="fill:#0a0a0a;fill-opacity:1;stroke:#0a0a0a;stroke-width:0.498054"
     d="m 337.92996,273.92996 v -56.03113 h 22.66148 22.66148 v 56.03113 56.03113 h -22.66148 -22.66148 z"
     id="path877" />
  <path
     style="fill:#0a0a0a;fill-opacity:1;stroke:#0a0a0a;stroke-width:0.498054"
     d="m 267.70428,248.77821 v -81.18288 h 22.66148 22.66148 v 81.18288 81.18288 h -22.66148 -22.66148 z"
     id="path879" />
  <path
     style="fill:#0a0a0a;fill-opacity:1;stroke:#0a0a0a;stroke-width:0.498054"
     d="M 197.4786,211.1751 V 92.389105 h 22.66148 22.66148 V 211.1751 329.96109 H 220.14008 197.4786 Z"
     id="path881" />
  <path
     style="fill:#0a0a0a;fill-opacity:1;stroke:#0a0a0a;stroke-width:0.498054"
     d="m 127.25292,242.55253 v -87.40856 h 22.66148 22.66148 v 87.40856 87.40856 H 149.9144 127.25292 Z"
     id="path883" />
  <path
     style="fill:#0a0a0a;fill-opacity:1;stroke:#0a0a0a;stroke-width:0.498054"
     d="m 103.84436,361.83658 v -17.92997 h 151.40856 151.40856 v 17.92997 17.92996 H 255.25292 103.84436 Z"
     id="path885" />
  <rect
     style="fill:#ff0400;fill-opacity:1;stroke:none"
     id="rect857"
     width="22.885822"
     height="162.00598"
     x="103.02177"
     y="177.46237" />
  <rect
     style="fill:#ff0400;fill-opacity:1;stroke:none"
     id="rect872"
     width="34.203247"
     height="40.375244"
     x="161.9254"
     y="113.8214" />
  <rect
     style="fill:#ff0400;fill-opacity:1;stroke:none"
     id="rect874"
     width="22.679298"
     height="25.473948"
     x="103.22829"
     y="313.99442" />
  <rect
     style="fill:#ff0400;fill-opacity:1;stroke:none"
     id="rect876"
     width="20.886366"
     height="10.695463"
     x="105.56244"
     y="331.83267" />
</svg>
