<?xml version="1.0" encoding="UTF-8" standalone="no"?>
<svg
   xmlns:dc="http://purl.org/dc/elements/1.1/"
   xmlns:cc="http://creativecommons.org/ns#"
   xmlns:rdf="http://www.w3.org/1999/02/22-rdf-syntax-ns#"
   xmlns:svg="http://www.w3.org/2000/svg"
   xmlns="http://www.w3.org/2000/svg"
   xmlns:sodipodi="http://sodipodi.sourceforge.net/DTD/sodipodi-0.dtd"
   xmlns:inkscape="http://www.inkscape.org/namespaces/inkscape"
   width="22"
   height="22"
   version="1.1"
   viewBox="0 0 22 22"
   id="svg8"
   sodipodi:docname="close_hover.svg"
   inkscape:version="1.0.1 (3bc2e813f5, 2020-09-07)">
  <metadata
     id="metadata14">
    <rdf:RDF>
      <cc:Work
         rdf:about="">
        <dc:format>image/svg+xml</dc:format>
        <dc:type
           rdf:resource="http://purl.org/dc/dcmitype/StillImage" />
      </cc:Work>
    </rdf:RDF>
  </metadata>
  <defs
     id="defs12" />
  <sodipodi:namedview
     pagecolor="#ffffff"
     bordercolor="#666666"
     borderopacity="1"
     objecttolerance="10"
     gridtolerance="10"
     guidetolerance="10"
     inkscape:pageopacity="0"
     inkscape:pageshadow="2"
     inkscape:window-width="3840"
     inkscape:window-height="1534"
     id="namedview10"
     showgrid="false"
     inkscape:zoom="43.600632"
     inkscape:cx="37.540444"
     inkscape:cy="11"
     inkscape:window-x="0"
     inkscape:window-y="30"
     inkscape:window-maximized="1"
     inkscape:current-layer="svg8" />
  <rect
     x="0.012661451"
     width="22"
     height="22"
     style="opacity:0.00100002;fill:#000000"
     id="rect2"
     y="0.0043998165" />
  <circle
     cx="11.012662"
     cy="11.0044"
     r="11"
     style="fill:#ff0400"
     id="circle4" />
  <path
     d="m 7.0158065,7.0046282 h 0.999607 c 0.01037,-1.2e-4 0.02078,-4.6e-4 0.03124,0 0.254851,0.0112 0.50967,0.1285762 0.68723,0.3124908 L 11.014237,9.5983024 13.325828,7.317119 c 0.26552,-0.2304932 0.446496,-0.305491 0.687229,-0.3124908 h 0.999604 v 0.9999707 c 0,0.2864617 -0.03433,0.550634 -0.249901,0.7499781 l -2.280354,2.281183 2.249116,2.249935 c 0.188114,0.188164 0.281131,0.453436 0.281139,0.718729 v 0.99997 h -0.999607 c -0.265196,-10e-6 -0.530377,-0.0931 -0.718467,-0.281241 l -2.280353,-2.281184 -2.2803535,2.281184 c -0.18809,0.188184 -0.453282,0.281241 -0.718467,0.281241 h -0.999607 v -0.99997 c -3e-6,-0.265283 0.09302,-0.530565 0.281139,-0.718729 L 9.5772995,11.03576 7.2969455,8.754577 C 7.0862865,8.5599527 6.9939045,8.2853407 7.0158065,8.0045989 Z"
     fill="#0a0a0a"
     id="path6" />
</svg>
