<svg width="22" height="22" version="1.1" viewBox="0 0 22 22" xmlns="http://www.w3.org/2000/svg">
  <rect width="22" height="22" style="fill:#000000;opacity:.00100002"/>
  <path d="m7.0031448 7.0002319h0.999607c0.010366-1.2e-4 0.020782-4.599e-4 0.031238 0 0.2548508 0.0112 0.5096696 0.1285763 0.6872297 0.3124909l2.2803535 2.2811833 2.311591-2.2811833c0.26552-0.2304933 0.446496-0.3054911 0.687229-0.3124909h0.999607v0.9999708c0 0.2864616-0.03433 0.5506339-0.249901 0.7499781l-2.280354 2.2811832 2.249116 2.249934c0.188114 0.188165 0.281131 0.453437 0.281139 0.718729v0.999971h-0.999607c-0.265196-1e-5 -0.530377-0.0931-0.718467-0.281242l-2.280353-2.281183-2.2803538 2.281183c-0.18809 0.188185-0.4532817 0.281242-0.7184674 0.281242h-0.999607v-0.999971c-3e-6 -0.265282 0.093023-0.530564 0.2811395-0.718729l2.2803533-2.249934-2.2803533-2.2811832c-0.2106592-0.1946243-0.3030409-0.4692363-0.2811395-0.7499781z" style="color:#bebebe;enable-background:new;fill:#ff0400;text-decoration-line:none;text-indent:0;text-transform:none"/>
</svg>
